<svg id="Layer_1" enable-background="new 0 0 64 64" height="512" viewBox="0 0 64 64" width="512" xmlns="http://www.w3.org/2000/svg"><path d="m44.8 29.2c1.2-7.1-3.6-13.8-10.7-15s-13.8 3.6-15 10.7c-.2 1.4-.2 2.9 0 4.3l2-.3c-1-6 3-11.7 9-12.7s11.7 3 12.7 9c.2 1.2.2 2.4 0 3.6z"/><path d="m32 8c-10.5 0-19 8.5-19 19 0 1.8.3 3.5.7 5.2l1.9-.6c-2.6-9 2.6-18.4 11.6-21s18.4 2.6 21 11.6c.9 3.1.9 6.3 0 9.4l1.9.6c2.9-10.1-2.9-20.6-13-23.5-1.6-.4-3.3-.7-5.1-.7z"/><path d="m32 2c-13.8 0-25 11.2-25 25 0 2.8.5 5.6 1.4 8.3l1.9-.7c-4.2-12 2.1-25.1 14-29.3s25.1 2.1 29.3 14c1.7 4.9 1.7 10.3 0 15.3l1.9.7c4.6-13-2.2-27.3-15.3-31.9-2.6-.9-5.4-1.4-8.2-1.4z"/><path d="m44 33h-6c-2.2 0-4 1.8-4 4v20c0 2.2 1.8 4 4 4h6c2.2 0 4-1.8 4-4v-7c0-1.1-.9-2-2-2h-2c-1.1 0-2 .9-2 2s.9 2 2 2v3c0 1.1-.9 2-2 2h-2c-1.1 0-2-.9-2-2v-16c0-1.1.9-2 2-2h2c1.1 0 2 .9 2 2v2c0 1.1.9 2 2 2s2-.9 2-2v-4c0-2.2-1.8-4-4-4z"/><path d="m35 23c0-1.7-1.3-3-3-3s-3 1.3-3 3c0 1.3.8 2.4 2 2.8v6.2c0 .6-.4 1-1 1h-10c-2.2 0-4 1.8-4 4v5c0 2.2 1.8 4 4 4h4c1.1 0 2 .9 2 2v7c0 1.1-.9 2-2 2h-2c-1.1 0-2-.9-2-2v-2c0-1.1-.9-2-2-2s-2 .9-2 2v4c0 2.2 1.8 4 4 4h6c2.2 0 4-1.8 4-4v-11c0-2.2-1.8-4-4-4h-4c-1.1 0-2-.9-2-2v-1c0-1.1.9-2 2-2h7c1.1 0 2-.9 2-2 0-.1 0-.1 0-.2 1.2-.4 2-1.5 2-2.8v-6.2c1.2-.4 2-1.5 2-2.8zm-3 1c-.6 0-1-.4-1-1s.4-1 1-1 1 .4 1 1-.4 1-1 1z"/></svg>