<?xml version="1.0" encoding="iso-8859-1"?>
<!-- Generator: Adobe Illustrator 19.0.0, SVG Export Plug-In . SVG Version: 6.00 Build 0)  -->
<svg version="1.1" id="Capa_1" xmlns="http://www.w3.org/2000/svg" xmlns:xlink="http://www.w3.org/1999/xlink" x="0px" y="0px"
	 viewBox="0 0 60 60" style="enable-background:new 0 0 60 60;" xml:space="preserve">
<g>
	<g>
		<path d="M59,0H1C0.4,0,0,0.4,0,1v58c0,0.6,0.4,1,1,1h58c0.6,0,1-0.4,1-1V1C60,0.4,59.6,0,59,0z M58,58H2V2h56V58z"/>
		<path d="M6,19h48c0.6,0,1-0.4,1-1V6c0-0.6-0.4-1-1-1H6C5.4,5,5,5.4,5,6v12C5,18.6,5.4,19,6,19z M7,7h46v10H7V7z"/>
		<path d="M54,22H42c-0.6,0-1,0.4-1,1v11c0,0.6,0.4,1,1,1h12c0.6,0,1-0.4,1-1V23C55,22.4,54.6,22,54,22z M53,31.8L44.5,24H53V31.8z
			 M43,25.3l8.4,7.7H43V25.3z"/>
		<path d="M54,38H42c-0.6,0-1,0.4-1,1v15c0,0.6,0.4,1,1,1h12c0.6,0,1-0.4,1-1V39C55,38.4,54.6,38,54,38z M51.9,40L43,51.2V40H51.9z
			 M44.1,53L53,41.9V53H44.1z"/>
		<path d="M6,40h17c0.6,0,1-0.4,1-1V23c0-0.6-0.4-1-1-1H6c-0.6,0-1,0.4-1,1v16C5,39.6,5.4,40,6,40z M8.6,38L22,25.4V38H8.6z
			 M20.5,24L7,36.7V24H20.5z"/>
		<rect x="27" y="22" width="10" height="2"/>
		<rect x="27" y="27" width="10" height="2"/>
		<rect x="27" y="32" width="10" height="2"/>
		<rect x="27" y="37" width="10" height="2"/>
		<rect x="6" y="43" width="31" height="2"/>
		<rect x="6" y="48" width="31" height="2"/>
		<rect x="6" y="53" width="31" height="2"/>
		<rect x="30" y="13" width="3" height="2"/>
		<rect x="35" y="13" width="3" height="2"/>
		<rect x="25" y="13" width="3" height="2"/>
	</g>
</g>
<g>
</g>
<g>
</g>
<g>
</g>
<g>
</g>
<g>
</g>
<g>
</g>
<g>
</g>
<g>
</g>
<g>
</g>
<g>
</g>
<g>
</g>
<g>
</g>
<g>
</g>
<g>
</g>
<g>
</g>
</svg>
