<svg id="Layer_5" enable-background="new 0 0 64 64" height="512" viewBox="0 0 64 64" width="512" xmlns="http://www.w3.org/2000/svg"><path d="m36.713 6.572h2v2h-2z" transform="matrix(.857 -.515 .515 .857 1.48 20.488)"/><path d="m40.143 4.514h2v2h-2z" transform="matrix(.857 -.515 .515 .857 3.029 21.96)"/><path d="m33.283 8.63h2v2h-2z" transform="matrix(.857 -.515 .515 .857 -.068 19.017)"/><path d="m11 20.414 1.271 1.271c2.138 2.138 4.979 3.315 8.002 3.315 1.957 0 3.891-.511 5.592-1.479l1.135-.646v7.512l4.774-1.591 3.811-10.48 13.415-8.775v-2.036c0-3.587-2.918-6.505-6.505-6.505-1.156 0-2.293.309-3.29.893l-8.041 4.714-12.288-4.726-4.624 3.082 8.784 6.408-5.894 3.455-6.92-5.954-4.743 1.581 5.521 8.834zm19.226 6.79-1.226.409v-8.033l5-2.857zm-12.478-22.167 1.376-.918 9.833 3.781-4.038 2.367zm22.468-1.418c.69-.405 1.478-.619 2.279-.619 2.484 0 4.505 2.021 4.505 4.505v.954l-11 7.196v-2.378l-9 5.143v2.154l-2.124 1.209c-1.4.796-2.992 1.217-4.603 1.217-2.488 0-4.828-.969-6.587-2.729l-.686-.685zm-31.695 7.928 1.257-.419 5.541 4.768-2.986 1.75z"/><path d="m54 47v-6h1.721l3.279-9.838v-2.162h-20v2.162l3.279 9.838h1.721v6h-8.256l1.091-6h.165c1.103 0 2-.897 2-2v-2c0-1.103-.897-2-2-2h-34c-1.103 0-2 .897-2 2v2c0 1.103.897 2 2 2h.165l4 22h55.835v-16zm-10.279-8-2.667-8h15.892l-2.667 8h-2.279v-6h-6v6zm8.279 2v6h-6v-6zm-4-2v-4h2v4zm-45 0v-2h34l.001 2zm7 22h-1.166l-1.636-9h2.802zm0-11h-3.165l-1.636-9h4.801zm6 11h-4v-9h4zm0-11h-4v-9h4zm6 11h-4v-9h4zm0-11h-4v-9h4zm6 11h-4v-9h4zm0-11h-4v-9h4zm3.165 11h-1.165v-9h2.802zm-1.165-11v-9h4.802l-1.636 9zm11 11h-2v-6h2zm8 0h-2v-6h2zm8 0h-2v-6h2zm4 0h-2v-8h-6v8h-2v-8h-6v8h-2v-8h-6v8h-3.802l2.182-12h25.62z"/></svg>