<svg height="512" viewBox="0 0 64 64" width="512" xmlns="http://www.w3.org/2000/svg"><g id="Control_tower" data-name="Control tower"><path d="m48 36h2v2h-2z"/><path d="m48 32h2v2h-2z"/><path d="m48 44h2v2h-2z"/><path d="m48 40h2v2h-2z"/><path d="m48 52h2v2h-2z"/><path d="m48 48h2v2h-2z"/><path d="m61.75 8.338a1 1 0 0 0 -.75-.338h-7.465l-2.667-4h2.132v-2h-8v2h2.132l-2.667 4h-7.465a1 1 0 0 0 -.992 1.124l1.992 15.938v3.938a1 1 0 0 0 1 1h5v6h-41a1 1 0 0 0 -1 1v24a1 1 0 0 0 1 1h56a1 1 0 0 0 1-1v-4a1 1 0 0 0 -1-1h-5v-12h3v-2h-3v-4h3v-2h-3v-6h5a1 1 0 0 0 1-1v-3.938l1.992-15.938a1 1 0 0 0 -.242-.786zm-11.75 15.662v-14h4.867l-1.75 14zm-5.117 0-1.75-14h4.867v14zm4.117-19.2 2.132 3.2h-4.264zm-10.867 5.2h2.984l1.75 14h-2.984zm-.133 47v3h-34v-22h40v18h-5a1 1 0 0 0 -1 1zm20 3h-18v-2h18zm-6-4h-6v-26h6zm-12-28v-2h18v2zm18.117-4h-2.984l1.75-14h2.984z"/><path d="m41 40h-34a1 1 0 0 0 -1 1v8a1 1 0 0 0 1 1h34a1 1 0 0 0 1-1v-8a1 1 0 0 0 -1-1zm-16 2h6v6h-6zm-2 6h-6v-6h6zm-15-6h7v6h-7zm32 6h-7v-6h7z"/><path d="m7 16h7.1a5.009 5.009 0 0 0 4.9 4h10a5 5 0 0 0 .854-9.927 3.006 3.006 0 0 0 -2.854-2.073h-.021a4.941 4.941 0 0 0 -6.979-.98 4.991 4.991 0 0 0 -2.148-.946 3.035 3.035 0 0 0 -2.874-2.074 4.984 4.984 0 0 0 -8.894 2.084 5 5 0 0 0 .916 9.916zm16-8a3 3 0 0 1 2.611 1.56 1 1 0 0 0 1.132.482 1.047 1.047 0 0 1 .257-.042 1 1 0 0 1 1 1 1 1 0 0 0 1 1 3 3 0 0 1 0 6h-10a3 3 0 0 1 0-6 1 1 0 0 0 1-1 3 3 0 0 1 3-3zm-16 0a1 1 0 0 0 1-1 3 3 0 0 1 3-3 2.972 2.972 0 0 1 2.616 1.566 1 1 0 0 0 1.171.469.734.734 0 0 1 .213-.035 1 1 0 0 1 1 1 1 1 0 0 0 1 1 2.982 2.982 0 0 1 1.664.521 4.965 4.965 0 0 0 -.58 1.563 5.008 5.008 0 0 0 -3.975 3.916h-7.109a3 3 0 0 1 0-6z"/></g></svg>