<?xml version="1.0" encoding="iso-8859-1"?>
<!-- Generator: Adobe Illustrator 19.0.0, SVG Export Plug-In . SVG Version: 6.00 Build 0)  -->
<svg version="1.1" id="Capa_1" xmlns="http://www.w3.org/2000/svg" xmlns:xlink="http://www.w3.org/1999/xlink" x="0px" y="0px"
	 viewBox="0 0 480 480" style="enable-background:new 0 0 480 480;" xml:space="preserve">
<g>
	<g>
		<path d="M438.672,330.808c-5.928-4.976-13.672-7.056-21.312-5.752L258.72,352.64l-45.064-45.064
			c-1.496-1.504-3.536-2.344-5.656-2.344h-88H88H8c-4.416,0-8,3.584-8,8v128c0,4.416,3.584,8,8,8h80h32c4.416,0,8-3.584,8-8v-8
			h22.112L235.64,476c3.704,1.848,7.704,2.768,11.696,2.768c4.552,0,9.096-1.192,13.168-3.568l174.512-101.8
			c8-4.672,12.976-13.328,12.976-22.584C447.992,343.08,444.6,335.784,438.672,330.808z M80,433.232H16v-112h64V433.232z
			 M112,433.232H96v-112h16V433.232z M426.968,359.576l-174.52,101.8c-2.968,1.72-6.584,1.84-9.656,0.312l-87.216-43.608
			c-1.104-0.56-2.336-0.848-3.576-0.848h-24v-96h76.688l63.024,63.024c2.768,2.768,4.288,6.44,4.288,10.344
			c0,8.072-6.56,14.632-14.632,14.632c-3.904,0-7.576-1.52-10.344-4.288l-41.368-41.368l-11.312,11.312l41.368,41.368
			c5.792,5.792,13.48,8.976,21.656,8.976c16.896,0,30.632-13.736,30.632-30.632c0-8.176-3.184-15.872-8.976-21.656l-6.472-6.472
			l147.56-25.664c2.952-0.52,5.976,0.296,8.272,2.232c2.296,1.936,3.616,4.768,3.616,7.768
			C432,354.4,430.072,357.76,426.968,359.576z"/>
	</g>
</g>
<g>
	<g>
		<path d="M88,73.232H72v-72H56v72H40c-4.416,0-8,3.584-8,8v144c0,4.416,3.584,8,8,8h16v32h16v-32h16c4.416,0,8-3.584,8-8v-144
			C96,76.816,92.416,73.232,88,73.232z M80,217.232H48v-128h32V217.232z"/>
	</g>
</g>
<g>
	<g>
		<path d="M472,1.232h-48c-4.416,0-8,3.584-8,8v128c0,4.416,3.584,8,8,8h16v24h16v-24h16c4.416,0,8-3.584,8-8v-128
			C480,4.816,476.416,1.232,472,1.232z M464,129.232h-32v-112h32V129.232z"/>
	</g>
</g>
<g>
	<g>
		<path d="M184,81.232h-16v-24h-16v24h-16c-4.416,0-8,3.584-8,8v104c0,4.416,3.584,8,8,8h48c4.416,0,8-3.584,8-8v-104
			C192,84.816,188.416,81.232,184,81.232z M176,185.232h-32v-88h8h16h8V185.232z"/>
	</g>
</g>
<g>
	<g>
		<path d="M376,81.232h-16v-40h-16v40h-16c-4.416,0-8,3.584-8,8v168c0,4.416,3.584,8,8,8h16v48h16v-48h16c4.416,0,8-3.584,8-8v-168
			C384,84.816,380.416,81.232,376,81.232z M368,249.232h-32v-152h32V249.232z"/>
	</g>
</g>
<g>
	<g>
		<path d="M280,121.232h-16v-16h-16v16h-16c-4.416,0-8,3.584-8,8v112c0,4.416,3.584,8,8,8h16v24h16v-24h16c4.416,0,8-3.584,8-8v-112
			C288,124.816,284.416,121.232,280,121.232z M272,233.232h-32v-96h32V233.232z"/>
	</g>
</g>
<g>
</g>
<g>
</g>
<g>
</g>
<g>
</g>
<g>
</g>
<g>
</g>
<g>
</g>
<g>
</g>
<g>
</g>
<g>
</g>
<g>
</g>
<g>
</g>
<g>
</g>
<g>
</g>
<g>
</g>
</svg>
