<?xml version="1.0" encoding="iso-8859-1"?>
<!-- Generator: Adobe Illustrator 19.0.0, SVG Export Plug-In . SVG Version: 6.00 Build 0)  -->
<svg version="1.1" id="Capa_1" xmlns="http://www.w3.org/2000/svg" xmlns:xlink="http://www.w3.org/1999/xlink" x="0px" y="0px"
	 viewBox="0 0 512 512" style="enable-background:new 0 0 512 512;" xml:space="preserve">
<g>
	<g>
		<g>
			<path d="M511.872,7.899c-0.055-0.579-0.17-1.151-0.344-1.706c-0.131-0.511-0.311-1.008-0.537-1.485
				c-0.251-0.462-0.546-0.898-0.88-1.304c-0.348-0.471-0.744-0.904-1.183-1.291c-0.167-0.142-0.253-0.341-0.432-0.472
				c-0.274-0.146-0.556-0.276-0.845-0.389c-0.992-0.606-2.113-0.971-3.271-1.068c-0.3-0.079-0.605-0.141-0.913-0.184H238.933
				c-0.223,0-0.41,0.11-0.628,0.127c-0.585,0.055-1.162,0.171-1.721,0.348c-0.507,0.131-1,0.31-1.473,0.534
				c-0.463,0.251-0.9,0.546-1.307,0.881c-0.471,0.348-0.904,0.744-1.291,1.183c-0.142,0.167-0.341,0.253-0.472,0.432L1.642,319.238
				c-0.146,0.274-0.276,0.556-0.389,0.845c-0.604,0.99-0.97,2.107-1.067,3.263c-0.08,0.303-0.142,0.611-0.186,0.921v179.2
				C0,508.18,3.82,512,8.533,512h264.533c2.49-0.146,4.82-1.28,6.472-3.149c0.122-0.146,0.306-0.199,0.42-0.355l230.4-315.733
				c0.146-0.274,0.276-0.556,0.389-0.845c0.604-0.99,0.97-2.107,1.067-3.263c0.08-0.303,0.142-0.611,0.186-0.921V8.533
				C512,8.308,511.889,8.12,511.872,7.899z M264.533,494.933H17.067V332.8h247.467V494.933z M268.732,315.733H25.322L243.268,17.067
				h243.41L268.732,315.733z M494.933,184.954L281.6,477.299V327.046L494.933,34.701V184.954z"/>
			<path d="M34.606,471.674c0.478,1.568,1.373,2.975,2.59,4.073c0.168,0.144,0.255,0.345,0.437,0.478
				c0.356,0.217,0.727,0.406,1.111,0.566c0.297,0.176,0.606,0.333,0.923,0.47c0.952,0.381,1.965,0.586,2.99,0.606l0.004-0.001
				l0.005,0.001h196.267c4.713,0,8.533-3.82,8.533-8.533V358.4c0-4.713-3.82-8.533-8.533-8.533H42.667
				c-4.713,0-8.533,3.82-8.533,8.533v110.933c0,0.224,0.11,0.412,0.128,0.632C34.316,470.546,34.432,471.118,34.606,471.674z
				 M230.4,366.933V460.8H59.462l68.524-93.867H230.4z M51.2,366.933h55.654L51.2,443.17V366.933z"/>
		</g>
	</g>
</g>
<g>
</g>
<g>
</g>
<g>
</g>
<g>
</g>
<g>
</g>
<g>
</g>
<g>
</g>
<g>
</g>
<g>
</g>
<g>
</g>
<g>
</g>
<g>
</g>
<g>
</g>
<g>
</g>
<g>
</g>
</svg>
