<?xml version="1.0" encoding="iso-8859-1"?>
<!-- Generator: Adobe Illustrator 18.0.0, SVG Export Plug-In . SVG Version: 6.00 Build 0)  -->
<!DOCTYPE svg PUBLIC "-//W3C//DTD SVG 1.1//EN" "http://www.w3.org/Graphics/SVG/1.1/DTD/svg11.dtd">
<svg version="1.1" id="Capa_1" xmlns="http://www.w3.org/2000/svg" xmlns:xlink="http://www.w3.org/1999/xlink" x="0px" y="0px"
	 viewBox="0 0 388.819 388.819" style="enable-background:new 0 0 388.819 388.819;" xml:space="preserve">
<path d="M368.753,175.923V80.088c0-13.132-10.684-23.816-23.816-23.816H43.882c-13.132,0-23.816,10.684-23.816,23.816v95.836
	C8.721,177.65,0,187.469,0,199.289v59.318c0,4.142,3.358,7.5,7.5,7.5h8.035v37c0,4.142,3.358,7.5,7.5,7.5h13.539v14.441
	c0,4.142,3.358,7.5,7.5,7.5s7.5-3.358,7.5-7.5v-14.441h285.672v14.441c0,4.142,3.357,7.5,7.5,7.5s7.5-3.358,7.5-7.5v-14.441h13.539
	c4.143,0,7.5-3.358,7.5-7.5v-37h8.034c4.143,0,7.5-3.358,7.5-7.5v-59.318C388.819,187.469,380.098,177.649,368.753,175.923z
	 M35.065,80.088c0-4.861,3.955-8.816,8.816-8.816h301.055c4.861,0,8.816,3.955,8.816,8.816v95.566h-26.335
	c5.24-5.641,10.57-11.573,16.09-17.92c2.455-2.823,2.454-7.023-0.001-9.845c-21.698-24.938-39.865-43.105-64.796-64.796
	c-2.822-2.456-7.023-2.456-9.846,0c-24.932,21.692-43.098,39.859-64.795,64.796c-2.455,2.822-2.456,7.022-0.001,9.845
	c5.521,6.348,10.85,12.28,16.09,17.92h-51.503c5.24-5.641,10.571-11.573,16.091-17.92c2.455-2.823,2.455-7.023-0.001-9.845
	c-21.695-24.934-39.862-43.101-64.796-64.796c-2.822-2.456-7.023-2.456-9.846,0c-24.934,21.695-43.101,39.862-64.796,64.796
	c-2.456,2.822-2.456,7.022-0.001,9.845c5.521,6.347,10.851,12.279,16.091,17.92H35.065V80.088z M240.853,175.654
	c-6.901-7.084-13.872-14.611-21.15-22.842c17.929-20.287,33.803-36.161,54.085-54.086c20.282,17.924,36.156,33.799,54.086,54.086
	c-7.277,8.231-14.249,15.758-21.15,22.842H240.853z M82.093,175.654c-6.901-7.085-13.873-14.611-21.151-22.842
	c17.926-20.283,33.803-36.16,54.086-54.086c20.283,17.926,36.16,33.803,54.086,54.086c-7.277,8.231-14.249,15.757-21.151,22.842
	H82.093z M358.285,295.607H30.535v-29.5h327.75V295.607z M373.819,251.107H15v-51.818c0-4.761,3.874-8.635,8.636-8.635h341.547
	c4.762,0,8.636,3.874,8.636,8.635V251.107z"/>
<g>
</g>
<g>
</g>
<g>
</g>
<g>
</g>
<g>
</g>
<g>
</g>
<g>
</g>
<g>
</g>
<g>
</g>
<g>
</g>
<g>
</g>
<g>
</g>
<g>
</g>
<g>
</g>
<g>
</g>
</svg>
