<?xml version="1.0" encoding="iso-8859-1"?>
<!-- Generator: Adobe Illustrator 18.0.0, SVG Export Plug-In . SVG Version: 6.00 Build 0)  -->
<!DOCTYPE svg PUBLIC "-//W3C//DTD SVG 1.1//EN" "http://www.w3.org/Graphics/SVG/1.1/DTD/svg11.dtd">
<svg version="1.1" id="Capa_1" xmlns="http://www.w3.org/2000/svg" xmlns:xlink="http://www.w3.org/1999/xlink" x="0px" y="0px"
	 viewBox="0 0 461.26 461.26" style="enable-background:new 0 0 461.26 461.26;" xml:space="preserve">
<path style="fill:#191918;" d="M461.26,246.954v-9h-40.094c-10.627-19.896-24.431-38.197-41.122-54.211
	c-40.377-38.736-93.439-60.069-149.414-60.069c-82.258,0-154.161,46.048-190.56,114.28H0v9h35.538
	c-1.538,3.24-3.002,6.523-4.38,9.851H0v9h27.67c-6.74,18.599-10.997,38.415-12.38,59.063c-3.1-1.451-6.058-3.324-8.787-5.625
	l-5.803,6.881c17.178,14.486,41.709,15.243,59.653,2.267c16.957,12.262,39.795,12.262,56.752,0
	c16.958,12.263,39.795,12.262,56.751,0c16.958,12.263,39.796,12.262,56.752,0c16.957,12.262,39.795,12.262,56.752,0
	c16.957,12.262,39.795,12.262,56.752,0c8.479,6.131,18.428,9.196,28.376,9.196s19.897-3.065,28.376-9.195
	c17.943,12.974,42.474,12.217,59.653-2.268l-5.803-6.881c-2.713,2.288-5.651,4.151-8.731,5.598
	c-1.368-20.381-5.581-40.216-12.406-59.036h27.681v-9H430.08c-1.376-3.32-2.833-6.604-4.375-9.851H461.26z M400.865,316.796
	l-2.901,2.446c-14.76,12.449-36.189,12.449-50.949,0l-2.901-2.446l-2.901,2.446c-14.76,12.449-36.189,12.449-50.949,0l-2.901-2.446
	l-2.901,2.446c-14.76,12.449-36.189,12.449-50.949,0l-2.901-2.446l-2.901,2.446c-14.759,12.449-36.187,12.449-50.949,0l-2.901-2.446
	l-2.901,2.446c-14.759,12.449-36.188,12.449-50.948,0l-2.901-2.446l-2.901,2.446c-14.76,12.449-36.189,12.449-50.949,0l-2.901-2.446
	l-2.901,2.446c-1.905,1.606-3.922,3.001-6.02,4.193c1.779-20.114,6.877-39.546,15.001-57.631h328.382
	c8.127,18.091,13.23,37.53,15.008,57.651c-2.112-1.196-4.142-2.598-6.058-4.214L400.865,316.796z M355.699,210.203
	c8.819,8.531,16.659,17.831,23.464,27.751h-23.464V210.203z M346.699,237.954h-21.14v-51.302c7.367,4.589,14.431,9.735,21.14,15.412
	V237.954z M316.56,237.954h-21.14v-66.335c7.245,2.794,14.306,6.055,21.14,9.779V237.954z M286.42,237.954h-21.147v-75.018
	c7.175,1.397,14.234,3.231,21.147,5.48V237.954z M256.272,237.954h-21.142v-78.293c7.12,0.175,14.177,0.766,21.142,1.759V237.954z
	 M226.131,237.954h-21.142v-76.535c6.964-0.992,14.021-1.584,21.142-1.758V237.954z M195.989,237.954h-21.14v-69.547
	c6.91-2.247,13.967-4.079,21.14-5.475V237.954z M165.85,237.954h-21.14v-56.565c6.834-3.723,13.895-6.986,21.14-9.78V237.954z
	 M135.71,237.954h-21.15v-35.895c6.712-5.681,13.78-10.829,21.15-15.42V237.954z M105.56,237.954H82.094
	c6.805-9.919,14.643-19.224,23.466-27.758V237.954z M76.293,246.954h308.664c1.941,3.228,3.775,6.514,5.505,9.851H70.797
	C72.526,253.469,74.352,250.181,76.293,246.954z M419.14,327.262c-3.023-47.211-23.422-91.136-57.718-124.054
	c-35.341-33.923-81.791-52.604-130.792-52.604c-49.172,0-95.738,18.793-131.121,52.918c-34.113,32.901-54.378,76.679-57.393,123.73
	c-5.884,1.566-12.047,1.737-17.995,0.527c6.12-109.463,96.686-195.106,206.509-195.106c53.641,0,104.491,20.443,143.183,57.563
	c37.976,36.433,60.394,85.194,63.322,137.536C431.188,328.988,425.025,328.823,419.14,327.262z"/>
<g>
</g>
<g>
</g>
<g>
</g>
<g>
</g>
<g>
</g>
<g>
</g>
<g>
</g>
<g>
</g>
<g>
</g>
<g>
</g>
<g>
</g>
<g>
</g>
<g>
</g>
<g>
</g>
<g>
</g>
</svg>
