<svg height="480pt" viewBox="0 0 480.07285 480" width="480pt" xmlns="http://www.w3.org/2000/svg"><path d="m168 160.035156h16v16h-16zm0 0"/><path d="m200 160.035156h16v16h-16zm0 0"/><path d="m168 192.035156h16v16h-16zm0 0"/><path d="m200 192.035156h16v16h-16zm0 0"/><path d="m168 224.035156h16v16h-16zm0 0"/><path d="m200 224.035156h16v16h-16zm0 0"/><path d="m168 256.035156h16v16h-16zm0 0"/><path d="m200 256.035156h16v16h-16zm0 0"/><path d="m168 288.035156h16v16h-16zm0 0"/><path d="m200 288.035156h16v16h-16zm0 0"/><path d="m168 320.035156h16v16h-16zm0 0"/><path d="m200 320.035156h16v16h-16zm0 0"/><path d="m168 352.035156h16v16h-16zm0 0"/><path d="m200 352.035156h16v16h-16zm0 0"/><path d="m168 384.035156h16v16h-16zm0 0"/><path d="m200 384.035156h16v16h-16zm0 0"/><path d="m264 208.035156h16v16h-16zm0 0"/><path d="m296 208.035156h16v16h-16zm0 0"/><path d="m264 176.035156h16v16h-16zm0 0"/><path d="m296 176.035156h16v16h-16zm0 0"/><path d="m264 240.035156h16v16h-16zm0 0"/><path d="m296 240.035156h16v16h-16zm0 0"/><path d="m264 272.035156h16v16h-16zm0 0"/><path d="m296 272.035156h16v16h-16zm0 0"/><path d="m264 304.035156h16v16h-16zm0 0"/><path d="m296 304.035156h16v16h-16zm0 0"/><path d="m264 336.035156h16v16h-16zm0 0"/><path d="m296 336.035156h16v16h-16zm0 0"/><path d="m264 368.035156h16v16h-16zm0 0"/><path d="m296 368.035156h16v16h-16zm0 0"/><path d="m392 352.035156h16v16h-16zm0 0"/><path d="m360 352.035156h16v16h-16zm0 0"/><path d="m392 384.035156h16v16h-16zm0 0"/><path d="m360 384.035156h16v16h-16zm0 0"/><path d="m360 256.035156h16v16h-16zm0 0"/><path d="m392 256.035156h16v16h-16zm0 0"/><path d="m72 352.035156h16v16h-16zm0 0"/><path d="m104 352.035156h16v16h-16zm0 0"/><path d="m72 384.035156h16v16h-16zm0 0"/><path d="m104 384.035156h16v16h-16zm0 0"/><path d="m104 256.035156h16v16h-16zm0 0"/><path d="m72 256.035156h16v16h-16zm0 0"/><path d="m448 48.035156h-2.480469c-7.253906-16.132812-22.214843-24-45.519531-24-21.863281 0-39.039062 9.226563-45.703125 24h-2.296875c-7.707031-.0625-15.175781 2.652344-21.046875 7.640625l-34.953125-34.953125v-20.6874998h-16v20.6874998l-61.65625 61.65625c-2.285156 2.289063-2.972656 5.730469-1.734375 8.71875 1.238281 2.988282 4.15625 4.9375 7.390625 4.9375h8v32h-16c.605469-8.65625-2.570312-17.152344-8.710938-23.289062-6.136718-6.136719-14.632812-9.3125-23.289062-8.710938h-2.480469c-7.273437-16.132812-22.222656-24-45.519531-24-21.847656 0-39.023438 9.226563-45.695312 24h-2.304688c-8.542969-.191406-16.796875 3.117188-22.839844 9.160156-6.042968 6.046876-9.351562 14.296876-9.160156 22.839844v8c0 4.417969 3.582031 8 8 8h72v48h-32v-24h-16v24h-64v48h16v48h-24v48h24v144h400v-144h24v-48h-24v-48h16v-48h-64v-24h-16v24h-32v-96h128c4.417969 0 8-3.582031 8-8v-8c.605469-8.65625-2.570312-17.152344-8.710938-23.289062-6.136718-6.136719-14.632812-9.3125-23.289062-8.710938zm-344 416h-16v-32h16zm32 0h-16v-40c0-4.417968-3.582031-8-8-8h-32c-4.417969 0-8 3.582032-8 8v40h-16v-128h80zm0-144h-104v-16h104zm0-32h-80v-48h80zm0-64h-96v-16h96zm-64-96c-.199219-4.300781 1.421875-8.488281 4.464844-11.53125 3.046875-3.046875 7.234375-4.667968 11.535156-4.46875h8c3.71875 0 6.949219-2.5625 7.792969-6.183594 3.0625-13.152343 19.261719-17.816406 32.207031-17.816406 23.414062 0 29.390625 8.800782 32.359375 18.402344 1.050781 3.335938 4.144531 5.601562 7.640625 5.597656h8c4.386719-.546875 8.785156.960938 11.910156 4.089844 3.128906 3.128906 4.636719 7.523438 4.089844 11.910156zm128 336h-16v-32h16zm32 0h-16v-40c0-4.417968-3.582031-8-8-8h-32c-4.417969 0-8 3.582032-8 8v40h-16v-320h80zm64 0h-16v-32h16zm32 0h-16v-40c0-4.417968-3.582031-8-8-8h-32c-4.417969 0-8 3.582032-8 8v40h-16v-304h80zm0-320h-80v-16h80zm0-32h-80v-16h80zm0-32h-84.6875l44.6875-44.6875 44.6875 44.6875zm64 384h-16v-32h16zm32 0h-16v-40c0-4.417968-3.582031-8-8-8h-32c-4.417969 0-8 3.582032-8 8v40h-16v-128h80zm24-160v16h-104v-16zm-104-16v-48h80v48zm96-80v16h-96v-16zm-84.6875-128-12.914062-12.933594c2.792968-2.015624 6.15625-3.089843 9.601562-3.066406h8c3.722656 0 6.949219-2.566406 7.792969-6.191406 3.046875-13.144531 19.253906-17.808594 32.207031-17.808594 23.488281 0 29.535156 9.289063 32.359375 18.402344 1.050781 3.335938 4.144531 5.601562 7.640625 5.597656h8c4.386719-.546875 8.785156.960938 11.910156 4.089844 3.128906 3.128906 4.636719 7.523438 4.089844 11.910156zm0 0"/><path d="m48 96.035156c26.507812 0 48-21.488281 48-48 0-26.507812-21.492188-47.9999998-48-47.9999998s-48 21.4921878-48 47.9999998c.0273438 26.5 21.5 47.976563 48 48zm0-80c17.671875 0 32 14.328125 32 32 0 17.675782-14.328125 32-32 32s-32-14.324218-32-32c0-17.671875 14.328125-32 32-32zm0 0"/></svg>