<?xml version="1.0" encoding="iso-8859-1"?>
<!-- Generator: Adobe Illustrator 19.0.0, SVG Export Plug-In . SVG Version: 6.00 Build 0)  -->
<svg version="1.1" id="Capa_1" xmlns="http://www.w3.org/2000/svg" xmlns:xlink="http://www.w3.org/1999/xlink" x="0px" y="0px"
	 viewBox="0 0 480 480" style="enable-background:new 0 0 480 480;" xml:space="preserve">
<g>
	<g>
		<path d="M348.583,81.448l-76.584-53.616V0h-16v24h-32V0h-16v27.832l-76.584,53.6c-3.627,2.523-4.523,7.508-2.001,11.135
			c1.499,2.155,3.959,3.438,6.585,3.433h208c4.418-0.003,7.997-3.588,7.994-8.006C351.991,85.387,350.718,82.944,348.583,81.448z
			 M161.375,80l57.144-40h42.96l57.144,40H161.375z"/>
	</g>
</g>
<g>
	<g>
		<path d="M103.999,312h-16c-13.255,0-24,10.745-24,24v8c0,13.255,10.745,24,24,24h16c13.255,0,24-10.745,24-24v-8
			C127.999,322.745,117.254,312,103.999,312z M111.999,344c0,4.418-3.582,8-8,8h-16c-4.418,0-8-3.582-8-8v-8c0-4.418,3.582-8,8-8h16
			c4.418,0,8,3.582,8,8V344z"/>
	</g>
</g>
<g>
	<g>
		<path d="M391.999,312h-16c-13.255,0-24,10.745-24,24v8c0,13.255,10.745,24,24,24h16c13.255,0,24-10.745,24-24v-8
			C415.999,322.745,405.254,312,391.999,312z M399.999,344c0,4.418-3.582,8-8,8h-16c-4.418,0-8-3.582-8-8v-8c0-4.418,3.582-8,8-8h16
			c4.418,0,8,3.582,8,8V344z"/>
	</g>
</g>
<g>
	<g>
		<path d="M311.999,312h-144c-13.255,0-24,10.745-24,24v8c0,13.255,10.745,24,24,24h144c13.255,0,24-10.745,24-24v-8
			C335.999,322.745,325.254,312,311.999,312z M319.999,344c0,4.418-3.582,8-8,8h-144c-4.418,0-8-3.582-8-8v-8c0-4.418,3.582-8,8-8
			h144c4.418,0,8,3.582,8,8V344z"/>
	</g>
</g>
<g>
	<g>
		<path d="M422.847,288.52l-17.736-7.096l-53.056-72.952c-7.542-10.334-19.559-16.452-32.352-16.472H160.295
			c-12.793,0.02-24.81,6.138-32.352,16.472l-53.056,72.952l-17.736,7.096c-15.225,6.031-25.204,20.768-25.152,37.144V464
			c0,8.837,7.163,16,16,16h48c8.837,0,16-7.163,16-16v-32h256v32c0,8.837,7.163,16,16,16h48c8.837,0,16-7.163,16-16V325.664
			C448.051,309.288,438.072,294.551,422.847,288.52z M140.879,217.888c4.525-6.203,11.738-9.876,19.416-9.888h159.408
			c7.678,0.012,14.891,3.685,19.416,9.888L384.287,280H95.711L140.879,217.888z M95.999,464h-48v-33.368
			c0.672,0.24,1.4,0.368,2.104,0.544c0.464,0.12,0.912,0.28,1.392,0.368c1.483,0.294,2.992,0.447,4.504,0.456h40V464z M431.999,464
			h-48v-32h40c1.512-0.009,3.021-0.162,4.504-0.456c0.48-0.088,0.928-0.248,1.4-0.368c0.696-0.176,1.424-0.304,2.096-0.544V464z
			 M431.999,408c0,4.418-3.582,8-8,8h-320h-48c-4.418,0-8-3.582-8-8v-8h384V408z M431.999,384h-384v-58.336
			c-0.034-9.824,5.953-18.665,15.088-22.28L81.535,296h316.928l18.448,7.384c9.135,3.615,15.122,12.456,15.088,22.28V384z"/>
	</g>
</g>
<g>
	<g>
		<rect x="231.999" y="112" width="16" height="24"/>
	</g>
</g>
<g>
	<g>
		<rect x="231.999" y="152" width="16" height="24"/>
	</g>
</g>
<g>
	<g>
		<rect x="140.399" y="113.277" transform="matrix(0.6337 -0.7736 0.7736 0.6337 -37.9929 162.3215)" width="24" height="16"/>
	</g>
</g>
<g>
	<g>
		<rect x="115.061" y="144.239" transform="matrix(0.6338 -0.7735 0.7735 0.6338 -71.2264 154.0246)" width="24" height="16"/>
	</g>
</g>
<g>
	<g>
		<rect x="89.71" y="175.178" transform="matrix(0.6338 -0.7735 0.7735 0.6338 -104.4402 145.7453)" width="24" height="16"/>
	</g>
</g>
<g>
	<g>
		<rect x="64.347" y="206.153" transform="matrix(0.6338 -0.7735 0.7735 0.6338 -137.6858 137.47)" width="24" height="16"/>
	</g>
</g>
<g>
	<g>
		<rect x="184.634" y="115.545" transform="matrix(0.2803 -0.9599 0.9599 0.2803 22.9315 277.6729)" width="24" height="16"/>
	</g>
</g>
<g>
	<g>
		<rect x="173.421" y="153.899" transform="matrix(0.2807 -0.9598 0.9598 0.2807 -22.0193 294.4154)" width="24" height="16"/>
	</g>
</g>
<g>
	<g>
		<rect x="93.017" y="110.498" transform="matrix(0.7351 -0.678 0.678 0.7351 -52.5152 102.5853)" width="24" height="15.992"/>
	</g>
</g>
<g>
	<g>
		<rect x="63.604" y="137.642" transform="matrix(0.7351 -0.678 0.678 0.7351 -78.7088 89.8351)" width="24" height="15.992"/>
	</g>
</g>
<g>
	<g>
		<rect x="34.218" y="164.743" transform="matrix(0.7351 -0.678 0.678 0.7351 -104.8662 77.0916)" width="24" height="15.992"/>
	</g>
</g>
<g>
	<g>
		<rect x="4.822" y="191.862" transform="matrix(0.7351 -0.678 0.678 0.7351 -131.0382 64.3462)" width="24" height="15.992"/>
	</g>
</g>
<g>
	<g>
		<rect x="319.604" y="110.965" transform="matrix(0.7738 -0.6335 0.6335 0.7738 -3.7822 235.3394)" width="15.992" height="24"/>
	</g>
</g>
<g>
	<g>
		<rect x="344.916" y="141.866" transform="matrix(0.7736 -0.6337 0.6337 0.7736 -17.6022 258.4628)" width="16" height="24"/>
	</g>
</g>
<g>
	<g>
		<rect x="370.31" y="172.805" transform="matrix(0.7735 -0.6337 0.6337 0.7735 -31.4475 281.6047)" width="16" height="24"/>
	</g>
</g>
<g>
	<g>
		<rect x="395.603" y="203.784" transform="matrix(0.7735 -0.6337 0.6337 0.7735 -45.3525 304.6502)" width="16" height="24"/>
	</g>
</g>
<g>
	<g>
		<rect x="275.353" y="113.291" transform="matrix(0.96 -0.28 0.28 0.96 -23.7474 84.3501)" width="16" height="24"/>
	</g>
</g>
<g>
	<g>
		<rect x="286.571" y="151.573" transform="matrix(0.9598 -0.2806 0.2806 0.9598 -34.0644 89.2291)" width="16" height="24"/>
	</g>
</g>
<g>
	<g>
		<rect x="366.98" y="108.133" transform="matrix(0.678 -0.735 0.735 0.678 32.4261 314.2939)" width="15.992" height="24"/>
	</g>
</g>
<g>
	<g>
		<rect x="396.395" y="135.268" transform="matrix(0.6781 -0.7349 0.7349 0.6781 21.9275 344.605)" width="15.992" height="24"/>
	</g>
</g>
<g>
	<g>
		<rect x="425.765" y="162.401" transform="matrix(0.6781 -0.7349 0.7349 0.6781 11.44 374.9243)" width="15.992" height="24"/>
	</g>
</g>
<g>
	<g>
		<rect x="455.182" y="189.507" transform="matrix(0.678 -0.735 0.735 0.678 1.0106 405.3212)" width="15.992" height="24"/>
	</g>
</g>
<g>
</g>
<g>
</g>
<g>
</g>
<g>
</g>
<g>
</g>
<g>
</g>
<g>
</g>
<g>
</g>
<g>
</g>
<g>
</g>
<g>
</g>
<g>
</g>
<g>
</g>
<g>
</g>
<g>
</g>
</svg>
