<?xml version="1.0" encoding="iso-8859-1"?>
<!-- Generator: Adobe Illustrator 19.0.0, SVG Export Plug-In . SVG Version: 6.00 Build 0)  -->
<svg version="1.1" id="Capa_1" xmlns="http://www.w3.org/2000/svg" xmlns:xlink="http://www.w3.org/1999/xlink" x="0px" y="0px"
	 viewBox="0 0 480 480" style="enable-background:new 0 0 480 480;" xml:space="preserve">
<g>
	<g>
		<path d="M368,128c-9.136,0-17.88,1.616-26.056,4.448L328,102.24V72c0-4.424-3.576-8-8-8h-8V48h32c4.424,0,8-3.576,8-8V8
			c0-4.424-3.576-8-8-8h-72v16h64v16h-32c-4.424,0-8,3.576-8,8v24h-24c-2.584,0-5.008,1.248-6.504,3.352l-40,56
			c-0.24,0.336-0.464,0.696-0.648,1.072L219.056,136H204l-20.704-27.608L170.608,64H192V48h-64v16h25.96l13.048,45.672
			l-28.424,28.424C124.792,126.8,107.176,120,88,120c-44.112,0-80,35.888-80,80s35.888,80,80,80c41.408,0,75.568-31.632,79.592-72
			h19.216c4.512,9.424,14.064,16,25.192,16c11.128,0,20.68-6.576,25.192-16H256c4.424,0,8-3.576,8-8v-44l52.88-39.664l10.544,22.84
			C303.872,153.12,288,178.712,288,208c0,44.112,35.888,80,80,80s80-35.888,80-80S412.112,128,368,128z M88,264
			c-35.288,0-64-28.712-64-64c0-35.288,28.712-64,64-64c14.768,0,28.336,5.072,39.184,13.504l-44.84,44.84
			c-2.288,2.288-2.976,5.728-1.736,8.72C81.84,206.056,84.768,208,88,208h63.448C147.488,239.52,120.576,264,88,264z M107.32,192
			l31.176-31.184c6.88,8.848,11.488,19.52,12.952,31.184H107.32z M212,208c-6.616,0-12-5.384-12-12c0-6.616,5.384-12,12-12
			c6.616,0,12,5.384,12,12C224,202.616,218.616,208,212,208z M312,100l-60.8,45.6c-2.016,1.512-3.2,3.888-3.2,6.4v40h-8.28
			c-0.048-0.312-0.16-0.592-0.216-0.896c-0.128-0.728-0.328-1.424-0.512-2.136c-0.264-1.008-0.552-1.992-0.92-2.952
			c-0.264-0.696-0.576-1.36-0.896-2.032c-0.432-0.904-0.904-1.776-1.432-2.624c-0.392-0.632-0.792-1.24-1.232-1.832
			c-0.592-0.8-1.224-1.552-1.888-2.288c-0.496-0.544-0.984-1.08-1.52-1.576c-0.736-0.688-1.52-1.312-2.32-1.92
			c-0.576-0.432-1.128-0.872-1.728-1.264c-0.88-0.568-1.824-1.04-2.768-1.504c-0.616-0.304-1.2-0.64-1.832-0.896
			c-1.08-0.44-2.224-0.744-3.368-1.048c-0.568-0.152-1.104-0.36-1.688-0.48C215.656,168.2,213.848,168,212,168
			s-3.656,0.2-5.408,0.544c-0.584,0.112-1.12,0.328-1.688,0.48c-1.144,0.304-2.28,0.608-3.368,1.048
			c-0.64,0.256-1.224,0.592-1.832,0.896c-0.944,0.464-1.888,0.936-2.768,1.504c-0.608,0.392-1.16,0.832-1.728,1.264
			c-0.808,0.608-1.592,1.224-2.32,1.92c-0.536,0.504-1.024,1.032-1.52,1.576c-0.672,0.736-1.304,1.488-1.888,2.288
			c-0.44,0.6-0.84,1.208-1.232,1.832c-0.528,0.848-0.992,1.72-1.432,2.624c-0.32,0.664-0.624,1.336-0.896,2.032
			c-0.368,0.96-0.656,1.944-0.92,2.952c-0.184,0.712-0.376,1.408-0.512,2.136c-0.056,0.304-0.168,0.584-0.216,0.896h-16.688
			c-1.6-16.064-7.984-30.736-17.688-42.592l25.224-25.224L193.6,148.8c1.504,2.016,3.88,3.2,6.4,3.2h24
			c3.032,0,5.8-1.712,7.16-4.424l7.72-15.44L276.12,80H312V100z M368,272c-35.288,0-64-28.712-64-64
			c0-22.856,12.088-42.896,30.16-54.224l26.576,57.576l14.528-6.704L348.656,147c6.112-1.936,12.6-3,19.344-3
			c35.288,0,64,28.712,64,64C432,243.288,403.288,272,368,272z"/>
	</g>
</g>
<g>
	<g>
		<path d="M392,368h-34.584l-9.872-24.68c-13.44-33.608-45.512-55.32-81.712-55.32H206.16c-36.192,0-68.264,21.712-81.712,55.32
			L114.584,368H88c-13.232,0-24,10.768-24,24v32c0,13.232,10.768,24,24,24h48c0,17.648,14.352,32,32,32s32-14.352,32-32h96
			c0,17.648,14.352,32,32,32s32-14.352,32-32h32c13.232,0,24-10.768,24-24v-32C416,378.768,405.232,368,392,368z M248,304h17.832
			c29.624,0,55.864,17.768,66.856,45.256L340.184,368H248V304z M139.312,349.256C150.304,321.768,176.544,304,206.168,304H232v64
			H131.816L139.312,349.256z M168,464c-8.824,0-16-7.176-16-16c0-1.832,0.376-3.56,0.944-5.2c0.016-0.048,0.048-0.08,0.064-0.12
			c1.656-4.672,5.352-8.176,9.816-9.744c0.24-0.08,0.488-0.16,0.736-0.232c1.424-0.424,2.904-0.704,4.44-0.704
			s3.016,0.28,4.44,0.704c0.248,0.072,0.496,0.144,0.736,0.232c4.472,1.568,8.16,5.072,9.816,9.744
			c0.016,0.048,0.048,0.08,0.064,0.12c0.568,1.64,0.944,3.368,0.944,5.2C184,456.824,176.824,464,168,464z M328,464
			c-8.824,0-16-7.176-16-16c0-1.832,0.376-3.56,0.944-5.2c0.016-0.048,0.048-0.08,0.064-0.12c1.656-4.672,5.352-8.176,9.816-9.744
			c0.24-0.08,0.488-0.16,0.736-0.232c1.424-0.424,2.904-0.704,4.44-0.704s3.016,0.28,4.44,0.704
			c0.248,0.072,0.496,0.144,0.736,0.232c4.472,1.568,8.16,5.072,9.816,9.744c0.016,0.048,0.048,0.08,0.064,0.12
			c0.568,1.64,0.944,3.368,0.944,5.2C344,456.824,336.824,464,328,464z M400,424c0,4.416-3.584,8-8,8h-36.392
			c-0.096-0.168-0.216-0.304-0.312-0.472c-0.536-0.88-1.096-1.728-1.704-2.552c-0.488-0.664-1.024-1.272-1.56-1.888
			c-0.896-1.032-1.832-1.992-2.856-2.904c-0.768-0.688-1.552-1.352-2.376-1.96c-0.648-0.472-1.304-0.912-1.984-1.336
			c-1.056-0.664-2.16-1.248-3.288-1.784c-0.584-0.272-1.144-0.552-1.744-0.792c-1.472-0.592-3-1.048-4.56-1.416
			c-0.528-0.12-1.048-0.232-1.592-0.328C331.792,416.232,329.92,416,328,416c-1.92,0-3.792,0.232-5.632,0.568
			c-0.536,0.096-1.064,0.2-1.592,0.328c-1.56,0.368-3.088,0.824-4.56,1.416c-0.6,0.24-1.168,0.52-1.744,0.792
			c-1.128,0.536-2.232,1.128-3.288,1.784c-0.68,0.424-1.336,0.864-1.984,1.336c-0.832,0.608-1.608,1.272-2.376,1.96
			c-1.016,0.904-1.96,1.872-2.856,2.904c-0.536,0.616-1.072,1.232-1.56,1.888c-0.616,0.824-1.176,1.664-1.704,2.552
			c-0.096,0.16-0.216,0.304-0.312,0.472H195.608c-0.096-0.168-0.216-0.304-0.312-0.472c-0.536-0.88-1.096-1.728-1.704-2.552
			c-0.488-0.664-1.024-1.272-1.56-1.888c-0.896-1.032-1.832-1.992-2.856-2.904c-0.768-0.688-1.552-1.352-2.376-1.96
			c-0.648-0.472-1.304-0.912-1.984-1.336c-1.056-0.664-2.16-1.248-3.288-1.784c-0.584-0.272-1.144-0.552-1.744-0.792
			c-1.472-0.592-3-1.048-4.56-1.416c-0.528-0.12-1.048-0.232-1.592-0.328C171.792,416.232,169.92,416,168,416
			s-3.792,0.232-5.632,0.568c-0.536,0.096-1.064,0.2-1.592,0.328c-1.56,0.368-3.088,0.824-4.56,1.416
			c-0.6,0.24-1.168,0.52-1.744,0.792c-1.128,0.536-2.232,1.128-3.288,1.784c-0.68,0.424-1.336,0.864-1.984,1.336
			c-0.832,0.608-1.608,1.272-2.376,1.96c-1.016,0.904-1.96,1.872-2.856,2.904c-0.536,0.616-1.072,1.232-1.56,1.888
			c-0.616,0.824-1.176,1.664-1.704,2.552c-0.096,0.16-0.216,0.304-0.312,0.472H88c-4.416,0-8-3.584-8-8v-8h16v-16H80v-8
			c0-4.416,3.584-8,8-8h32h232h40c4.416,0,8,3.584,8,8V424z"/>
	</g>
</g>
<g>
	<g>
		<rect x="432" y="424" width="16" height="16"/>
	</g>
</g>
<g>
	<g>
		<rect x="456" y="400" width="16" height="16"/>
	</g>
</g>
<g>
</g>
<g>
</g>
<g>
</g>
<g>
</g>
<g>
</g>
<g>
</g>
<g>
</g>
<g>
</g>
<g>
</g>
<g>
</g>
<g>
</g>
<g>
</g>
<g>
</g>
<g>
</g>
<g>
</g>
</svg>
