<svg height="682pt" viewBox="-22 -21 682 682.66669" width="682pt" xmlns="http://www.w3.org/2000/svg"><path d="m564.230469 300.664062h-470.207031l43.035156-133.203124c3.546875-9.882813 12.953125-16.503907 23.476562-16.503907h167.765625c-.722656-6.558593-1.105469-13.21875-1.105469-19.960937 0-10.199219.863282-20.199219 2.492188-29.941406h-169.152344c-31.804687 0-60.207031 20.171874-70.679687 50.195312l-51.390625 159.078125c-22.742188 12.859375-38.132813 37.253906-38.132813 65.1875v189.632813c0 41.273437 33.582031 74.851562 74.855469 74.851562s74.851562-33.578125 74.851562-74.851562v-12.476563h339.335938v12.476563c0 41.273437 33.582031 74.851562 74.855469 74.851562 41.273437 0 74.851562-33.578125 74.851562-74.851562v-189.632813c0-41.273437-33.578125-74.851563-74.851562-74.851563zm-464.09375 264.484376c0 13.757812-11.191407 24.949218-24.949219 24.949218-13.761719 0-24.953125-11.191406-24.953125-24.949218v-16.769532c7.808594 2.769532 16.207031 4.292969 24.953125 4.292969h24.949219zm464.09375 24.949218c-13.753907 0-24.953125-11.191406-24.953125-24.949218v-12.476563h24.953125c8.75 0 17.144531-1.523437 24.949219-4.292969v16.769532c0 13.757812-11.191407 24.949218-24.949219 24.949218zm24.949219-112.28125c0 13.761719-11.191407 24.953125-24.949219 24.953125h-489.042969c-13.761719 0-24.953125-11.191406-24.953125-24.953125v-102.300781c0-13.757813 11.191406-24.949219 24.953125-24.949219h489.042969c13.757812 0 24.949219 11.191406 24.949219 24.949219zm-363.035157-62.378906h187.132813v49.90625h-187.132813zm313.132813 0c0 13.78125-11.164063 24.953125-24.949219 24.953125-13.78125 0-24.953125-11.171875-24.953125-24.953125 0-13.777344 11.171875-24.949219 24.953125-24.949219 13.785156 0 24.949219 11.171875 24.949219 24.949219zm-389.238282 0c0 13.78125-11.171874 24.953125-24.949218 24.953125-13.78125 0-24.953125-11.171875-24.953125-24.953125 0-13.777344 11.171875-24.949219 24.953125-24.949219 13.777344 0 24.949218 11.171875 24.949218 24.949219zm358.054688-153.449219c72.230469 0 130.988281-58.765625 130.988281-130.992187 0-72.230469-58.757812-130.996094-130.988281-130.996094-72.234375 0-130.996094 58.765625-130.996094 130.996094 0 72.226562 58.761719 130.992187 130.996094 130.992187zm0-212.085937c44.710938 0 81.085938 36.378906 81.085938 81.09375 0 44.710937-36.375 81.089844-81.085938 81.089844-44.71875 0-81.09375-36.378907-81.09375-81.089844 0-44.714844 36.375-81.09375 81.09375-81.09375zm48.652344 106.042968h-74.855469v-78.597656h49.902344v28.699219h24.953125zm0 0"/></svg>