<?xml version="1.0" encoding="iso-8859-1"?>
<!-- Generator: Adobe Illustrator 16.0.0, SVG Export Plug-In . SVG Version: 6.00 Build 0)  -->
<!DOCTYPE svg PUBLIC "-//W3C//DTD SVG 1.1//EN" "http://www.w3.org/Graphics/SVG/1.1/DTD/svg11.dtd">
<svg version="1.1" id="Capa_1" xmlns="http://www.w3.org/2000/svg" xmlns:xlink="http://www.w3.org/1999/xlink" x="0px" y="0px"
	 width="186.651px" height="186.651px" viewBox="0 0 186.651 186.651" style="enable-background:new 0 0 186.651 186.651;"
	 xml:space="preserve">
<g>
	<g>
		<path d="M173.377,13.072c3.013-3.397,3.654-5.092,5.027-9.221c1.004-3.015-3.401-5.145-5.183-2.945
			c-0.315-0.105-0.637-0.207-1.029-0.208c-11.367-0.034-19.986,5.369-30.527,9.068c-10.836,3.802-27.076-4.811-38.116-5.84
			C91.298,2.784,79.13,2.957,66.939,4.772c-16.847,2.51-32.744,8.456-49.862,4.313c-1.404-0.34-2.431,1.773-1.02,2.419
			c0.247,0.113,0.5,0.186,0.748,0.293c-0.03,0.192-0.022,0.396,0.037,0.608c8.911,32.007,10.732,71.018,1.483,103.139
			c-5.414,18.805-19.474,50.746-0.98,66.756c1.715,1.484,4.032,0.367,4.329-1.449c14.18-17.04,46.209-8.366,65.344-8.523
			c28.027-0.229,57.486-5.947,80.811,13.326c0.959,0.793,2.224,0.762,3.216,0.283c0.011,0.025,0.022,0.049,0.034,0.075
			c0.524,1.187,2.461,0.576,2.401-0.649c-0.717-14.884-9.373-27.504-10.608-42.635c-1.311-16.041,0.116-32.214,0.526-48.259
			c0.434-16.912-1.39-33.805-0.974-50.736C162.729,31.471,165.077,22.429,173.377,13.072z M156.512,32.977
			c-1.692,18.375-0.129,36.846,0.346,55.245c0.471,18.19-1.394,36.291-0.499,54.507c0.615,12.514,5.141,22.688,10.135,33.35
			c-19.625-17.319-56.235-11.105-79.475-10.324c-19.265,0.646-54.017-8.668-67.003,10.565c-11.63-26.165,5.789-52.569,9.526-79.196
			c3.783-26.953,1.5-58.5-8.989-83.859c22.404,7.379,47.917-4.041,71.058-4.04c14.637,0.001,27.604,7.291,41.698,7.724
			c13.4,0.411,23.576-8.416,36.445-9.776C164.527,15.481,157.537,21.84,156.512,32.977z"/>
		<path d="M53.525,97.562c-2.384,0.516-4.08,3.842-6.617,2.252c-2.304-1.443-3.22-5.166-3.845-7.583
			c-1.177-4.549-1.248-16.649,6.772-14.983c1.257,0.261,1.738-1.497,0.528-1.914c-2.292-0.79-3.653-1.866-6.243-1.426
			c-2.188,0.372-3.839,2.094-5.095,3.782c-3.151,4.236-2.794,10.61-1.961,15.505c0.791,4.651,3.155,10.096,7.517,12.412
			c4.429,2.352,11.495-0.451,12.008-5.712C56.751,98.242,54.932,97.259,53.525,97.562z"/>
		<path d="M69.038,96.916c-2.421,0.797-4.028,2.309-6.13,3.217c-0.035-2.61-0.048-5.229-0.064-7.847
			c2.135,0.876,4.894,0.981,6.124-1.12c0.893-1.526-0.575-3.552-2.321-3.019c-1.311,0.401-2.387,0.707-3.832,0.378
			c-0.037-3.135-0.135-6.262-0.297-9.378c0.85,0.267,1.714,0.481,2.641,0.605c1.535,0.205,3.213,0.657,4.551-0.314
			c1.125-0.817,1.122-2.221,0-3.038c-1.065-0.776-2.083-0.566-3.33-0.523c-1.404,0.048-2.824-0.049-4.212-0.271
			c-0.655-1.244-2.706-1.433-3.114,0.236c-2.213,9.046-2.028,18.863-2.285,28.123c-0.045,1.626,1.445,3.185,3.1,3.1
			c4.595-0.236,11.18-2.07,11.934-7.387C72.021,98.121,70.844,96.322,69.038,96.916z"/>
		<path d="M93.57,71.458c-0.747-2.356-3.946-2.877-5.256-0.687c-1.04,1.738-2.032,3.504-3.053,5.254
			c-2.12,3.635-3.452,4.856-5.906,0.495c-1.36-2.416-5.181-1.338-5.168,1.4c0.038,7.873-0.45,15.733-0.2,23.605
			c0.089,2.792,4.184,2.775,4.319,0c0.268-5.5,0.76-10.991,1.1-16.488c1.387,0.8,2.975,1.061,4.783,0.233
			c2.11-0.966,3.703-2.727,5.061-4.723c0.387,7.533-1.015,15.265,1.387,22.509c0.911,2.749,5.607,2.455,5.303-0.718
			C94.965,92.207,96.674,81.25,93.57,71.458z"/>
		<path d="M110.332,97.319c-2.681,0.136-4.889,1.185-7.378,1.656c0.018-1.567,0.036-3.132,0.05-4.694
			c2.601-0.06,5.529-0.635,6.448-2.907c0.272-0.674-0.18-1.481-0.744-1.829c-1.313-0.809-2.494-0.441-3.829,0.117
			c-0.607,0.254-1.234,0.483-1.867,0.689c-0.003-3.392-0.104-6.786-0.303-10.187c1.691,0.186,3.478,0.339,4.928-0.212
			c2-0.76,2-3.304,0-4.064c-1.683-0.639-3.811-0.346-5.725-0.135c-1.069-1.029-3.146-0.586-3.315,1.353
			c-0.703,8.087-0.467,16.388-1.901,24.39c-0.274,1.533,0.396,3.627,2.214,3.898c4.632,0.691,11.019,0.268,13.649-4.197
			C113.513,99.576,112.309,97.22,110.332,97.319z"/>
		<path d="M133.468,73.037c-0.365-3.56-5.276-3.613-5.573,0c-0.509,6.182,0.071,12.293,0.106,18.412
			c-1.652-5.316-3.015-10.75-5.391-15.81c-1.323-2.819-5.259-1.172-5.42,1.468c-0.547,8.918-1.039,17.929-1.152,26.86
			c-0.024,1.886,2.621,2.129,3.182,0.431c1.438-4.356,2.143-8.909,2.61-13.506c1.443,4.991,2.896,9.976,5.449,14.589
			c1.225,2.211,4.911,1.824,5.479-0.716C135.039,94.543,134.528,83.398,133.468,73.037z"/>
		<path d="M150.386,74.495c-1.69-1.519-4.086-0.941-6.189-0.852c-2.337,0.099-4.676,0.157-7.005,0.386
			c-2.914,0.286-2.914,4.242,0,4.528c1.012,0.099,2.025,0.157,3.039,0.21c-0.805,3.729-0.273,7.754-0.265,11.551
			c0.012,4.823-0.125,9.642-0.189,14.464c-0.033,2.534,4.111,3.217,4.517,0.61c0.669-4.31,1.056-8.653,1.274-13.008
			c0.216-4.268,0.914-9.07,0.045-13.34c1.704,0.14,3.453,0.232,4.772-0.954C151.378,77.199,151.378,75.386,150.386,74.495z"/>
	</g>
</g>
<g>
</g>
<g>
</g>
<g>
</g>
<g>
</g>
<g>
</g>
<g>
</g>
<g>
</g>
<g>
</g>
<g>
</g>
<g>
</g>
<g>
</g>
<g>
</g>
<g>
</g>
<g>
</g>
<g>
</g>
</svg>
