<svg id="Capa_1" enable-background="new 0 0 512 512" height="512" viewBox="0 0 512 512" width="512" xmlns="http://www.w3.org/2000/svg"><path d="m410 66.298h48v384h-48z" fill="#fff"/><path d="m506 162.298h-288l48-48h240z" fill="#fff"/><path d="m258 226.298h48v24h-48z" fill="#b9c2cf"/><path d="m234 250.298h96v24h-96z" fill="#b9c2cf"/><path d="m266 250.298h16v24h-16z" fill="#95a4b6"/><path d="m314 250.298h16v24h-16z" fill="#95a4b6"/><path d="m290 226.298h16v24h-16z" fill="#95a4b6"/><path d="m166 450.298v-288l-160-96v384z" fill="#dce1e7"/><path d="m150 162.298h16v288h-16z" fill="#b9c2cf"/><path d="m166 162.298h-160v-96z" fill="#95a4b6"/><path d="m38 194.298h96v32h-96z" fill="#fff"/><path d="m38 258.298h96v32h-96z" fill="#fff"/><path d="m38 322.298h96v32h-96z" fill="#fff"/><path d="m38 386.298h96v32h-96z" fill="#fff"/><path d="m202 298.298h160v152h-160z" fill="#b9c2cf"/><path d="m346 298.298h16v152h-16z" fill="#95a4b6"/><path d="m234 330.298h32v32h-32z" fill="#fff"/><path d="m298 330.298h32v32h-32z" fill="#fff"/><path d="m234 386.298h32v32h-32z" fill="#fff"/><path d="m298 386.298h32v32h-32z" fill="#fff"/><g fill="#012d4a"><path d="m0 456.298h172v-297.397l-172-103.199zm12-12v-276h148v276zm132.338-288h-132.338v-79.403z"/><path d="m32 232.298h108v-44h-108zm12-32h84v20h-84z"/><path d="m32 296.298h108v-44h-108zm12-32h84v20h-84z"/><path d="m32 360.298h108v-44h-108zm12-32h84v20h-84z"/><path d="m32 424.298h108v-44h-108zm12-32h84v20h-84z"/><path d="m512 108.298h-48v-48h-60v48h-140.485l-60 60h72.485v31.515l-24 24v20.485h-24v36h108v-36h-24v-20.485l-24-24v-31.515h116v288h60v-288h48zm-230 102.486 9.515 9.515h-19.029zm-42 45.514h36v12h-36zm84 12h-36v-12h36zm-60-24v-12h36v12zm227.515-124-27.515 27.515v-27.515zm-75.515 96h27.515l-27.515 27.515zm0 48h27.515l-27.515 27.515zm0 48h27.515l-27.515 27.515zm0 48h27.515l-27.515 27.515zm0 48h27.515l-27.515 27.515zm36-12h-27.515l27.515-27.515zm0-48h-27.515l27.515-27.515zm0-48h-27.515l27.515-27.515zm0-48h-27.515l27.515-27.515zm0-48h-27.515l27.515-27.515zm-180-84h27.515l-27.515 27.515zm36 8.485v27.515h-27.515zm12-8.485h27.515l-27.515 27.515zm36 8.485v27.515h-27.515zm12-8.485h27.515l-27.515 27.515zm84 8.485v27.515h-27.515zm-36 19.03v-27.515h27.515zm8.485-39.515 27.515-27.515v27.515zm19.03-36-27.515 27.515v-27.515zm-183.515 56.486v27.515h-27.515zm116.485 27.514 27.515-27.515v27.515zm67.03 12-27.515 27.515v-27.515zm-19.03 276 27.515-27.515v27.515zm48-288 27.515-27.515v27.515z"/><path d="m196 456.298h172v-164h-172zm12-152h148v140h-148z"/><path d="m228 368.298h44v-44h-44zm12-32h20v20h-20z"/><path d="m292 368.298h44v-44h-44zm12-32h20v20h-20z"/><path d="m228 424.298h44v-44h-44zm12-32h20v20h-20z"/><path d="m292 424.298h44v-44h-44zm12-32h20v20h-20z"/></g></svg>