<svg id="Capa_1" enable-background="new 0 0 512 512" height="512" viewBox="0 0 512 512" width="512" xmlns="http://www.w3.org/2000/svg"><path d="m33.011 199.266c0 14.688 11.949 26.638 26.638 26.638 14.688 0 26.637-11.95 26.637-26.638s-11.949-26.637-26.637-26.637c-14.689 0-26.638 11.949-26.638 26.637zm38.274 0c0 6.417-5.221 11.638-11.637 11.638-6.417 0-11.638-5.221-11.638-11.638s5.221-11.637 11.638-11.637 11.637 5.22 11.637 11.637z"/><path d="m477.605 279.337c0-14.688-11.949-26.638-26.637-26.638s-26.638 11.949-26.638 26.638 11.949 26.638 26.638 26.638c14.688-.001 26.637-11.95 26.637-26.638zm-38.275 0c0-6.417 5.221-11.638 11.638-11.638 6.416 0 11.637 5.221 11.637 11.638s-5.221 11.638-11.637 11.638c-6.417-.001-11.638-5.221-11.638-11.638z"/><path d="m167.781 200.934c2.326-1.012 4.909-1.056 7.271-.123l15.928 6.283c3.851 1.521 8.21-.372 9.729-4.225 1.521-3.853-.371-8.209-4.225-9.729l-15.927-6.282c-6.09-2.403-12.747-2.288-18.751.317-6.002 2.606-10.63 7.395-13.031 13.483-4.957 12.566 1.233 26.823 13.801 31.781l147.568 58.212c2.883 1.138 5.906 1.714 8.985 1.714 10.13 0 19.078-6.09 22.796-15.515 4.958-12.566-1.233-26.823-13.801-31.781l-103.591-40.864c-3.851-1.52-8.209.371-9.729 4.225-1.521 3.853.371 8.209 4.225 9.729l103.591 40.864c4.873 1.922 7.273 7.45 5.352 12.322-1.442 3.657-4.914 6.02-8.843 6.02-1.188 0-2.358-.225-3.481-.667l-147.568-58.212c-4.873-1.922-7.273-7.451-5.352-12.324.931-2.361 2.726-4.217 5.053-5.228z"/><path d="m495.931 240.076c-9.209-9.363-21.102-15.077-33.974-16.425v-47.88c0-9.817-7.987-17.804-17.805-17.804h-69.626c-9.817 0-17.804 7.987-17.804 17.804v45.723c-1.316-.387-2.619-.834-3.905-1.341l-50.653-19.982 17.08-42.115c3.689-9.098-.71-19.5-9.808-23.19l-32.255-13.081c-.002-.001-.004-.002-.006-.003s-.004-.002-.006-.002l-32.254-13.081c-4.405-1.788-9.245-1.753-13.627.101-4.38 1.853-7.776 5.3-9.563 9.707l-17.458 43.046-38.052-15.011v-50.93c0-9.817-7.987-17.804-17.805-17.804h-69.627c-9.817 0-17.805 7.987-17.805 17.804v46.564h-4.982c-15.134 0-29.313 5.943-39.926 16.734-10.61 10.789-16.315 25.072-16.062 40.217.509 30.35 25.982 55.041 56.786 55.041h14.185v52.467c0 4.143 3.357 7.5 7.5 7.5s7.5-3.357 7.5-7.5v-52.467h16.962v134.921h-16.962v-52.467c0-4.143-3.357-7.5-7.5-7.5s-7.5 3.357-7.5 7.5v52.467h-1.856c-14.397 0-26.111 11.714-26.111 26.111v11.493c0 4.143 3.357 7.5 7.5 7.5h87.897c4.143 0 7.5-3.357 7.5-7.5v-11.493c0-14.397-11.714-26.111-26.111-26.111h-1.856v-134.921h7.229c5.766 0 11.409 1.073 16.772 3.188l90.498 35.7c3.852 1.521 8.209-.37 9.729-4.225 1.521-3.853-.371-8.209-4.225-9.729l-90.498-35.7c-7.123-2.811-14.618-4.235-22.276-4.235h-68.377c-22.67 0-41.416-18.075-41.788-40.292-.185-11.091 3.991-21.549 11.76-29.448 7.77-7.901 18.15-12.252 29.23-12.252h87.612c4.301 0 8.534.597 12.634 1.779.22.077.444.143.673.2 1.167.356 2.323.759 3.466 1.21l186.932 73.741c7.124 2.811 14.619 4.235 22.278 4.235h86.414c11.079 0 21.461 4.352 29.23 12.252 7.769 7.899 11.944 18.357 11.759 29.448-.371 22.217-19.117 40.291-41.788 40.291h-104.054c-5.764 0-11.407-1.073-16.772-3.188l-68.231-26.916c-3.852-1.521-8.208.37-9.729 4.225-1.521 3.853.371 8.209 4.225 9.729l68.231 26.916c7.126 2.811 14.62 4.235 22.276 4.235h49.523v53.756h-1.856c-14.397 0-26.111 11.714-26.111 26.111v11.493c0 4.143 3.357 7.5 7.5 7.5h87.897c4.143 0 7.5-3.357 7.5-7.5v-11.492c0-14.397-11.714-26.111-26.111-26.111h-1.856v-53.756h7.569c30.805 0 56.279-24.691 56.786-55.041.252-15.144-5.452-29.427-16.062-40.216zm-365.023 175.124v3.993h-72.897v-3.993c0-6.127 4.984-11.111 11.111-11.111h50.675c6.127 0 11.111 4.984 11.111 11.111zm104.717-291.057c.38-.937 1.106-1.36 1.506-1.529s1.211-.395 2.146-.016l25.311 10.265-4.162 10.263c-1.557 3.838.293 8.212 4.132 9.769.923.375 1.877.552 2.815.552 2.964 0 5.771-1.768 6.953-4.684l4.162-10.262 25.312 10.265c1.433.581 2.125 2.22 1.544 3.652l-17.134 42.247-69.989-27.609zm-159.646 18.033v-46.564c0-1.546 1.258-2.804 2.805-2.804h27.313v11.074c0 4.142 3.357 7.5 7.5 7.5s7.5-3.358 7.5-7.5v-11.075h27.313c1.547 0 2.805 1.258 2.805 2.804v47.039c-2.512-.316-5.05-.475-7.605-.475h-67.631zm298.548 30.791h27.313v11.074c0 4.142 3.357 7.5 7.5 7.5s7.5-3.358 7.5-7.5v-11.074h27.313c1.547 0 2.805 1.258 2.805 2.804v47.57h-75.234v-47.57c-.001-1.547 1.257-2.804 2.803-2.804zm86.078 242.233v3.993h-72.897v-3.993c0-6.127 4.984-11.111 11.111-11.111h50.675c6.126 0 11.111 4.984 11.111 11.111zm-27.968-26.111h-16.962v-53.756h16.962z"/></svg>