<?xml version="1.0" encoding="UTF-8"?>
<svg xmlns="http://www.w3.org/2000/svg" xmlns:xlink="http://www.w3.org/1999/xlink" width="512" height="512" viewBox="0 0 60 60" version="1.1"><!-- Generator: Sketch 51.3 (57544) - http://www.bohemiancoding.com/sketch --><title>009 - Molten Metal Mould</title><desc>Created with Sketch.</desc><defs/><g id="Page-1" stroke="none" stroke-width="1" fill="none" fill-rule="evenodd"><g id="009---Molten-Metal-Mould" fill="#000000" fill-rule="nonzero"><path d="M1,60 L47,60 C47.5522847,60 48,59.5522847 48,59 L48,52 C48,51.983 47.991,51.97 47.99,51.953 C47.9859098,51.8463819 47.9649847,51.7410814 47.928,51.641 C47.928,51.629 47.922,51.616 47.917,51.605 C47.8786427,51.5142533 47.8270858,51.4296731 47.764,51.354 L37.364,39.062 C36.7935387,38.3879215 35.9550671,37.9994151 35.072,38 L28.381,38 C29.2902562,36.237157 30.3583439,34.5608853 31.572,32.992 C31.772,33.022 31.992,33.042 32.221,33.055 L36.8,33.5 C37.2129031,34.2468958 37.9428635,34.7656681 38.784,34.91 C38.861,34.922 38.937,34.922 39.014,34.928 C39.039,34.928 39.06,34.943 39.086,34.943 L44.977,35 L45.055,35 C45.6960756,34.9880293 46.3223214,34.8050579 46.869,34.47 L48.201,34.614 C48.237194,34.6180195 48.2735835,34.6200226 48.31,34.62 L48.363,34.62 L48.436,34.62 C52.936,34.281 57.318,29.673 59.092,23.42 C60.784,17.447 59.71,11.608 56.436,8.733 C56.1637229,7.65579335 55.4195744,6.7591403 54.411,6.293 C54.405,6.293 54.402,6.286 54.396,6.283 L50.335,4.47 C49.5713879,4.00605309 48.6315853,3.93650696 47.808,4.283 L41.819,1.292 C41.7910981,1.27910214 41.7623678,1.26807772 41.733,1.259 C41.1261443,0.879710262 40.4695338,0.586574568 39.782,0.388 C36.8,-0.457 33.532,0.496 30.582,3.073 C29.1822383,4.32052767 27.9763129,5.76979523 27.004,7.373 L9.35,0.079 L9.344,0.079 C9.29083404,0.062654135 9.23626724,0.0512721029 9.181,0.045 C9.10934781,0.0214045551 9.03517364,0.00630121674 8.96,0 L1,0 C0.44771525,7.3207812e-17 6.76353751e-17,0.44771525 0,1 L0,4.194 C0.00023757104,4.32484046 0.0264085937,4.45433604 0.077,4.575 C0.11052377,4.64070548 0.15181964,4.70214567 0.2,4.758 C0.227049501,4.80599446 0.257809891,4.85180069 0.292,4.895 C0.384845611,4.98773338 0.494904737,5.06144582 0.616,5.112 L24.016,14.788 C23.0792856,18.5643767 23.2042155,22.526144 24.377,26.236 C22.9438618,30.0241691 21.9871931,33.975802 21.529,38 L12.929,38 C12.0462824,37.9997094 11.2082355,38.3881886 10.638,39.062 L0.236,51.354 C0.172914158,51.4296731 0.121357263,51.5142533 0.083,51.605 C0.078,51.616 0.077,51.629 0.073,51.64 C0.035220666,51.7402425 0.0139446027,51.8459474 0.01,51.953 C0.01,51.97 1.66880398e-15,51.983 1.66880398e-15,52 L1.66880398e-15,59 C-1.40599316e-16,59.2652165 0.10535684,59.5195704 0.292893219,59.7071068 C0.480429597,59.8946432 0.73478351,60 1,60 Z M46,58 L2,58 L2,53 L46,53 L46,58 Z M17.282,45 C18.4852682,44.5171813 19.7580041,44.2298874 21.052,44.149 C21.032,44.705 21.029,45.276 21.021,45.843 C19.7374544,45.7648165 18.4749148,45.4801626 17.282,45 Z M26.357,26.633 C27.0063433,24.9821447 27.8250511,23.4030406 28.8,21.921 C29.0710979,21.5001178 29.3718605,21.099101 29.7,20.721 C29.754,20.68 31.736,19.258 39.279,22.011 C38.4510528,23.5482777 37.2938313,24.8837433 35.89,25.922 C34.8088272,26.6285761 33.8064436,27.4489215 32.9,28.369 C32,29.318 31.154,30.294 30.38,31.269 C28.570994,33.5080345 27.0600557,35.9722591 25.885,38.6 L25.877,38.618 C24.8322394,40.9497748 24.2141222,43.4500167 24.052,46 C23.6993333,46 23.3546667,45.995 23.018,45.985 C23.112,38.461 24.227,31.948 26.357,26.634 L26.357,26.633 Z M40.987,17.917 C40.7611093,18.6975338 40.4828106,19.4619366 40.154,20.205 C33.11,17.605 30.064,18.247 28.89,18.863 C28.950682,17.4446636 29.1761985,16.0382056 29.562,14.672 C31.171,9 35.156,4.953 38.245,5.821 C41.339,6.7 42.6,12.244 40.987,17.918 L40.987,17.917 Z M45.245,5.237 L49.99,7.609 C50.2372372,8.84280457 50.3046021,10.1058973 50.19,11.359 C49.7998918,15.1168143 48.8276011,18.7910745 47.308,22.25 C46.1216453,25.3855225 44.4195256,28.3006899 42.272,30.875 C41.9411457,31.2476478 41.5828072,31.5949553 41.2,31.914 L37.8,31.585 C41.4,29.434 44.52,25.11 46.066,19.663 C47.593,14.253 47.153,8.958 45.245,5.238 L45.245,5.237 Z M26.271,44.085 C27.7955147,44.1368361 29.3001914,44.4469009 30.721,45.002 C29.2237213,45.5750418 27.6396799,45.8885359 26.037,45.929 C26.0814649,45.310541 26.1595806,44.6949626 26.271,44.085 Z M45.039,33 L45.01,33 L43.015,32.98 C43.322,32.689 43.579,32.416 43.767,32.205 C46.0484272,29.4548465 47.8674962,26.3520267 49.153,23.018 C50.7541399,19.3688572 51.7760979,15.4922321 52.182,11.528 C52.3065354,10.1500601 52.2453208,8.7616333 52,7.4 L53.588,8.107 C53.5943247,8.10653296 53.6006753,8.10653296 53.607,8.107 C53.613,8.107 53.617,8.115 53.623,8.117 C54.1419502,8.39730047 54.500596,8.90347174 54.593,9.486 C54.601,9.522 54.611,9.556 54.622,9.586 C54.8384809,10.7544128 54.8883095,11.9476061 54.77,13.13 C54.5013362,16.1750168 53.7853076,19.1638043 52.645,22 C51.6522563,24.7505825 50.2825195,27.3500536 48.575,29.724 C48.466,29.872 48.348,30.038 48.222,30.213 C47.426,31.323 46.228,33 45.039,33 Z M57.168,22.867 C55.739,27.907 52.368,31.825 48.993,32.523 C49.311,32.123 49.593,31.723 49.849,31.373 L50.183,30.911 C51.9993763,28.3889022 53.4575719,25.6273159 54.516,22.705 C55.7233818,19.6878793 56.4801568,16.5094917 56.762,13.272 C56.776,13.072 56.792,12.823 56.806,12.546 C58.1192067,15.840401 58.2471672,19.4886885 57.168,22.867 Z M31.9,4.579 C34.323,2.462 36.926,1.658 39.238,2.312 C44.168,3.712 46.366,11.248 44.138,19.117 C42.238,25.817 37.638,30.762 33.159,31.056 C33.543,30.614 33.9396667,30.176 34.349,29.742 C35.158603,28.9250411 36.0526078,28.1962948 37.016,27.568 C38.9918549,26.0987192 40.5642287,24.1538052 41.587,21.914 C41.599,21.888 41.609,21.861 41.621,21.835 C42.1515022,20.7524145 42.5832523,19.6241747 42.911,18.464 C44.879,11.518 43.07,5.121 38.79,3.899 C34.51,2.677 29.605,7.185 27.637,14.129 C26.9782932,16.3904483 26.741015,18.7537393 26.937,21.101 C26.474057,21.8213004 26.0484941,22.5649508 25.662,23.329 C25.1612202,20.2324741 25.3611236,17.0630656 26.247,14.054 C27.191573,10.4221917 29.1526489,7.13523002 31.9,4.579 Z M8.761,2 L26.021,9.134 C25.4277053,10.3283084 24.9320859,11.5686944 24.539,12.843 L2,3.521 L2,2 L8.761,2 Z M12.161,40.354 C12.3518301,40.1285041 12.6325963,39.9989197 12.928,40 L21.328,40 C21.2613333,40.7 21.2066667,41.4096667 21.164,42.129 C18.532,42.362 15,43.04 15,45 C15,47.071 18.982,47.708 21.583,47.9 C21.7130247,47.9633988 21.8553634,47.9975328 22,48 C22.0908014,47.9948798 22.18039,47.9766926 22.266,47.946 C22.801,47.979 23.366,48 24,48 C24.31,48 24.61,47.991 24.91,47.982 C24.9396743,47.9895268 24.9697134,47.9955346 25,48 C25.0398186,47.9946054 25.0792377,47.986588 25.118,47.976 C27.557,47.9 33,47.443 33,45 C33,43.04 29.494,42.352 26.735,42.114 C26.9435869,41.3973191 27.1885715,40.6917369 27.469,40 L35.069,40 C35.3633557,39.999805 35.6428462,40.1293072 35.833,40.354 L44.844,51 L3.156,51 L12.161,40.354 Z" id="Shape"/><path d="M16,32 C17.6568542,32 19,30.6568542 19,29 C19,27.3431458 17.6568542,26 16,26 C14.3431458,26 13,27.3431458 13,29 C13,30.6568542 14.3431458,32 16,32 Z M16,28 C16.5522847,28 17,28.4477153 17,29 C17,29.5522847 16.5522847,30 16,30 C15.4477153,30 15,29.5522847 15,29 C15,28.4477153 15.4477153,28 16,28 Z" id="Shape"/><circle id="Oval" cx="10" cy="24" r="1"/><circle id="Oval" cx="13" cy="19" r="1"/></g></g></svg>
