<?xml version="1.0" encoding="iso-8859-1"?>
<!-- Generator: Adobe Illustrator 19.0.0, SVG Export Plug-In . SVG Version: 6.00 Build 0)  -->
<svg version="1.1" id="Capa_1" xmlns="http://www.w3.org/2000/svg" xmlns:xlink="http://www.w3.org/1999/xlink" x="0px" y="0px"
	 viewBox="0 0 512 512" style="enable-background:new 0 0 512 512;" xml:space="preserve">
<polygon style="fill:#3FA9F5;" points="501.822,178.084 256,457.125 375.589,178.084 "/>
<polygon style="fill:#3F9AF5;" points="382.233,51.851 501.822,178.084 375.589,178.084 256,51.851 "/>
<polygon style="fill:#3FA9F5;" points="256,51.851 375.589,178.084 136.411,178.084 "/>
<g>
	<polygon style="fill:#3F9AF5;" points="375.589,178.084 256,457.125 136.411,178.084 	"/>
	<polygon style="fill:#3F9AF5;" points="136.411,178.084 256,457.125 10.178,178.084 	"/>
	<polygon style="fill:#3F9AF5;" points="256,51.851 136.411,178.084 10.178,178.084 129.767,51.851 	"/>
</g>
<g>
	<polygon style="fill:#3F86F5;" points="83.26,178.084 10.178,178.084 256,457.125 249.254,441.385 	"/>
	<polygon style="fill:#3F86F5;" points="182.918,51.851 129.767,51.851 10.178,178.084 83.26,178.084 	"/>
</g>
<g>
	<path style="fill:#231F20;" d="M438.056,99.434l-10.911,10.337l57.205,60.382H378.822L273.472,58.952h105.529l37.64,39.731
		l10.911-10.337l-42.087-44.424H126.534L0,177.486l150.685,171.048l11.279-9.935L26.815,185.185h104.64l99.133,231.311
		l-56.725-64.391l-11.279,9.935L256,468.079l256-290.593L438.056,99.434z M27.651,170.154L133,58.952h105.528l-105.35,111.202
		H27.651z M147.808,185.185h55.038v-15.031h-48.964L256,62.364l102.117,107.79H222.779v15.031h141.413L255.999,437.631
		L147.808,185.185z M380.545,185.185h104.64L281.411,416.496L380.545,185.185z"/>
	<rect x="249.353" y="123.645" style="fill:#231F20;" width="13.288" height="15.031"/>
</g>
<rect x="275.928" y="123.645" style="fill:#FFFFFF;" width="13.288" height="15.031"/>
<polygon style="fill:#231F20;" points="388.877,112.102 388.877,97.071 375.589,97.071 375.589,83.784 362.302,83.784 
	362.302,98.815 375.589,98.815 375.589,112.102 "/>
<g>
	<polygon style="fill:#FFFFFF;" points="123.123,251.623 123.123,236.593 109.835,236.593 109.835,223.305 96.548,223.305 
		96.548,238.336 109.835,238.336 109.835,251.623 	"/>
	<rect x="222.779" y="123.645" style="fill:#FFFFFF;" width="13.288" height="15.031"/>
</g>
<g>
</g>
<g>
</g>
<g>
</g>
<g>
</g>
<g>
</g>
<g>
</g>
<g>
</g>
<g>
</g>
<g>
</g>
<g>
</g>
<g>
</g>
<g>
</g>
<g>
</g>
<g>
</g>
<g>
</g>
</svg>
