<svg height="496pt" viewBox="-72 0 496 496" width="496pt" xmlns="http://www.w3.org/2000/svg"><path d="m296 64h-168v-16h8c4.425781 0 8-3.585938 8-8v-32c0-4.414062-3.574219-8-8-8h-112c-4.425781 0-8 3.585938-8 8v32c0 4.414062 3.574219 8 8 8h8v21.480469c-18.886719 9.007812-32 28.238281-32 50.519531v320c0 30.871094 25.128906 56 56 56h240c30.871094 0 56-25.128906 56-56v-320c0-30.878906-25.128906-56-56-56zm40 56v124.6875l-32-32v-76.6875c0-13.230469-10.769531-24-24-24h-76.6875l-32-32h124.6875c22.054688 0 40 17.945312 40 40zm-48 76.6875-68.6875-68.6875h60.6875c4.414062 0 8 3.59375 8 8zm-256-180.6875h96v16h-96zm16 32h64v16h-56c-2.71875 0-5.375.265625-8 .640625zm248 432h-240c-22.054688 0-40-17.945312-40-40v-320c0-22.054688 17.945312-40 40-40h92.6875l187.3125 187.3125v172.6875c0 22.054688-17.945312 40-40 40zm0 0"/><path d="m141.65625 98.34375c-1.496094-1.503906-3.527344-2.34375-5.65625-2.34375h-72c-17.648438 0-32 14.351562-32 32v304c0 17.648438 14.351562 32 32 32h224c17.648438 0 32-14.351562 32-32v-152c0-2.128906-.839844-4.160156-2.34375-5.65625zm162.34375 333.65625c0 8.824219-7.175781 16-16 16h-224c-8.824219 0-16-7.175781-16-16v-304c0-8.824219 7.175781-16 16-16h68.6875l171.3125 171.3125zm0 0"/><path d="m112 357.984375c0 29.535156 21.167969 54.3125 49.230469 57.617187 2.21875.253907 4.441406.390626 6.640625.390626 13.722656 0 27.039062-4.984376 37.320312-14.128907 11.960938-10.625 18.808594-25.878906 18.808594-41.863281v-2.015625c0-15.726563-3.976562-31.328125-11.503906-45.121094l-37.472656-68.695312c-2.800782-5.144531-11.246094-5.144531-14.046876 0l-37.472656 68.6875c-7.527344 13.800781-11.503906 29.402343-11.503906 45.128906zm25.550781-37.464844 30.449219-55.808593 30.449219 55.824218c6.246093 11.441406 9.550781 24.394532 9.550781 37.449219v2.015625c0 11.414062-4.894531 22.3125-13.441406 29.902344-8.648438 7.691406-19.839844 11.167968-31.453125 9.808594-19.679688-2.320313-35.105469-20.648438-35.105469-41.726563 0-13.054687 3.304688-26.007813 9.550781-37.464844zm0 0"/><path d="m200 360h-16c0 8.824219-7.175781 16-16 16v16c17.648438 0 32-14.351562 32-32zm0 0"/></svg>