<svg height="512" viewBox="0 0 64 64" width="512" xmlns="http://www.w3.org/2000/svg"><g id="Filled_outline" data-name="Filled outline"><path d="m36 55h-8l1-21 2-5h2l2 5z" fill="#c8d952"/><path d="m35 10c0 4.971-1.343 11-3 11s-3-6.029-3-11 1.343-7 3-7 3 2.029 3 7z" fill="#50b4f8"/><path d="m18 31c4.05-2.882 10.039-5.35 11-4s-3.95 6.118-8 9-6.039 2.35-7 1-.05-3.118 4-6z" fill="#50b4f8"/><path d="m46.013 31c-4.05-2.883-10.04-5.35-11-4s3.95 6.117 8 9 6.039 2.35 7 1 .049-3.116-4-6z" fill="#50b4f8"/><circle cx="32" cy="25" fill="#87cee9" r="2"/><path d="m23 55h18a4 4 0 0 1 4 4v2a0 0 0 0 1 0 0h-26a0 0 0 0 1 0 0v-2a4 4 0 0 1 4-4z" fill="#8ec13f"/><path d="m31 50h2v2h-2z" fill="#fcf05a"/><path d="m31 46h2v2h-2z" fill="#fcf05a"/><g fill="#c8d952"><path d="m60 14s-1 4-4 4a2 2 0 0 1 0-4z"/><path d="m18 12s-1-4-4-4a2 2 0 0 0 0 4z"/><path d="m49 46s-1-4-4-4a2 2 0 0 0 0 4z"/><path d="m14 27s-1 4-4 4a2 2 0 0 1 0-4z"/></g><path d="m36 10c0-6.96-2.506-8-4-8s-4 1.04-4 8c0 2.535.679 12 4 12s4-9.465 4-12zm-6 0c0-4.429 1.077-6 2-6s2 1.571 2 6c0 4.97-1.243 9.2-2 9.939-.757-.739-2-4.969-2-9.939z"/><path d="m43.575 21.823a12.037 12.037 0 0 0 -6.061-7.484l-.92 1.776a10.033 10.033 0 0 1 5.052 6.237z"/><path d="m22 18.363a11.945 11.945 0 0 0 -2 6.637c0 .384.019.764.054 1.139a12.124 12.124 0 0 0 .407 2.168 33.245 33.245 0 0 0 -3.041 1.878 15.688 15.688 0 0 0 -4.145 3.856 2.963 2.963 0 0 0 -.089 3.539 3.44 3.44 0 0 0 2.931 1.52c1.329 0 3.1-.605 5.463-2.285 1.009-.718 2.036-1.527 3.011-2.359a11.913 11.913 0 0 0 3.3 1.82l-.845 17.724h-4.046a5.006 5.006 0 0 0 -5 5v2a1 1 0 0 0 1 1h26a1 1 0 0 0 1-1v-2a5.006 5.006 0 0 0 -5-5h-4.046l-.954-20.047a1.033 1.033 0 0 0 -.07-.325l-2-5a1 1 0 0 0 -.93-.628h-2a1 1 0 0 0 -.929.628l-2 5a1.033 1.033 0 0 0 -.07.325l-.01.211a9.954 9.954 0 0 1 -1.878-1.064c.537-.5 1.043-1 1.5-1.487 1.758-1.874 2.57-3.245 2.517-4.286a2.936 2.936 0 0 0 3.765-.012c-.062 1.042.748 2.417 2.514 4.3a42.806 42.806 0 0 0 6.029 5.206c2.356 1.679 4.128 2.279 5.462 2.279a3.44 3.44 0 0 0 2.931-1.52 2.964 2.964 0 0 0 -.09-3.54 15.68 15.68 0 0 0 -4.144-3.855c-2.432-1.73-9.181-5.532-11.75-4.275a2.969 2.969 0 0 0 .153-.91 3 3 0 0 0 -6 0 2.963 2.963 0 0 0 .154.9c-1.469-.7-4.265.211-6.865 1.46a10.176 10.176 0 0 1 -.244-1.41c-.03-.311-.045-.629-.045-.95a9.94 9.94 0 0 1 1.667-5.529zm7.867 18.445a12.268 12.268 0 0 0 2.133.192v-2a10.189 10.189 0 0 1 -2.036-.21l.027-.575 1.686-4.215h.646l1.686 4.215.942 19.785h-5.9zm11.133 19.192a3 3 0 0 1 3 3v1h-24v-1a3 3 0 0 1 3-3zm4.433-24.183a14.193 14.193 0 0 1 3.614 3.294c.51.807.285 1.122.151 1.311-1.076 1.511-3.641.162-5.6-1.235-4.218-3-7.325-6.42-7.67-7.574 1.212-.179 5.721 1.511 9.505 4.204zm-13.433-7.817a1 1 0 1 1 -1 1 1 1 0 0 1 1-1zm-4.113 3.6a1.386 1.386 0 0 1 .2.013 14.511 14.511 0 0 1 -3.475 4.157 9.911 9.911 0 0 1 -1.671-2.521 14.775 14.775 0 0 1 4.946-1.649zm-4.772 5.5c-.829.7-1.731 1.405-2.695 2.091-1.962 1.4-4.526 2.75-5.606 1.235-.133-.189-.358-.5.152-1.311a14.176 14.176 0 0 1 3.614-3.294 29.529 29.529 0 0 1 2.589-1.638 11.9 11.9 0 0 0 1.946 2.911z"/><path d="m16.036 19.733 1.928.534a15.06 15.06 0 0 1 5.6-7.671l-1.126-1.653a17 17 0 0 0 -6.402 8.79z"/><path d="m15.132 21.876a17.048 17.048 0 0 0 -.132 2.124h2a15.2 15.2 0 0 1 .116-1.876z"/><path d="m48.7 28.187a17.144 17.144 0 0 0 .3-3.187 16.909 16.909 0 0 0 -2.943-9.563l-1.657 1.126a14.912 14.912 0 0 1 2.6 8.437 15.1 15.1 0 0 1 -.264 2.813z"/><path d="m31 50h2v2h-2z"/><path d="m31 46h2v2h-2z"/><path d="m51.447 16.105-.894 1.79a4.741 4.741 0 0 0 2.118.547 3.273 3.273 0 0 0 1.29-.255 2.982 2.982 0 0 0 2.039.813c3.738 0 4.922-4.563 4.97-4.757a1 1 0 0 0 -.97-1.243h-4a2.906 2.906 0 0 0 -2.96 3.394 2.235 2.235 0 0 1 -1.593-.289zm4.553-1.105h2.543a3.1 3.1 0 0 1 -2.543 2 1 1 0 0 1 0-2z"/><path d="m14 7a2.986 2.986 0 0 0 -2.146.911c-1.145-.325-3.412-.768-4.561.382l1.414 1.414a3.722 3.722 0 0 1 2.317.059c-.007.079-.024.154-.024.234a3 3 0 0 0 3 3h4a1 1 0 0 0 .97-1.243c-.048-.194-1.232-4.757-4.97-4.757zm0 4a1 1 0 0 1 0-2 3.1 3.1 0 0 1 2.543 2z"/><path d="m45 47h4a1 1 0 0 0 .97-1.243c-.048-.194-1.232-4.757-4.97-4.757a2.986 2.986 0 0 0 -2.146.911c-1.146-.325-3.412-.768-4.561.382l1.414 1.414a3.73 3.73 0 0 1 2.317.059c-.007.079-.024.154-.024.234a3 3 0 0 0 3 3zm0-4a3.1 3.1 0 0 1 2.543 2h-2.543a1 1 0 0 1 0-2z"/><path d="m5.447 29.105-.894 1.795a4.741 4.741 0 0 0 2.118.547 3.273 3.273 0 0 0 1.29-.255 2.982 2.982 0 0 0 2.039.808c3.738 0 4.922-4.563 4.97-4.757a1 1 0 0 0 -.97-1.243h-4a3 3 0 0 0 -3 3 2.843 2.843 0 0 0 .04.394 2.241 2.241 0 0 1 -1.593-.289zm4.553-1.105h2.543a3.1 3.1 0 0 1 -2.543 2 1 1 0 0 1 0-2z"/></g></svg>