<?xml version="1.0"?>
<svg xmlns="http://www.w3.org/2000/svg" viewBox="0 0 512 512" width="512" height="512"><g id="Ferris_wheel" data-name="Ferris wheel"><path d="M288,208a32,32,0,1,0-32,32A32.036,32.036,0,0,0,288,208Zm-48,0a16,16,0,1,1,16,16A16.019,16.019,0,0,1,240,208Z"/><path d="M416,488H373.461L321.105,354.142a160.306,160.306,0,0,0,35.358-21.714,23.922,23.922,0,0,0,7.016,16.993h0a24,24,0,1,0,16.971-40.971h-.013a159.252,159.252,0,0,0,34.656-83.434,24,24,0,1,0,0-34.034,159.252,159.252,0,0,0-34.656-83.434h.013a24.009,24.009,0,1,0-23.988-23.977,159.252,159.252,0,0,0-83.446-34.666,24,24,0,1,0-34.034,0,159.252,159.252,0,0,0-83.446,34.666,23.922,23.922,0,0,0-7.016-16.993h0a24,24,0,1,0-16.971,40.971h.013a159.252,159.252,0,0,0-34.656,83.434,24,24,0,1,0,0,34.034,159.252,159.252,0,0,0,34.656,83.434h-.013a24.009,24.009,0,1,0,23.988,23.977,160.3,160.3,0,0,0,34.506,21.336L137.539,488H96a8,8,0,0,0,0,16h96a8,8,0,0,0,0-16H154.719l50.205-128.36a158.766,158.766,0,0,0,34.059,7.454,24,24,0,1,0,34.034,0,158.81,158.81,0,0,0,33.171-7.165L356.281,488H320a8,8,0,0,0,0,16h96a8,8,0,0,0,0-16ZM216,208a40,40,0,1,1,40,40A40.045,40.045,0,0,1,216,208Zm-67.271,95.957A143.426,143.426,0,0,1,112.226,216h88.355a55.708,55.708,0,0,0,10.586,25.519Zm152.1-62.438A55.708,55.708,0,0,0,311.419,216h88.355a143.426,143.426,0,0,1-36.5,87.957ZM311.419,200a55.708,55.708,0,0,0-10.586-25.519l62.438-62.438A143.426,143.426,0,0,1,399.774,200Zm-21.9-36.833A55.719,55.719,0,0,0,264,152.581V64.226a143.429,143.429,0,0,1,87.957,36.5ZM248,152.581a55.719,55.719,0,0,0-25.519,10.586l-62.438-62.438A143.429,143.429,0,0,1,248,64.226Zm-36.833,21.9A55.708,55.708,0,0,0,200.581,200H112.226a143.426,143.426,0,0,1,36.5-87.957Zm78.352,78.352,62.438,62.438a144.44,144.44,0,0,1-36.685,23.958L283.1,256.982A56.044,56.044,0,0,0,289.519,252.833Zm96.588,73.961a8,8,0,1,1-5.656-2.343A8.008,8.008,0,0,1,386.107,326.794ZM432,200a8,8,0,1,1-8,8A8.009,8.009,0,0,1,432,200ZM374.793,77.893a8,8,0,1,1,0,11.313A7.978,7.978,0,0,1,374.793,77.893ZM256,24a8,8,0,1,1-8,8A8.009,8.009,0,0,1,256,24ZM125.893,89.206a8,8,0,1,1,5.656,2.343A8.008,8.008,0,0,1,125.893,89.206ZM80,216a8,8,0,1,1,8-8A8.009,8.009,0,0,1,80,216Zm57.207,122.107a8,8,0,1,1,0-11.313A8.009,8.009,0,0,1,137.207,338.107Zm22.836-22.836,62.438-62.438a55.989,55.989,0,0,0,5.6,3.68l-32.2,82.321A144.5,144.5,0,0,1,160.043,315.271Zm82.9-52.825c1.661.4,3.347.727,5.061.973v88.355a143.117,143.117,0,0,1-37.238-7.06ZM256,392a8,8,0,1,1,8-8A8.009,8.009,0,0,1,256,392Zm8-40.226V263.419c1.4-.2,2.78-.458,4.144-.76L300.351,345A143.1,143.1,0,0,1,264,351.774Z"/><path d="M448,488h-8a8,8,0,0,0,0,16h8a8,8,0,0,0,0-16Z"/></g></svg>
