<svg height="512pt" viewBox="-25 0 512 512.001" width="512pt" xmlns="http://www.w3.org/2000/svg"><path d="m209.632812 358.171875-12.964843-29.71875c0-.003906-.003907-.003906-.003907-.007813l-3.941406-9.03125c-3.636718-8.335937-5.480468-17.171874-5.480468-26.265624v-143.382813c0-5.523437-4.476563-10-10-10h-41.457032v-92.191406c0-15.207031 12.371094-27.574219 27.574219-27.574219h159.824219c15.203125 0 27.574218 12.367188 27.574218 27.574219v24.367187c0 5.523438 4.476563 10 10 10 5.523438 0 10-4.476562 10-10v-24.367187c0-26.234375-21.34375-47.574219-47.574218-47.574219h-159.824219c-26.234375 0-47.574219 21.339844-47.574219 47.574219v92.191406h-41.460937c-5.523438 0-10 4.476563-10 10v143.382813c0 9.09375-1.84375 17.929687-5.480469 26.265624l-18.460938 42.3125c-2.207031 5.0625.105469 10.957032 5.167969 13.164063 3.480469 1.519531 7.628907.882813 10.507813-1.585937 1.109375-.953126 2.035156-2.152344 2.65625-3.578126l11.898437-27.273437h45.171875v117.105469c0 5.523437 4.476563 10 10 10 5.519532 0 10-4.476563 10-10v-117.105469h45.167969l12.605469 28.894531 35.691406 81.808594c.761719 1.742188 1.339844 3.566406 1.726562 5.417969.390626 1.886719.589844 3.796875.589844 5.679687 0 15.296875-12.449218 27.742188-27.746094 27.742188h-156.074218c-.765625 0-1.527344-.035156-2.28125-.097656-10.550782-.867188-19.90625-7.929688-23.664063-17.828126-1.1875-3.125-1.796875-6.46875-1.796875-9.816406 0-3.847656.777344-7.578125 2.308594-11.089844l.054688-.125c1.523437-3.484374.90625-7.363281-1.28125-10.167968-1.433594-1.832032-3.527344-3.136719-5.800782-3.625-4.558594-.972656-9.316406 1.355468-11.25 5.792968l-.050781.117188c-2.644531 6.058594-3.984375 12.484375-3.984375 19.097656 0 2.492188.199219 5.003906.589844 7.464844 1.546875 9.921875 6.164062 19.070312 13.398437 26.304688 7.265625 7.253906 16.453125 11.878906 26.410157 13.410156 1.808593.28125 3.636718.449218 5.464843.519531.625.023437 1.253907.046875 1.882813.046875h156.074218c26.328126 0 47.75-21.417969 47.75-47.746094 0-6.609375-1.34375-13.035156-3.984374-19.09375zm-130.492187-35.71875c3.429687-9.398437 5.183594-19.226563 5.183594-29.304687v-133.382813h31.457031v162.6875zm56.644531-162.6875h31.457032v133.382813c0 10.078124 1.753906 19.90625 5.183593 29.304687h-36.644531v-162.6875zm0 0"/><path d="m427.085938 417.535156h-5.769532c3.773438-2.8125 7.382813-5.902344 10.792969-9.265625 17.519531-17.277343 27.96875-39.75 29.929687-63.992187.699219-8.535156.328126-17.160156-1.117187-25.601563-4.777344-28.097656-21.128906-52.980469-45.757813-68.617187-10.992187-6.980469-17.554687-19.097656-17.554687-32.417969v-98.964844c0-5.523437-4.476563-10-10-10h-53.714844c-5.523437 0-10 4.476563-10 10v98.75c0 13.449219-6.574219 25.652344-17.585937 32.648438-23.027344 14.636719-38.875 37.492187-44.703125 63.457031-2.859375 12.339844-3.195313 25.304688-1.308594 37.8125.542969 3.597656 1.296875 7.167969 2.238281 10.683594 5.992188 22.515625 19.539063 41.980468 37.75 55.507812h-3.839844c-3.328124 0-6.433593 1.652344-8.292968 4.410156-1.859375 2.753907-2.226563 6.253907-.980469 9.335938l12.195313 30.171875v40.546875c0 5.523438 4.476562 10 10 10 5.523437 0 10-4.476562 10-10v-32.492188h84.726562v32.492188c0 5.523438 4.476562 10 10 10s10-4.476562 10-10v-40.378906l12.265625-30.339844c1.242187-3.082031.878906-6.582031-.980469-9.339844-1.859375-2.753906-4.96875-4.40625-8.292968-4.40625zm-14.828126 20-4.839843 11.972656h-91.304688l-4.839843-11.972656zm-127.414062-71.679687c-4.761719-11.953125-6.566406-25.058594-5.335938-37.859375.066407-.648438.132813-1.296875.210938-1.941406.011719-.09375.023438-.183594.035156-.273438h162.003906c.0625.503906.117188 1.003906.167969 1.507812 1.210938 11.535157-.035156 23.3125-3.695312 34.320313-3.136719 9.433594-8.023438 18.261719-14.324219 25.949219-6.285156 7.671875-13.957031 14.1875-22.550781 19.132812-9.027344 5.199219-19.082031 8.683594-29.410157 10.066406-13.1875 1.761719-26.519531.324219-39.046874-4.132812-1.53125-.546875-3.046876-1.164062-4.535157-1.8125-9.644531-4.203125-18.488281-10.308594-26.074219-18.125-7.617187-7.84375-13.476562-16.90625-17.402343-26.714844-.011719-.039062-.027344-.078125-.042969-.117187zm32.195312-98.902344c16.816407-10.683594 26.855469-29.199219 26.855469-49.527344v-88.75h33.714844v88.964844c0 20.199219 10.03125 38.628906 26.835937 49.300781 14.867188 9.441406 25.984376 23.074219 32.222657 38.839844h-151.804688c6.246094-15.765625 17.359375-29.414062 32.175781-38.828125zm0 0"/><path d="m21.613281 411.300781c1.601563 3.847657 5.527344 6.371094 9.703125 6.167969 4.121094-.203125 7.78125-3.007812 9.046875-6.933594 1.304688-4.058594-.183593-8.65625-3.648437-11.152344-3.289063-2.375-7.792969-2.511718-11.226563-.351562-4.054687 2.554688-5.714843 7.851562-3.875 12.269531zm0 0"/></svg>