<svg height="511pt" viewBox="-72 1 511 511.999" width="511pt" xmlns="http://www.w3.org/2000/svg"><path d="m31.5625 40.402344v213.761718c0 5.0625 4.273438 9.335938 9.335938 9.335938h285.855468c5.0625 0 9.339844-4.277344 9.339844-9.335938v-213.761718c0-5.0625-4.277344-9.339844-9.339844-9.339844h-285.855468c-5.0625 0-9.335938 4.277344-9.335938 9.339844zm97.894531 208.097656v-26.246094h29.34375c6.5625 0 11.902344-5.339844 11.902344-11.90625v-29.339844h26.246094v29.339844c0 6.566406 5.339843 11.90625 11.90625 11.90625h29.339843v26.246094zm-82.894531-202.4375h274.527344v202.4375h-67.894532v-29.339844c0-6.566406-5.339843-11.90625-11.902343-11.90625h-29.34375v-29.34375c0-6.5625-5.339844-11.902344-11.902344-11.902344h-32.4375c-6.566406 0-11.90625 5.339844-11.90625 11.902344v29.34375h-29.34375c-6.5625 0-11.902344 5.339844-11.902344 11.902344v29.34375h-67.894531zm0 0"/><path d="m268.753906 368.933594c10.226563-10.230469 10.226563-26.875 0-37.101563-10.230468-10.230469-26.875-10.230469-37.101562 0-10.253906 10.25-10.257813 26.847657-.003906 37.101563 10.234374 10.230468 26.878906 10.226562 37.105468 0zm-18.550781-29.78125c9.976563 0 15 12.117187 7.941406 19.171875-7.058593 7.0625-19.179687 2.027343-19.179687-7.941407.003906-6.238281 5.050781-11.230468 11.238281-11.230468zm0 0"/><path d="m299.996094 426.398438c23.417968 0 34.960937-28.363282 18.550781-44.773438-10.230469-10.230469-26.875-10.230469-37.101563 0-16.476562 16.476562-4.757812 44.773438 18.550782 44.773438zm0-37.453126c10.03125 0 14.96875 12.148438 7.945312 19.171876-4.382812 4.382812-11.511718 4.378906-15.890625 0-7.054687-7.054688-2.035156-19.171876 7.945313-19.171876zm0 0"/><path d="m59.402344 410.933594h24.4375v24.4375c0 8.351562 6.792968 15.140625 15.144531 15.140625h23.953125c8.347656 0 15.140625-6.789063 15.140625-15.140625v-24.4375h24.4375c8.351563 0 15.144531-6.792969 15.144531-15.144532v-23.953124c0-8.351563-6.792968-15.144532-15.144531-15.144532h-24.4375v-24.4375c0-8.347656-6.792969-15.140625-15.140625-15.140625h-23.953125c-8.351563 0-15.144531 6.792969-15.144531 15.140625v24.4375h-24.4375c-8.351563 0-15.144532 6.792969-15.144532 15.144532v23.953124c0 8.351563 6.792969 15.144532 15.144532 15.144532zm63.675781 24.4375c0 .078125-.0625.140625-.144531.140625h-23.953125c-.078125 0-.140625-.0625-.140625-.140625v-27.246094c0-.046875.023437-.089844.0625-.117188l11.976562-8.175781c.023438-.019531.050782-.027343.078125-.027343.027344 0 .058594.007812.082031.027343l11.976563 8.175781c.039063.027344.0625.070313.0625.117188zm39.582031-63.535156v23.953124c0 .078126-.066406.144532-.144531.144532h-27.246094c-.046875 0-.089843-.027344-.117187-.066406l-8.175782-11.972657c-.035156-.050781-.035156-.113281 0-.164062l8.175782-11.972657c.027344-.042968.070312-.066406.117187-.066406h27.246094c.078125.003906.144531.066406.144531.144532zm-63.820312-39.582032c0-.078125.0625-.140625.144531-.140625h23.953125c.078125 0 .140625.0625.140625.140625v27.246094c0 .046875-.023437.089844-.0625.117188l-11.976563 8.175781c-.050781.035156-.113281.035156-.160156 0l-11.976562-8.175781c-.039063-.023438-.0625-.070313-.0625-.117188zm-39.582032 39.582032c0-.078126.066407-.140626.144532-.140626h27.246094c.046874 0 .089843.019532.117187.0625l8.175781 11.976563c.035156.046875.03125.109375 0 .160156l-8.175781 11.976563c-.027344.039062-.070313.0625-.117187.0625h-27.246094c-.078125 0-.144532-.0625-.144532-.144532zm0 0"/><path d="m166.324219 0h-125.425781c-22.277344 0-40.398438 18.125-40.398438 40.402344v431.195312c0 22.277344 18.121094 40.402344 40.398438 40.402344h285.855468c22.277344 0 40.398438-18.125 40.398438-40.402344 0-29.25 0-419.855468 0-431.195312.003906-22.277344-18.121094-40.402344-40.398438-40.402344h-125.425781c-4.144531 0-7.5 3.359375-7.5 7.5 0 4.144531 3.355469 7.5 7.5 7.5h125.425781c14.003906 0 25.398438 11.394531 25.398438 25.402344v238.75h-336.652344v-238.75c0-14.007813 11.394531-25.402344 25.398438-25.402344h125.425781c4.144531 0 7.5-3.355469 7.5-7.5 0-4.140625-3.355469-7.5-7.5-7.5zm185.828125 294.152344v177.445312c0 14.007813-11.394532 25.402344-25.398438 25.402344h-285.855468c-14.003907 0-25.398438-11.394531-25.398438-25.402344v-177.445312zm0 0"/><path d="m208.855469 157.019531h29.339843v29.339844c0 6.566406 5.34375 11.90625 11.90625 11.90625h32.4375c6.566407 0 11.90625-5.339844 11.90625-11.90625v-39.960937c0-4.144532-3.359374-7.503907-7.5-7.503907-4.144531 0-7.5 3.359375-7.5 7.503907v36.867187h-26.246093v-29.34375c0-6.5625-5.339844-11.902344-11.90625-11.902344h-29.339844v-26.246093h29.339844c6.566406 0 11.90625-5.339844 11.90625-11.90625v-29.339844h26.246093v36.867187c0 4.140625 3.355469 7.5 7.5 7.5 4.140626 0 7.5-3.359375 7.5-7.5v-39.964843c0-6.5625-5.339843-11.902344-11.90625-11.902344h-32.4375c-6.5625 0-11.90625 5.339844-11.90625 11.902344v29.34375h-29.339843c-6.566407 0-11.90625 5.339843-11.90625 11.902343v32.4375c0 6.566407 5.339843 11.90625 11.90625 11.90625zm0 0"/></svg>