<svg height="512pt" viewBox="-61 0 512 512" width="512pt" xmlns="http://www.w3.org/2000/svg"><path d="m330 121.769531v-91.769531h15c8.285156 0 15-6.714844 15-15s-6.714844-15-15-15h-300c-8.285156 0-15 6.714844-15 15s6.714844 15 15 15h15v91.769531c-34.195312 6.992188-60 37.308594-60 73.542969v241.625c0 41.390625 33.671875 75.0625 75.0625 75.0625h239.875c41.390625 0 75.0625-33.671875 75.0625-75.0625v-241.625c0-36.234375-25.804688-66.550781-60-73.542969zm-30-91.769531v90.25h-90v-30.125h15c8.285156 0 15-6.714844 15-15s-6.714844-15-15-15h-60c-8.285156 0-15 6.714844-15 15s6.714844 15 15 15h15v30.125h-90v-90.25zm60 406.9375c0 24.847656-20.214844 45.0625-45.0625 45.0625h-239.875c-24.847656 0-45.0625-20.214844-45.0625-45.0625v-241.625c0-24.847656 20.214844-45.0625 45.0625-45.0625h239.875c24.847656 0 45.0625 20.214844 45.0625 45.0625zm0 0"/><path d="m242.347656 248.246094c-4.566406-5.023438-11.941406-6.351563-17.976562-3.234375l-14.007813 7.234375v-24.183594c0-11.773438-13.304687-19.121094-23.207031-13.289062-3.148438 1.847656-77.039062 46.183593-77.039062 120.640624 0 45.714844 37.972656 82.902344 84.644531 82.902344 54.039062 0 94.777343-48.746094 83.164062-101.320312-4.074219-24.140625-16.039062-47.269532-35.578125-68.75zm-47.585937 140.070312c-30.128907 0-54.644531-23.730468-54.644531-52.902344 0-34.398437 22.332031-61.59375 40.246093-77.878906v19.335938c0 11.21875 11.902344 18.480468 21.878907 13.328125l25.261718-13.042969c11.339844 14.601562 18.355469 29.75 20.894532 45.148438.046874.292968.105468.585937.167968.875 7.859375 34.695312-19.535156 65.136718-53.804687 65.136718zm0 0"/></svg>