<svg id="Layer_35" enable-background="new 0 0 64 64" height="512" viewBox="0 0 64 64" width="512" xmlns="http://www.w3.org/2000/svg"><g fill="#f0bc5e"><path d="m59 14-2.683 5.367c-.209.416-.317.875-.317 1.341v.292c0 1.657 1.343 3 3 3 1.657 0 3-1.343 3-3v-.292c0-.466-.108-.925-.317-1.342z"/><path d="m59 30-2.683 5.367c-.209.416-.317.875-.317 1.341v.292c0 1.657 1.343 3 3 3 1.657 0 3-1.343 3-3v-.292c0-.466-.108-.925-.317-1.342z"/><path d="m45 50c-1.105 0-2 .895-2 2 0 1.105.895 2 2 2h1c1.105 0 2 .895 2 2 0 1.105-.895 2-2 2h-15c-1.105 0-2 .895-2 2 0 1.105.895 2 2 2h27c1.105 0 2-.895 2-2 0-1.105-.895-2-2-2h-4c-1.105 0-2-.895-2-2 0-1.105.895-2 2-2h6c1.105 0 2-.895 2-2 0-1.105-.895-2-2-2z"/></g><path d="m43.657 1c-1.336 0-2.592.521-3.536 1.465l-7.121 7.121-1-1-10.414 10.414h-2.586c-2.757 0-5 2.243-5 5v1.153l-2.601.433c-1.9.317-3.604 1.419-4.673 3.022l-.261.392h-5.465v18h5.586c1.316 1.29 3.054 2 4.899 2h2.515v14h10v-7c0-1.654 1.346-3 3-3h5c4.411 0 8-3.589 8-8v-21c0-2.324-1.594-4.282-3.745-4.841l3.159-3.159-1-1 6-6h15.586v-8zm-35.708 44.535-.535-.535h-4.414v-14h4.535l.855-1.282c.764-1.146 1.98-1.933 3.338-2.159l2.272-.379v.835c0 1.337.521 2.594 1.467 3.538.944.943 2.198 1.462 3.532 1.462h.007l9.995-.013h.002c.266 0 .516.104.704.292s.293.44.293.707c0 .551-.448.999-.999.999h-7.001-3v2h3c.552 0 1 .448 1 1s-.448 1-1 1h-3v2h3c.552 0 1 .448 1 1s-.448 1-1 1h-3v2h3c.552 0 1 .448 1 1s-.448 1-1 1h-3-7.515c-1.336 0-2.591-.521-3.536-1.465zm16.271-1.535c.48-.532.78-1.229.78-2s-.301-1.468-.78-2c.48-.532.78-1.229.78-2 0-.352-.072-.686-.184-1h4.185c1.653 0 2.999-1.346 2.999-2.999 0-.348-.069-.683-.182-1.001h1.182c.552 0 1 .448 1 1v10c0 1.654-1.346 3-3 3h-6.184c.112-.314.184-.648.184-1 0-.771-.301-1.468-.78-2zm9.78-25.414v2.414h1c1.654 0 3 1.346 3 3v21c0 3.309-2.691 6-6 6h-5c-2.757 0-5 2.243-5 5v5h-6v-12h3 3 9c2.757 0 5-2.243 5-5v-10c0-1.654-1.346-3-3-3h-4v.003c-.001 0-.001 0-.002 0l-9.994.013c-.002 0-.003 0-.005 0-.8 0-1.553-.312-2.119-.877-.568-.568-.88-1.322-.88-2.123v-4.016c0-1.654 1.346-3 3-3h3.414l9.586-9.586 4.586 4.586zm24-11.586h-13.586c-.526 0-1.042.214-1.414.586l-6 6-2.586-2.586 7.121-7.121c.567-.567 1.32-.879 2.122-.879h14.343z"/><path d="m18 27h2v2h-2z"/><path d="m18 23h2v2h-2z"/><path d="m33 28h-8c-1.105 0-2-.895-2-2 0-1.105.895-2 2-2h8c1.105 0 2 .895 2 2 0 1.105-.895 2-2 2z" fill="#f0bc5e"/></svg>