<svg height="512" viewBox="0 0 64 64" width="512" xmlns="http://www.w3.org/2000/svg"><g id="outline"><path d="m45 8a1 1 0 0 0 1-1v-2a1 1 0 0 0 -.8-.98l-10-2a.925.925 0 0 0 -.2-.02h-8a1 1 0 0 0 -1 1v4a1 1 0 0 0 1 1h1v4.184a3 3 0 0 0 -2 2.816v9.08a7 7 0 0 0 -6 6.92v28a3 3 0 0 0 3 3h18a3 3 0 0 0 3-3v-28a7 7 0 0 0 -6-6.92v-9.08a3 3 0 0 0 -2-2.816v-4.184zm-17-4h6.9l9.1 1.82v.18h-16zm0 11a1 1 0 0 1 1-1h6a1 1 0 0 1 1 1v9h-8zm14 23v12h-20v-12h6v-1a4 4 0 0 1 8 0v1zm0 21a1 1 0 0 1 -1 1h-18a1 1 0 0 1 -1-1v-7h20zm0-28v5h-4.083a6 6 0 0 0 -11.834 0h-4.083v-5a5.006 5.006 0 0 1 5-5h10a5.006 5.006 0 0 1 5 5zm-8-19h-4v-4h4z"/><path d="m40 57v-3h-2v2h-2v2h3a1 1 0 0 0 1-1z"/><path d="m32 56h2v2h-2z"/><path d="m24 31v1h2v-1a1 1 0 0 1 1-1h2v-2h-2a3 3 0 0 0 -3 3z"/><path d="m31.256 37.332c-.544.606-3.256 3.727-3.256 5.668a4 4 0 0 0 8 0c0-1.941-2.712-5.062-3.256-5.668a1.031 1.031 0 0 0 -1.488 0zm.744 7.668a2 2 0 0 1 -2-2c0-.637.939-2.125 2-3.451 1.062 1.332 2 2.831 2 3.451a2 2 0 0 1 -2 2z"/></g></svg>