<?xml version="1.0" encoding="iso-8859-1"?>
<!-- Generator: Adobe Illustrator 19.0.0, SVG Export Plug-In . SVG Version: 6.00 Build 0)  -->
<svg version="1.1" id="Layer_1" xmlns="http://www.w3.org/2000/svg" xmlns:xlink="http://www.w3.org/1999/xlink" x="0px" y="0px"
	 viewBox="0 0 512 512" style="enable-background:new 0 0 512 512;" xml:space="preserve">
<g>
	<g>
		<path d="M373.946,123.327c2.664-2.53,3.797-6.428,2.436-9.84c-1.361-3.411-4.385-5.65-8.059-5.65h-78.704l59.357-93.982
			c2.648-4.193,1.397-9.738-2.797-12.386c-4.196-2.653-9.74-1.398-12.386,2.797l-65.414,103.571H9.136
			c-3.674,0-6.978,2.238-8.339,5.65c-1.362,3.412-1.07,7.31,1.594,9.84l176.237,167.96v158.1
			c-40.409,2.891-71.276,25.371-71.276,53.556c0,4.959,4.582,8.98,9.541,8.98h143.675c4.959,0,8.418-4.021,8.418-8.98
			c0-28.185-29.745-50.664-72.399-53.556v-158.1L373.946,123.327z M278.276,125.796h67.556l-47.474,45.1
			c-0.605-0.128-1.23-0.202-1.872-0.202h-46.567L278.276,125.796z M79.101,170.896l-47.474-45.1h225.408l-28.355,44.898H80.973
			C80.331,170.694,79.706,170.768,79.101,170.896z M249.509,493.963H127.95c7.184-15.291,32.111-26.939,60.779-26.939
			S242.324,478.671,249.509,493.963z M188.729,275.044l-90.937-86.39h135.811c0.004,0,0.011,0,0.015,0c0.007,0,0.011,0,0.018,0
			h46.03L188.729,275.044z"/>
	</g>
</g>
<g>
	<g>
		<path d="M424.117,266.842c-10.505-10.506-27.618-10.481-38.146,0.046l-12.411,12.411c-0.94,0.432-1.833,1.008-2.607,1.782
			c-0.774,0.774-1.348,1.666-1.782,2.604L240.025,412.834c-10.53,10.528-10.552,27.639-0.051,38.144c0,0,0.002,0,0.002,0.002
			c5.244,5.242,12.134,7.862,19.032,7.862c6.917,0,13.84-2.637,19.112-7.91l145.948-145.948
			C434.598,294.457,434.618,277.346,424.117,266.842z M265.423,438.234c-3.589,3.58-9.186,3.604-12.748,0.046
			c-3.499-3.503-3.477-9.221,0.048-12.748L377.714,300.54l11.198,11.198c0.519,0.522,1.098,0.938,1.701,1.305L265.423,438.234z
			 M411.371,292.286l-8.456,8.456c-0.366-0.603-0.785-1.182-1.305-1.701l-11.198-11.198l8.256-8.254
			c3.584-3.586,9.186-3.608,12.748-0.048C414.918,283.041,414.896,288.759,411.371,292.286z"/>
	</g>
</g>
<g>
	<g>
		<path d="M484.598,149.895c-1.567-4.706-6.664-7.243-11.358-5.679c-33.08,11.027-33.08,26.065-33.08,62.397
			c0,8.699-1.848,14.854-5.202,17.33c-3.788,2.793-9.742,1.137-9.999,1.063c-4.678-1.508-9.719,1.028-11.277,5.705
			c-1.568,4.706,0.975,9.791,5.68,11.359c0.765,0.254,4.687,1.471,9.848,1.471c4.832,0,10.751-1.065,16.184-4.982
			c8.445-6.086,12.726-16.835,12.726-31.947c0-35.524,0-38.427,20.798-45.359C483.622,159.686,486.166,154.601,484.598,149.895z"/>
	</g>
</g>
<g>
	<g>
		<path d="M511.537,176.834c-1.57-4.705-6.669-7.241-11.358-5.679c-33.08,11.027-33.08,26.065-33.08,62.397
			c0,8.699-1.848,14.855-5.202,17.33c-3.788,2.797-9.742,1.14-9.999,1.063c-4.678-1.508-9.719,1.028-11.277,5.707
			c-1.568,4.705,0.975,9.789,5.68,11.358c0.765,0.254,4.687,1.471,9.848,1.471c4.832,0,10.751-1.065,16.184-4.981
			c8.445-6.088,12.726-16.837,12.726-31.948c0-35.524,0-38.427,20.798-45.359C510.561,186.625,513.105,181.54,511.537,176.834z"/>
	</g>
</g>
<g>
</g>
<g>
</g>
<g>
</g>
<g>
</g>
<g>
</g>
<g>
</g>
<g>
</g>
<g>
</g>
<g>
</g>
<g>
</g>
<g>
</g>
<g>
</g>
<g>
</g>
<g>
</g>
<g>
</g>
</svg>
