<svg id="Capa_1" enable-background="new 0 0 506.316 506.316" height="512" viewBox="0 0 506.316 506.316" width="512" xmlns="http://www.w3.org/2000/svg"><path d="m295.008 164.155v-31.264c0-5.523-4.477-10-10-10h-31.943v-35.445h201.69c12.84 0 12.859-20 0-20h-422.791c-12.84 0-12.859 20 0 20h201.101v35.445h-31.943c-5.523 0-10 4.477-10 10v31.264c-38.189-.243-75.528 11.322-106.316 34.085-28.06 20.746-49.059 49.008-60.729 81.731-6.702 18.792-10.1 38.504-10.1 58.589 0 31.083 24.148 56.616 54.667 58.866v21.443c-19.43.207-37.957-6.757-51.259-21.244-8.683-9.458-23.43 4.054-14.732 13.525 16.173 17.616 39.165 27.719 63.08 27.719h218.277c12.84 0 12.859-20 0-20h-55.888v-21.326c52.102-1.757 93.949-44.682 93.949-97.205v-56.088h5.875c12.84 0 12.859-20 0-20h-5.875v-40.095h114.15 49.316c-4.123 22.771-24.094 40.095-48.035 40.095h-29.728c-12.84 0-12.859 20 0 20h29.728c37.945 0 68.815-30.87 68.815-68.815 0-8.625 0-17.249 0-25.874 0-21.729-17.678-39.407-39.408-39.407-21.902-.355-40.688 17.247-40.688 39.407v14.593h-131.213zm-83.887-21.264h63.887v21.264h-63.887zm-114.426 71.431c23.228-17.173 50.428-27.346 79.099-29.654 1.461 6.4 2.205 12.968 2.205 19.534 0 48.255-39.258 87.514-87.513 87.514-15.706 0-31.28-4.256-44.764-12.314 10.724-25.88 28.228-48.264 50.973-65.08zm-8.052 204.548v-21.264h119.478v21.264zm213.427-234.715v50.095 66.088c0 42.605-34.662 77.268-77.268 77.268h-151.779c-21.53 0-39.046-17.517-39.046-39.047 0-13.551 1.745-26.907 5.198-39.853 15.679 8.547 33.46 13.01 51.311 13.01 50.947 0 93.73-35.619 104.755-83.263 3.351-14.483 3.647-29.69.886-44.299h105.943zm144.151-20v-14.593c0-10.701 8.706-19.407 19.408-19.407h1.28c10.702 0 19.408 8.706 19.408 19.407v14.593z"/><path d="m247.392 194.203c-19.722 0-35.767 16.045-35.767 35.767s16.045 35.767 35.767 35.767 35.767-16.045 35.767-35.767-16.045-35.767-35.767-35.767zm0 51.533c-8.694 0-15.767-7.073-15.767-15.767s7.073-15.767 15.767-15.767 15.767 7.073 15.767 15.767-7.073 15.767-15.767 15.767z"/><path d="m86.857 348.839c-2.093-5.027-8.02-7.502-13.06-5.41-5.031 2.088-7.502 8.022-5.41 13.06 2.088 5.027 8.026 7.5 13.06 5.41 5.019-2.084 7.506-8.032 5.41-13.06z"/><path d="m119.976 348.839c-2.094-5.032-8.015-7.499-13.06-5.41-5.023 2.079-7.495 8.039-5.4 13.06 2.099 5.028 8.007 7.493 13.05 5.41 5.029-2.077 7.505-8.036 5.41-13.06z"/><path d="m377.487 230.428c-2.067-5.043-8.026-7.485-13.05-5.41-5.038 2.081-7.494 8.026-5.41 13.06 2.085 5.033 8.026 7.494 13.06 5.41 5.024-2.079 7.49-8.042 5.4-13.06z"/></svg>