<svg id="Layer_1" enable-background="new 0 0 512 512" height="512" viewBox="0 0 512 512" width="512" xmlns="http://www.w3.org/2000/svg"><path d="m476.122 340.313c-7.016-33.845-37.06-59.361-72.955-59.361-41.082 0-74.504 33.422-74.504 74.504 0 22.055 9.641 41.893 24.92 55.547 7.088 34.582 37.335 59.407 72.947 59.407 41.085 0 74.51-33.425 74.51-74.51 0-21.338-9.051-41.438-24.918-55.587zm-132.459 15.143c0-32.811 26.693-59.504 59.504-59.504 32.812 0 59.505 26.693 59.505 59.504s-26.693 59.504-59.505 59.504c-32.811 0-59.504-26.693-59.504-59.504zm82.867 99.954c-22.547 0-42.398-12.461-52.481-31.38 8.95 3.815 18.791 5.93 29.118 5.93 38.007 0 69.437-28.614 73.932-65.427 5.785 9.306 8.941 20.12 8.941 31.367 0 32.814-26.696 59.51-59.51 59.51z"/><path d="m438.58 80.923c-2.904-2.955-7.652-2.996-10.606-.093s-2.996 7.652-.093 10.606c38.951 39.642 62.61 90.458 67.957 145.075-14.172-13.517-33.164-21.342-53.458-21.342-21.099 0-40.788 8.461-55.12 22.974-2.57-59.157-15.365-114.188-36.693-156.844-12.148-24.297-26.407-43.232-42.041-56.245 35.566 7.848 68.801 23.731 97.958 47.061 3.233 2.587 7.953 2.063 10.542-1.17 2.588-3.234 2.063-7.954-1.171-10.542-22.22-17.779-47.01-31.628-73.683-41.162-27.604-9.868-56.597-14.871-86.172-14.871-68.379 0-132.666 26.629-181.019 74.982-48.352 48.352-74.981 112.639-74.981 181.018 0 3.455 2.36 6.463 5.716 7.285 3.358.821 6.839-.755 8.436-3.819 10.818-20.766 32.076-33.666 55.478-33.666 23.396 0 44.65 12.9 55.469 33.665 1.292 2.479 3.855 4.035 6.651 4.035s5.359-1.555 6.651-4.035c10.818-20.765 32.076-33.665 55.479-33.665 14.671 0 28.499 5.074 39.44 13.978v205.192c0 7.13-5.796 12.93-12.92 12.93-3.459 0-6.713-1.346-9.157-3.783-1.995-1.995-3.294-4.601-3.659-7.34-1.656-12.396-13.08-21.136-25.478-19.481-12.396 1.656-21.136 13.089-19.48 25.487 1.677 12.556 7.555 24.425 16.56 33.429 11.027 10.994 25.665 17.048 41.215 17.048 32.136 0 58.279-26.149 58.279-58.29v-205.191c10.943-8.905 24.774-13.979 39.45-13.979 23.396 0 44.65 12.9 55.469 33.665 1.292 2.479 3.855 4.035 6.651 4.035s5.359-1.555 6.651-4.035c10.818-20.765 32.076-33.665 55.479-33.665 23.396 0 44.65 12.9 55.469 33.665 1.313 2.521 3.903 4.035 6.65 4.035.591 0 1.19-.07 1.785-.216 3.355-.822 5.716-3.83 5.716-7.285 0-67.532-26.074-131.261-73.42-179.446zm-368.95 134.247c-20.3 0-39.298 7.828-53.472 21.347 5.404-55.362 29.581-106.709 69.43-146.558 32.86-32.86 73.54-55.057 117.841-64.865-15.616 13.012-29.859 31.933-41.995 56.206-21.328 42.656-34.123 97.688-36.693 156.844-14.331-14.513-34.016-22.974-55.111-22.974zm70.165 21.948c2.637-56.428 14.849-108.696 35.055-149.11 20.291-40.582 46.205-64.431 73.649-68.119v217.758c-14.287-14.211-33.766-22.477-54.62-22.477-20.595 0-39.846 8.064-54.084 21.948zm80.605 255.512c-11.553 0-22.429-4.5-30.617-12.663-6.682-6.681-11.046-15.489-12.29-24.799-.561-4.2 2.4-8.073 6.6-8.634 4.188-.562 8.063 2.4 8.623 6.595.796 5.983 3.609 11.653 7.928 15.971 5.282 5.269 12.298 8.17 19.757 8.17 15.396 0 27.92-12.53 27.92-27.93v-187.398c.352.624.696 1.255 1.028 1.894 1.292 2.479 3.855 4.035 6.651 4.035s5.359-1.555 6.651-4.035c.333-.639.676-1.27 1.028-1.894v187.398c.001 23.87-19.414 43.29-43.279 43.29zm97.73-277.46c-20.859 0-40.341 8.266-54.63 22.477v-217.758c27.444 3.688 53.359 27.538 73.649 68.119 20.207 40.413 32.418 92.681 35.055 149.109-14.235-13.883-33.482-21.947-54.074-21.947z"/><path d="m106.05 306.36c-41.085 0-74.51 33.425-74.51 74.51 0 15.984 4.992 31.224 14.437 44.072 2.453 3.338 7.147 4.054 10.485 1.601 3.337-2.453 4.054-7.147 1.601-10.485-7.538-10.255-11.522-22.423-11.522-35.188 0-32.814 26.696-59.51 59.51-59.51 32.809 0 59.5 26.696 59.5 59.51 0 32.808-26.691 59.5-59.5 59.5-9.708 0-19.321-2.38-27.802-6.884-3.658-1.942-8.198-.552-10.142 3.106-1.942 3.658-.552 8.199 3.106 10.142 10.639 5.65 22.686 8.636 34.837 8.636 41.079 0 74.5-33.421 74.5-74.5 0-41.085-33.421-74.51-74.5-74.51z"/><path d="m412.67 348.919c-1.136-.402-2.294-.819-3.452-1.249v-20.727c1.753.663 2.972 1.492 3.546 1.938 2.837 2.202 6.919 1.687 9.12-1.147 2.202-2.835 1.688-6.919-1.147-9.121-1.57-1.219-5.634-3.97-11.519-5.129v-3.61c0-3.59-2.91-6.5-6.5-6.5s-6.5 2.91-6.5 6.5v4.064c-.404.105-.812.219-1.224.343-7.714 2.324-13.475 8.909-15.035 17.186-1.431 7.595 1.035 14.945 6.436 19.18 2.551 2.001 5.661 3.836 9.823 5.743v27.525c-2.953-.413-5.157-1.412-8.683-3.719-3.004-1.965-7.033-1.123-8.998 1.881s-1.123 7.032 1.881 8.998c6.18 4.043 10.539 5.462 15.8 5.915v4.05c0 3.59 2.91 6.5 6.5 6.5s6.5-2.91 6.5-6.5v-4.673c10.821-2.74 17.756-11.982 19.287-21.093 1.97-11.72-4.394-22.311-15.835-26.355zm-18.252-8.502c-1.544-1.21-2.204-3.779-1.684-6.544.378-2.008 1.485-4.32 3.483-5.846v13.656c-.647-.415-1.252-.836-1.799-1.266zm21.267 32.701c-.595 3.538-2.79 7.259-6.467 9.357v-20.941c7.054 2.971 6.895 9.036 6.467 11.584z"/><path d="m115.548 374.331c-1.136-.402-2.294-.819-3.452-1.249v-20.727c1.753.663 2.972 1.493 3.546 1.938 2.837 2.202 6.919 1.687 9.12-1.147 2.202-2.835 1.688-6.919-1.147-9.121-1.57-1.219-5.634-3.97-11.519-5.13v-3.61c0-3.59-2.91-6.5-6.5-6.5s-6.5 2.91-6.5 6.5v4.064c-.404.105-.812.218-1.223.342-7.715 2.324-13.476 8.909-15.035 17.187-1.432 7.595 1.034 14.944 6.435 19.18 2.551 2.001 5.661 3.835 9.823 5.742v27.523c-2.949-.413-5.16-1.413-8.683-3.717-3.005-1.965-7.033-1.124-8.998 1.881-1.965 3.004-1.123 7.032 1.881 8.998 6.18 4.043 10.539 5.462 15.8 5.915v4.05c0 3.59 2.91 6.5 6.5 6.5s6.5-2.91 6.5-6.5v-4.673c10.821-2.74 17.756-11.982 19.287-21.093 1.971-11.718-4.394-22.309-15.835-26.353zm-18.252-8.502c-1.544-1.21-2.204-3.779-1.684-6.543.378-2.008 1.484-4.32 3.483-5.846v13.655c-.647-.415-1.251-.837-1.799-1.266zm21.267 32.701c-.594 3.538-2.79 7.259-6.467 9.357v-20.941c7.054 2.971 6.895 9.036 6.467 11.584z"/></svg>