<svg id="_x33_0" enable-background="new 0 0 64 64" height="512" viewBox="0 0 64 64" width="512" xmlns="http://www.w3.org/2000/svg"><path d="m54.274 26.039c-6.588-1.882-10.456-6.617-10.494-6.665l-.781-.968-.779.968c-.038.048-3.906 4.782-10.494 6.665l-.726.207v8.754c0 8.153 5.589 11.513 11.629 13.929l.371.148.371-.148c6.04-2.416 11.629-5.776 11.629-13.929v-8.754zm-1.274 8.961c0 7.13-5.093 9.926-10 11.922-4.907-1.996-10-4.792-10-11.922v-7.259c5.104-1.644 8.544-4.734 10-6.246 1.456 1.511 4.896 4.602 10 6.246z"/><path d="m37.769 35.56-1.538 1.28 4.858 5.829 8.743-13.114-1.664-1.11-7.257 10.886z"/><path d="m18 39v10h7v-10zm5 2v2h-3v-2zm-3 6v-2h3v2z"/><path d="m9 49h7v-10h-7zm2-2v-2h3v2zm3-6v2h-3v-2z"/><path d="m61 53h-2v-28.182c.318.113.653.182 1 .182.801 0 1.555-.312 2.121-.879.567-.566.879-1.32.879-2.121s-.312-1.555-.876-2.118l-19.124-19.303-19.121 19.3c-.321.321-.55.706-.697 1.121h-11.631l-7.75 8.718c-.517.582-.801 1.33-.801 2.108 0 1.335.831 2.475 2 2.943v18.231h-2v4h-2v6h62v-6h-2zm-32 0v-29.748l14-13.846 14 13.846v29.748zm-3.704-31.71 17.704-17.869 17.707 17.872c.191.192.293.436.293.707s-.102.515-.293.707c-.383.383-1.027.387-1.418-.004l-16.289-16.109-16.293 16.113c-.383.383-1.031.383-1.414 0-.191-.192-.293-.436-.293-.707s.102-.515.296-.71zm-20 9.757 7.153-8.047h10.733c.147.416.376.8.697 1.121.814.815 2.063 1.032 3.121.677v8.202h-20.826c-.648 0-1.174-.526-1.174-1.174 0-.287.105-.564.296-.779zm1.704 3.953h20v18h-20zm-2 20h54v2h-54zm56 6h-58v-2h58z"/></svg>