<svg id="Capa_1" enable-background="new 0 0 510 510" height="512" viewBox="0 0 510 510" width="512" xmlns="http://www.w3.org/2000/svg"><path d="m478.618 94.21c8.371-9.974 13.425-22.821 13.425-36.831 0-31.64-25.74-57.38-57.38-57.38-31.639 0-57.379 25.74-57.379 57.38 0 14.009 5.053 26.855 13.424 36.829-19.428 12.604-31.378 34.425-31.378 57.691v24.101h-29v-24.1c0-23.282-11.955-45.105-31.379-57.688 8.372-9.974 13.426-22.822 13.426-36.832 0-31.64-25.74-57.38-57.379-57.38s-57.38 25.74-57.38 57.38c0 14.008 5.053 26.854 13.423 36.827-19.423 12.6-31.371 34.422-31.371 57.693v24.1h-29v-24.1c0-23.272-11.951-45.094-31.382-57.69 8.371-9.974 13.425-22.821 13.425-36.831 0-31.64-25.74-57.38-57.379-57.38s-57.38 25.74-57.38 57.38c0 14.009 5.053 26.855 13.424 36.829-19.427 12.605-31.378 34.426-31.378 57.692v343.1c0 8.284 6.716 15 15 15h480c8.284 0 15-6.716 15-15 0-9.436 0-333.7 0-343.1 0-23.272-11.952-45.094-31.382-57.69zm-43.955-64.21c15.098 0 27.38 12.282 27.38 27.38 0 15.097-12.282 27.379-27.38 27.379-15.097 0-27.379-12.282-27.379-27.379 0-15.098 12.282-27.38 27.379-27.38zm-45.333 121.9c0-13.696 7.347-26.51 19.169-33.437l10.211-5.979c10.118 2.934 21.121 3.127 31.906 0 3.253 1.905 1.675.981 10.224 5.988 11.818 6.922 19.16 19.73 19.16 33.427v24.101h-90.67zm-134.331-121.9c15.097 0 27.379 12.282 27.379 27.38 0 15.097-12.282 27.379-27.379 27.379s-27.38-12.282-27.38-27.379c0-15.098 12.282-27.38 27.38-27.38zm-45.329 121.9c0-13.7 7.343-26.513 19.159-33.437l10.213-5.979c10.166 2.948 21.165 3.115 31.904.002 4.457 2.61-2.014-1.18 10.227 5.989 11.816 6.916 19.157 19.724 19.157 33.425v24.1h-90.66zm-134.337-121.9c15.097 0 27.379 12.282 27.379 27.38 0 15.097-12.282 27.379-27.379 27.379s-27.38-12.282-27.38-27.379c.001-15.098 12.283-27.38 27.38-27.38zm-26.165 88.464 10.212-5.979c10.117 2.934 21.12 3.128 31.906 0 .134.078 4.073 2.386 10.223 5.988 11.819 6.922 19.161 19.73 19.161 33.427v24.1h-90.67v-24.1c0-13.696 7.347-26.508 19.168-33.436zm430.832 361.536h-450c0-12.514 0-265.878 0-274h450z"/><path d="m432.67 275.12c-12.566 0-22.79-10.224-22.79-22.79 0-8.284-6.716-15-15-15h-279.76c-8.284 0-15 6.716-15 15 0 12.566-10.224 22.79-22.79 22.79-8.284 0-15 6.716-15 15v105.76c0 8.284 6.716 15 15 15 12.566 0 22.79 10.224 22.79 22.79 0 8.284 6.716 15 15 15h279.76c8.284 0 15-6.716 15-15 0-12.566 10.224-22.79 22.79-22.79 8.284 0 15-6.716 15-15v-105.76c0-8.284-6.716-15-15-15zm-15 107.93c-17.067 5.067-30.553 18.553-35.62 35.62h-254.1c-5.067-17.067-18.552-30.553-35.62-35.62v-80.1c17.068-5.067 30.553-18.553 35.62-35.62h254.1c5.067 17.067 18.553 30.553 35.62 35.62z"/><path d="m147.333 317.405c-8.284 0-15 6.716-15 15v21.189c0 8.284 6.716 15 15 15s15-6.716 15-15v-21.189c0-8.284-6.715-15-15-15z"/><path d="m362.667 317.405c-8.284 0-15 6.716-15 15v21.189c0 8.284 6.716 15 15 15s15-6.716 15-15v-21.189c0-8.284-6.716-15-15-15z"/><path d="m255 298c-24.813 0-45 20.187-45 45s20.187 45 45 45 45-20.187 45-45-20.187-45-45-45zm0 60c-8.271 0-15-6.729-15-15s6.729-15 15-15 15 6.729 15 15-6.729 15-15 15z"/></svg>