<svg id="Capa_1" enable-background="new 0 0 512 512" height="512" viewBox="0 0 512 512" width="512" xmlns="http://www.w3.org/2000/svg"><path d="m271 497v-65.344c.354.007.711.011 1.066.011 30.419 0 55.167-24.748 55.167-55.167 0-30.42-24.748-55.167-55.167-55.167-.355 0-.712.003-1.066.01v-50.343c0-8.284-6.716-15-15-15s-15 6.716-15 15v68.685c0 5.06 2.552 9.78 6.786 12.551 4.235 2.771 9.581 3.221 14.219 1.194 3.185-1.392 6.57-2.097 10.061-2.097 13.877 0 25.167 11.29 25.167 25.167s-11.29 25.167-25.167 25.167c-3.491 0-6.876-.706-10.061-2.098-4.638-2.025-9.983-1.577-14.219 1.194-4.234 2.771-6.786 7.491-6.786 12.552v83.685c0 8.284 6.716 15 15 15s15-6.716 15-15z" fill="#1fbf66"/><path d="m15 271h65.344c-.008.354-.011.711-.011 1.066 0 30.419 24.747 55.167 55.167 55.167 30.42-.001 55.167-24.748 55.167-55.167 0-.355-.003-.713-.011-1.066h50.344c8.284 0 15-6.717 15-15 0-8.285-6.716-15-15-15h-68.685c-5.061 0-9.78 2.552-12.552 6.786-2.771 4.235-3.22 9.581-1.193 14.219 1.391 3.185 2.097 6.57 2.097 10.061 0 13.878-11.29 25.167-25.167 25.167s-25.167-11.289-25.167-25.167c0-3.491.706-6.876 2.097-10.061 2.026-4.638 1.578-9.983-1.193-14.219-2.771-4.234-7.491-6.786-12.552-6.786h-83.685c-8.284 0-15 6.716-15 15s6.716 15 15 15z" fill="#ff5b5b"/><path d="m241 15v65.343c-.355-.007-.711-.011-1.066-.011-30.419 0-55.167 24.748-55.167 55.168 0 30.419 24.748 55.166 55.167 55.166.355 0 .712-.003 1.066-.01v50.344c0 8.283 6.716 15 15 15s15-6.717 15-15v-68.686c0-5.061-2.552-9.779-6.786-12.551-4.235-2.771-9.581-3.221-14.219-1.194-3.186 1.392-6.57 2.097-10.061 2.097-13.877 0-25.167-11.289-25.167-25.166s11.29-25.168 25.167-25.168c3.491 0 6.876.706 10.061 2.098 4.638 2.025 9.983 1.577 14.219-1.194 4.234-2.771 6.786-7.491 6.786-12.552v-83.684c0-8.285-6.716-15-15-15s-15 6.715-15 15z" fill="#ffd400"/><path d="m497 241h-65.344c.008-.355.011-.711.011-1.066 0-30.419-24.747-55.167-55.167-55.167s-55.167 24.748-55.167 55.167c0 .355.003.712.011 1.066h-50.344c-8.284 0-15 6.716-15 15s6.716 15 15 15h68.685c5.06 0 9.78-2.552 12.552-6.786 2.772-4.235 3.22-9.581 1.193-14.219-1.391-3.186-2.097-6.57-2.097-10.062 0-13.877 11.29-25.167 25.167-25.167s25.167 11.29 25.167 25.167c0 3.491-.706 6.876-2.097 10.062-2.026 4.638-1.578 9.983 1.193 14.219 2.771 4.234 7.491 6.786 12.552 6.786h83.685c8.284 0 15-6.716 15-15s-6.716-15-15-15z" fill="#0065a3"/><path d="m497 241h-65.344c.008-.355.011-.711.011-1.066 0-30.419-24.747-55.167-55.167-55.167v30c13.877 0 25.167 11.29 25.167 25.167 0 3.491-.706 6.876-2.097 10.062-2.026 4.638-1.578 9.983 1.193 14.219 2.771 4.234 7.491 6.786 12.552 6.786h83.685c8.284 0 15-6.716 15-15 0-8.285-6.716-15.001-15-15.001z" fill="#005183"/><path d="m95.333 272.066c0 22.185 17.984 40.167 40.167 40.167s40.167-17.982 40.167-40.167c0-5.714-1.202-11.143-3.352-16.066h83.685v-83.685c-4.922 2.149-10.353 3.352-16.066 3.352-22.187 0-40.167-17.984-40.167-40.167s17.98-40.167 40.167-40.167c5.714 0 11.145 1.202 16.066 3.352v-98.685h-200.833c-30.419 0-55.167 24.748-55.167 55.167v200.833h98.685c-2.15 4.924-3.352 10.353-3.352 16.066z" fill="#ff5b5b"/><path d="m239.934 95.333c5.714 0 11.145 1.202 16.066 3.352v-98.685h-120.5v312.233c22.183 0 40.167-17.982 40.167-40.167 0-5.714-1.202-11.143-3.352-16.066h83.685v-83.685c-4.922 2.149-10.353 3.352-16.066 3.352-22.187 0-40.167-17.984-40.167-40.167s17.98-40.167 40.167-40.167z" fill="#ff0059"/><path d="m239.934 95.333c-22.187 0-40.167 17.984-40.167 40.167s17.98 40.167 40.167 40.167c5.714 0 11.145-1.202 16.066-3.352v83.685h83.685c-2.149-4.92-3.352-10.352-3.352-16.066 0-22.183 17.984-40.167 40.167-40.167s40.167 17.984 40.167 40.167c0 5.714-1.202 11.146-3.352 16.066h98.685v-200.833c0-30.419-24.748-55.167-55.167-55.167h-200.833v98.685c-4.922-2.15-10.353-3.352-16.066-3.352z" fill="#ffd400"/><path d="m456.833 0h-80.333v199.767c22.183 0 40.167 17.984 40.167 40.167 0 5.714-1.202 11.146-3.352 16.066h98.685v-200.833c0-30.419-24.748-55.167-55.167-55.167z" fill="#ff9f04"/><path d="m272.066 416.667c22.186 0 40.167-17.984 40.167-40.167s-17.981-40.167-40.167-40.167c-5.714 0-11.143 1.202-16.066 3.352v-83.685h-83.685c2.149 4.924 3.352 10.353 3.352 16.066 0 22.185-17.984 40.167-40.167 40.167s-40.167-17.982-40.167-40.167c0-5.714 1.202-11.143 3.352-16.066h-98.685v200.833c0 30.419 24.748 55.167 55.167 55.167h200.833v-98.685c4.924 2.15 10.352 3.352 16.066 3.352z" fill="#54e360"/><path d="m272.066 336.333c-5.714 0-11.143 1.202-16.066 3.352v-83.685h-83.685c2.149 4.924 3.352 10.353 3.352 16.066 0 22.185-17.984 40.167-40.167 40.167v199.767h120.5v-98.685c4.924 2.149 10.352 3.352 16.066 3.352 22.186 0 40.167-17.984 40.167-40.167s-17.98-40.167-40.167-40.167z" fill="#1fbf66"/><path d="m413.315 256c2.149-4.92 3.352-10.352 3.352-16.066 0-22.183-17.984-40.167-40.167-40.167s-40.167 17.984-40.167 40.167c0 5.714 1.202 11.146 3.352 16.066h-83.685v83.685c4.924-2.149 10.352-3.352 16.066-3.352 22.186 0 40.167 17.984 40.167 40.167s-17.981 40.167-40.167 40.167c-5.714 0-11.143-1.202-16.066-3.352v98.685h200.833c30.419 0 55.167-24.748 55.167-55.167v-200.833z" fill="#0065a3"/><path d="m413.315 256c2.149-4.92 3.352-10.352 3.352-16.066 0-22.183-17.984-40.167-40.167-40.167v312.233h80.333c30.419 0 55.167-24.748 55.167-55.167v-200.833z" fill="#005183"/></svg>