<?xml version="1.0" encoding="iso-8859-1"?>
<!-- Generator: Adobe Illustrator 17.1.0, SVG Export Plug-In . SVG Version: 6.00 Build 0)  -->
<!DOCTYPE svg PUBLIC "-//W3C//DTD SVG 1.1//EN" "http://www.w3.org/Graphics/SVG/1.1/DTD/svg11.dtd">
<svg version="1.1" id="Capa_1" xmlns="http://www.w3.org/2000/svg" xmlns:xlink="http://www.w3.org/1999/xlink" x="0px" y="0px"
	 viewBox="0 0 207.035 207.035" style="enable-background:new 0 0 207.035 207.035;" xml:space="preserve">
<path d="M165.469,177.713H22.077c-0.668,0-1.308-0.267-1.777-0.742c-0.469-0.475-0.729-1.117-0.723-1.785
	c0.002-0.161,0.119-16.182-3.979-28.222c-4.12-12.102-15.021-27.41-15.132-27.563c-0.545-0.762-0.618-1.765-0.19-2.598
	c0.429-0.833,1.287-1.357,2.224-1.357h14.173l2.732-15.448c0.903-5.107,5.323-8.814,10.511-8.814h10.153l4.974-19.554
	c0.282-1.108,1.279-1.884,2.423-1.884h33.527v-5.769c0-1.381,1.119-2.5,2.5-2.5h16.971l1.99-29.822
	c0.087-1.313,1.178-2.333,2.494-2.333h12.157c1.333,0,2.432,1.045,2.497,2.377l2.028,41.11h9.421c1.381,0,2.5,1.119,2.5,2.5v15.875
	h11.804c0.803,0,1.557,0.386,2.026,1.036l16.773,23.227h40.38c1.076,0,2.032,0.689,2.372,1.711c0.34,1.021-0.013,2.146-0.874,2.791
	c-0.158,0.118-15.847,11.945-24.783,25.863c-8.983,13.994-13.324,29.893-13.367,30.052
	C167.589,176.955,166.599,177.713,165.469,177.713z M24.55,172.713h139.043c1.442-4.736,5.787-17.666,13.45-29.603
	c6.075-9.462,14.828-17.795,20.47-22.664H7.23c3.646,5.524,10.022,15.864,13.101,24.907
	C23.746,155.384,24.421,167.525,24.55,172.713z M21.751,115.447h136.237l-2.162-2.993H42.013c-1.381,0-2.5-1.119-2.5-2.5v-8.046
	c0-1.381,1.119-2.5,2.5-2.5h104.393l-2.328-3.224H29.916c-2.757,0-5.107,1.971-5.587,4.686L21.751,115.447z M44.513,107.454h107.703
	l-2.212-3.063c-0.096,0.011-0.194,0.017-0.293,0.017H44.513V107.454z M99.76,91.184h28.792V77.809H99.76V91.184z M45.228,91.184
	H94.76V75.309c0-1.381,1.119-2.5,2.5-2.5h19.365l-1.899-38.487h-7.438l-1.99,29.822c-0.087,1.313-1.178,2.333-2.494,2.333h-16.81
	v5.769c0,1.381-1.119,2.5-2.5,2.5H49.409L45.228,91.184z M151.781,157.644c-1.381,0-2.5-1.119-2.5-2.5v-3.755
	c0-1.381,1.119-2.5,2.5-2.5s2.5,1.119,2.5,2.5v3.755C154.281,156.525,153.162,157.644,151.781,157.644z M135.265,157.644
	c-1.381,0-2.5-1.119-2.5-2.5v-3.755c0-1.381,1.119-2.5,2.5-2.5s2.5,1.119,2.5,2.5v3.755
	C137.765,156.525,136.646,157.644,135.265,157.644z M118.749,157.644c-1.381,0-2.5-1.119-2.5-2.5v-3.755c0-1.381,1.119-2.5,2.5-2.5
	s2.5,1.119,2.5,2.5v3.755C121.249,156.525,120.13,157.644,118.749,157.644z M102.233,157.644c-1.381,0-2.5-1.119-2.5-2.5v-3.755
	c0-1.381,1.119-2.5,2.5-2.5s2.5,1.119,2.5,2.5v3.755C104.733,156.525,103.614,157.644,102.233,157.644z M85.718,157.644
	c-1.381,0-2.5-1.119-2.5-2.5v-3.755c0-1.381,1.119-2.5,2.5-2.5s2.5,1.119,2.5,2.5v3.755
	C88.218,156.525,87.098,157.644,85.718,157.644z M69.201,157.644c-1.381,0-2.5-1.119-2.5-2.5v-3.755c0-1.381,1.119-2.5,2.5-2.5
	s2.5,1.119,2.5,2.5v3.755C71.701,156.525,70.582,157.644,69.201,157.644z M52.685,157.644c-1.381,0-2.5-1.119-2.5-2.5v-3.755
	c0-1.381,1.119-2.5,2.5-2.5s2.5,1.119,2.5,2.5v3.755C55.185,156.525,54.066,157.644,52.685,157.644z M36.169,157.644
	c-1.381,0-2.5-1.119-2.5-2.5v-3.755c0-1.381,1.119-2.5,2.5-2.5s2.5,1.119,2.5,2.5v3.755
	C38.669,156.525,37.55,157.644,36.169,157.644z M164.575,138.2c-1.381,0-2.5-1.119-2.5-2.5v-3.754c0-1.381,1.119-2.5,2.5-2.5
	s2.5,1.119,2.5,2.5v3.754C167.075,137.081,165.956,138.2,164.575,138.2z M148.059,138.2c-1.381,0-2.5-1.119-2.5-2.5v-3.754
	c0-1.381,1.119-2.5,2.5-2.5s2.5,1.119,2.5,2.5v3.754C150.559,137.081,149.44,138.2,148.059,138.2z M131.543,138.2
	c-1.381,0-2.5-1.119-2.5-2.5v-3.754c0-1.381,1.119-2.5,2.5-2.5s2.5,1.119,2.5,2.5v3.754
	C134.043,137.081,132.924,138.2,131.543,138.2z M115.027,138.2c-1.381,0-2.5-1.119-2.5-2.5v-3.754c0-1.381,1.119-2.5,2.5-2.5
	s2.5,1.119,2.5,2.5v3.754C117.527,137.081,116.408,138.2,115.027,138.2z M98.512,138.2c-1.381,0-2.5-1.119-2.5-2.5v-3.754
	c0-1.381,1.119-2.5,2.5-2.5s2.5,1.119,2.5,2.5v3.754C101.012,137.081,99.892,138.2,98.512,138.2z M81.995,138.2
	c-1.381,0-2.5-1.119-2.5-2.5v-3.754c0-1.381,1.119-2.5,2.5-2.5s2.5,1.119,2.5,2.5v3.754C84.495,137.081,83.376,138.2,81.995,138.2z
	 M65.479,138.2c-1.381,0-2.5-1.119-2.5-2.5v-3.754c0-1.381,1.119-2.5,2.5-2.5s2.5,1.119,2.5,2.5v3.754
	C67.979,137.081,66.86,138.2,65.479,138.2z M48.964,138.2c-1.381,0-2.5-1.119-2.5-2.5v-3.754c0-1.381,1.119-2.5,2.5-2.5
	s2.5,1.119,2.5,2.5v3.754C51.464,137.081,50.345,138.2,48.964,138.2z M32.447,138.2c-1.381,0-2.5-1.119-2.5-2.5v-3.754
	c0-1.381,1.119-2.5,2.5-2.5s2.5,1.119,2.5,2.5v3.754C34.947,137.081,33.828,138.2,32.447,138.2z"/>
<g>
</g>
<g>
</g>
<g>
</g>
<g>
</g>
<g>
</g>
<g>
</g>
<g>
</g>
<g>
</g>
<g>
</g>
<g>
</g>
<g>
</g>
<g>
</g>
<g>
</g>
<g>
</g>
<g>
</g>
</svg>
