<?xml version="1.0" encoding="iso-8859-1"?>
<!-- Generator: Adobe Illustrator 18.1.1, SVG Export Plug-In . SVG Version: 6.00 Build 0)  -->
<svg version="1.1" id="Capa_1" xmlns="http://www.w3.org/2000/svg" xmlns:xlink="http://www.w3.org/1999/xlink" x="0px" y="0px"
	 viewBox="0 0 464.033 464.033" style="enable-background:new 0 0 464.033 464.033;" xml:space="preserve">
<g>
	<g>
		<path style="fill:#010002;" d="M425.27,366.334c-0.878-19.257-17.078-37.57-17.078-37.57c-5.202-23.874-6.885-32.214-6.885-32.214
			l41.374-103.404c-8.242-15.363-33.173-17.639-33.173-17.639l-108.923,20.354l-5.739-59.379c-5.739-9.909-9.38-8.234-9.38-8.234
			l-10.453,65.801c-15.769-21.061-31.815-19.11-31.815-19.11c-23.118-3.113-29.954,22.224-29.954,22.224
			s-10.364-55.055-10.876-62.444c-0.512-7.389-15.2-6.917-15.2-6.917l4.747,72.71L12.851,166.989
			c-27.515,6.869-2.284,35.611-2.284,35.611l203.157,94.129c0,0,91.26,58.916,101.68,60.574c10.421,1.658,20.899-0.618,20.899-0.618
			c34.985,52.218,105.647,102.802,116.986,105.728c11.339,2.926,10.738-3.918,10.738-3.918
			C461.133,413.073,425.27,366.334,425.27,366.334z"/>
		<path style="fill:#010002;" d="M135.99,7.262c-3.211-5.918-10.624-8.104-16.534-4.885c-5.918,3.219-8.104,10.624-4.885,16.534
			l50.129,92.129c2.203,4.064,6.397,6.365,10.713,6.365c1.967,0,3.967-0.48,5.82-1.488c5.918-3.219,8.104-10.624,4.885-16.534
			L135.99,7.262z"/>
		<path style="fill:#010002;" d="M237.866,111.048c2.203,4.064,6.397,6.365,10.713,6.365c1.967,0,3.967-0.48,5.82-1.488
			c5.918-3.219,8.104-10.624,4.885-16.534L209.148,7.262c-3.211-5.918-10.624-8.104-16.534-4.885
			c-5.918,3.219-8.104,10.624-4.885,16.534L237.866,111.048z"/>
	</g>
</g>
<g>
</g>
<g>
</g>
<g>
</g>
<g>
</g>
<g>
</g>
<g>
</g>
<g>
</g>
<g>
</g>
<g>
</g>
<g>
</g>
<g>
</g>
<g>
</g>
<g>
</g>
<g>
</g>
<g>
</g>
</svg>
