<svg id="Layer_3" enable-background="new 0 0 64 64" height="512" viewBox="0 0 64 64" width="512" xmlns="http://www.w3.org/2000/svg"><path d="m10 57h4v2h-4z"/><path d="m19 51v-16h-14v16zm-12-14h10v12h-10z"/><path d="m50.302 37h9.698c1.654 0 3-1.346 3-3v-30c0-1.654-1.346-3-3-3h-16c-1.654 0-3 1.346-3 3v11.278c-2.758-1.489-5.833-2.278-9-2.278-3.574 0-6.929.988-9.805 2.716l-2.891-4.818c.428-.519.696-1.175.696-1.898 0-1.654-1.346-3-3-3s-3 1.346-3 3 1.346 3 3 3c.204 0 .404-.021.597-.06l2.938 4.896c-.432.327-.849.671-1.252 1.033l-9.116-9.116c.524-.79.833-1.736.833-2.753 0-2.757-2.243-5-5-5s-5 2.243-5 5 2.243 5 5 5c1.017 0 1.962-.309 2.753-.833l9.11 9.109c-.389.434-.754.892-1.103 1.363l-5.807-3.167c.024-.155.047-.311.047-.472 0-1.654-1.346-3-3-3s-3 1.346-3 3 1.346 3 3 3c.768 0 1.461-.298 1.993-.774l5.668 3.092c-.845 1.439-1.508 3.008-1.962 4.682h-9.699c-1.654 0-3 1.346-3 3v30c0 1.654 1.346 3 3 3h16c1.654 0 3-1.346 3-3v-11.278c2.758 1.489 5.833 2.278 9 2.278 3.574 0 6.929-.988 9.805-2.716l2.891 4.818c-.428.519-.696 1.175-.696 1.898 0 1.654 1.346 3 3 3s3-1.346 3-3-1.346-3-3-3c-.204 0-.404.021-.597.06l-2.938-4.896c.432-.327.85-.671 1.252-1.033l9.116 9.116c-.524.79-.833 1.736-.833 2.753 0 2.757 2.243 5 5 5s5-2.243 5-5-2.243-5-5-5c-1.017 0-1.962.309-2.753.833l-9.11-9.109c.389-.434.754-.892 1.103-1.363l5.807 3.167c-.024.155-.047.311-.047.472 0 1.654 1.346 3 3 3s3-1.346 3-3-1.346-3-3-3c-.768 0-1.461.298-1.993.774l-5.668-3.092c.845-1.438 1.508-3.007 1.963-4.682zm-34.302-28c0-.551.448-1 1-1s1 .449 1 1-.448 1-1 1-1-.449-1-1zm-8 9c-.552 0-1-.449-1-1s.448-1 1-1 1 .449 1 1-.448 1-1 1zm40 37c0 .551-.448 1-1 1s-1-.449-1-1 .448-1 1-1 1 .449 1 1zm8-9c.552 0 1 .449 1 1s-.448 1-1 1-1-.449-1-1 .448-1 1-1zm4-11h-16c-.552 0-1-.449-1-1v-5h18v5c0 .551-.448 1-1 1zm-37.351-12h8.351c.552 0 1 .449 1 1s-.448 1-1 1h-3c-1.654 0-3 1.346-3 3s1.346 3 3 3h1c.552 0 1 .449 1 1s-.448 1-1 1h-6v-3c0-1.649-1.338-2.991-2.986-2.999.63-1.503 1.528-2.857 2.635-4.001zm-1.649 30h-18v-20h18zm2-18h6c1.654 0 3-1.346 3-3s-1.346-3-3-3h-1c-.552 0-1-.449-1-1s.448-1 1-1h3c1.654 0 3-1.346 3-3s-1.346-3-3-3h-5.889c2.025-1.273 4.401-2 6.889-2 3.389 0 6.564 1.299 9 3.647v6.353h-4c-1.654 0-3 1.346-3 3s1.346 3 3 3c.552 0 1 .449 1 1s-.448 1-1 1h-3c-1.654 0-3 1.346-3 3s1.346 3 3 3h4.889c-2.025 1.273-4.401 2-6.889 2-3.389 0-6.564-1.299-9-3.647zm20-28h18v20h-18zm-1.649 34h-7.351c-.552 0-1-.449-1-1s.448-1 1-1h3c1.654 0 3-1.346 3-3s-1.346-3-3-3c-.552 0-1-.449-1-1s.448-1 1-1h4v3c0 1.649 1.338 2.991 2.986 2.999-.63 1.503-1.528 2.857-2.635 4.001zm2.649-38h16c.552 0 1 .449 1 1v1h-18v-1c0-.551.448-1 1-1zm-38 6c-1.654 0-3-1.346-3-3s1.346-3 3-3 3 1.346 3 3-1.346 3-3 3zm26 6c3.203 0 6.3.901 9 2.592v2.433c-2.585-1.953-5.703-3.025-9-3.025-6.329 0-12.025 4.079-14.125 10h-2.105c2.172-7.124 8.673-12 16.23-12zm-28 14h16c.552 0 1 .449 1 1v1h-18v-1c0-.551.448-1 1-1zm16 32h-16c-.552 0-1-.449-1-1v-5h18v5c0 .551-.448 1-1 1zm12-12c-3.203 0-6.3-.901-9-2.592v-2.433c2.585 1.953 5.703 3.025 9 3.025 6.329 0 12.025-4.079 14.125-10h2.105c-2.172 7.124-8.673 12-16.23 12zm26 6c1.654 0 3 1.346 3 3s-1.346 3-3 3-3-1.346-3-3 1.346-3 3-3z"/><path d="m50 31h4v2h-4z"/><path d="m45 9v16h14v-16zm12 14h-10v-12h10z"/></svg>