<?xml version="1.0" encoding="iso-8859-1"?>
<!-- Generator: Adobe Illustrator 19.0.0, SVG Export Plug-In . SVG Version: 6.00 Build 0)  -->
<svg version="1.1" id="Layer_1" xmlns="http://www.w3.org/2000/svg" xmlns:xlink="http://www.w3.org/1999/xlink" x="0px" y="0px"
	 viewBox="0 0 512 512" style="enable-background:new 0 0 512 512;" xml:space="preserve">
<g>
	<g>
		<g>
			<path d="M162.133,392.533c-4.71,0-8.533,3.823-8.533,8.533v102.4c0,4.71,3.823,8.533,8.533,8.533c4.71,0,8.533-3.823,8.533-8.533
				v-102.4C170.667,396.356,166.844,392.533,162.133,392.533z"/>
			<path d="M51.2,366.933v-68.267c0-4.71-3.823-8.533-8.533-8.533c-4.71,0-8.533,3.823-8.533,8.533v68.267
				c0,4.71,3.823,8.533,8.533,8.533C47.377,375.467,51.2,371.644,51.2,366.933z"/>
			<path d="M128,460.8H8.533c-4.71,0-8.533,3.823-8.533,8.533s3.823,8.533,8.533,8.533H128c4.71,0,8.533-3.823,8.533-8.533
				S132.71,460.8,128,460.8z"/>
			<path d="M128,494.933H8.533c-4.71,0-8.533,3.823-8.533,8.533S3.823,512,8.533,512H128c4.71,0,8.533-3.823,8.533-8.533
				S132.71,494.933,128,494.933z"/>
			<path d="M162.133,290.133H93.867c-4.71,0-8.533,3.823-8.533,8.533v68.267c0,4.71,3.823,8.533,8.533,8.533
				c4.71,0,8.533-3.823,8.533-8.533V358.4h51.2v8.533c0,4.71,3.823,8.533,8.533,8.533c4.71,0,8.533-3.823,8.533-8.533v-68.267
				C170.667,293.956,166.844,290.133,162.133,290.133z M153.6,341.333h-51.2V307.2h51.2V341.333z"/>
			<path d="M128,426.667H8.533C3.823,426.667,0,430.49,0,435.2s3.823,8.533,8.533,8.533H128c4.71,0,8.533-3.823,8.533-8.533
				S132.71,426.667,128,426.667z"/>
			<path d="M128,392.533H8.533c-4.71,0-8.533,3.823-8.533,8.533s3.823,8.533,8.533,8.533H128c4.71,0,8.533-3.823,8.533-8.533
				S132.71,392.533,128,392.533z"/>
			<path d="M290.133,170.667c0-18.825-15.309-34.133-34.133-34.133c-18.825,0-34.133,15.309-34.133,34.133S237.175,204.8,256,204.8
				C274.825,204.8,290.133,189.491,290.133,170.667z M238.933,170.667c0-9.412,7.654-17.067,17.067-17.067
				c9.412,0,17.067,7.654,17.067,17.067c0,9.412-7.654,17.067-17.067,17.067C246.588,187.733,238.933,180.079,238.933,170.667z"/>
			<path d="M298.667,494.933h-102.4c-4.71,0-8.533,3.823-8.533,8.533s3.823,8.533,8.533,8.533h102.4
				c4.719,0,8.533-3.823,8.533-8.533S303.386,494.933,298.667,494.933z"/>
			<path d="M196.267,477.867h70.263c4.719,0,8.533-3.823,8.533-8.533s-3.814-8.533-8.533-8.533h-70.263
				c-4.71,0-8.533,3.823-8.533,8.533S191.556,477.867,196.267,477.867z"/>
			<path d="M392.533,273.067c-65.877,0-119.467,53.589-119.467,119.467S326.656,512,392.533,512S512,458.411,512,392.533
				S458.411,273.067,392.533,273.067z M392.533,494.933c-56.465,0-102.4-45.935-102.4-102.4c0-56.465,45.935-102.4,102.4-102.4
				c56.465,0,102.4,45.935,102.4,102.4C494.933,448.998,448.998,494.933,392.533,494.933z"/>
			<path d="M503.467,68.267H341.333c-4.719,0-8.533,3.823-8.533,8.533s3.814,8.533,8.533,8.533h153.6v184.201l-232.9-232.9
				c-1.673-1.673-3.866-2.5-6.059-2.5s-4.386,0.828-6.059,2.5L17.067,269.525V85.333h93.867c4.71,0,8.533-3.823,8.533-8.533V42.667
				c0-4.71-3.823-8.533-8.533-8.533H102.4V17.067h51.2v17.067h-8.533c-4.71,0-8.533,3.823-8.533,8.533V76.8
				c0,4.71,3.823,8.533,8.533,8.533h25.6c4.71,0,8.533-3.823,8.533-8.533s-3.823-8.533-8.533-8.533H153.6V51.2h8.533
				c4.71,0,8.533-3.823,8.533-8.533V8.533c0-4.71-3.823-8.533-8.533-8.533H93.867c-4.71,0-8.533,3.823-8.533,8.533v34.133
				c0,4.71,3.823,8.533,8.533,8.533h8.533v17.067H8.533c-2.261,0-4.437,0.896-6.033,2.5C0.896,72.363,0,74.539,0,76.8l0.034,213.333
				c0,3.456,2.082,6.562,5.274,7.885c1.05,0.435,2.159,0.649,3.26,0.649c2.219,0,4.403-0.87,6.033-2.5L255.974,54.707
				l241.459,241.459c1.63,1.63,3.814,2.5,6.033,2.5c1.101,0,2.21-0.213,3.268-0.649c3.192-1.323,5.265-4.437,5.265-7.885V76.8
				C512,72.09,508.186,68.267,503.467,68.267z"/>
			<path d="M392.533,349.867c9.412,0,17.067,7.654,17.067,17.067c0,4.71,3.814,8.533,8.533,8.533s8.533-3.823,8.533-8.533
				c0-15.855-10.914-29.107-25.6-32.922V332.8c0-4.71-3.814-8.533-8.533-8.533c-4.719,0-8.533,3.823-8.533,8.533v1.212
				c-14.686,3.814-25.6,17.067-25.6,32.922c0,18.825,15.309,34.133,34.133,34.133c9.412,0,17.067,7.654,17.067,17.067
				s-7.654,17.067-17.067,17.067c-9.412,0-17.067-7.654-17.067-17.067c0-4.71-3.814-8.533-8.533-8.533s-8.533,3.823-8.533,8.533
				c0,15.855,10.914,29.107,25.6,32.922v1.212c0,4.71,3.814,8.533,8.533,8.533c4.719,0,8.533-3.823,8.533-8.533v-1.212
				c14.686-3.814,25.6-17.067,25.6-32.922c0-18.825-15.309-34.133-34.133-34.133c-9.412,0-17.067-7.654-17.067-17.067
				S383.121,349.867,392.533,349.867z"/>
			<path d="M196.267,443.733h55.467c4.71,0,8.533-3.823,8.533-8.533s-3.823-8.533-8.533-8.533h-55.467
				c-4.71,0-8.533,3.823-8.533,8.533S191.556,443.733,196.267,443.733z"/>
			<path d="M204.8,298.667v68.267c0,4.71,3.823,8.533,8.533,8.533c4.71,0,8.533-3.823,8.533-8.533V307.2H281.6
				c4.719,0,8.533-3.823,8.533-8.533s-3.814-8.533-8.533-8.533h-68.267C208.623,290.133,204.8,293.956,204.8,298.667z"/>
			<path d="M187.733,401.067c0,4.71,3.823,8.533,8.533,8.533h51.2c4.71,0,8.533-3.823,8.533-8.533s-3.823-8.533-8.533-8.533h-51.2
				C191.556,392.533,187.733,396.356,187.733,401.067z"/>
		</g>
	</g>
</g>
<g>
</g>
<g>
</g>
<g>
</g>
<g>
</g>
<g>
</g>
<g>
</g>
<g>
</g>
<g>
</g>
<g>
</g>
<g>
</g>
<g>
</g>
<g>
</g>
<g>
</g>
<g>
</g>
<g>
</g>
</svg>
