<svg height="462pt" viewBox="-11 0 462 462.41257" width="462pt" xmlns="http://www.w3.org/2000/svg" xmlns:xlink="http://www.w3.org/1999/xlink"><linearGradient id="a"><stop offset="0" stop-color="#00efd1"/><stop offset="1" stop-color="#00acea"/></linearGradient><linearGradient id="b" gradientUnits="userSpaceOnUse" x1="226.221285" x2="226.221285" xlink:href="#a" y1="-10.025945" y2="464.107055"/><linearGradient id="c" gradientUnits="userSpaceOnUse" x1="252.415285" x2="252.415285" xlink:href="#a" y1="-10.025945" y2="464.107055"/><linearGradient id="d" gradientUnits="userSpaceOnUse" x1="151.758285" x2="151.758285" xlink:href="#a" y1="-10.025945" y2="464.107055"/><linearGradient id="e" gradientUnits="userSpaceOnUse" x1="234.191285" x2="234.191285" xlink:href="#a" y1="-10.025945" y2="464.107055"/><linearGradient id="f" gradientUnits="userSpaceOnUse" x1="169.982285" x2="169.982285" xlink:href="#a" y1="-10.025945" y2="464.107055"/><linearGradient id="g" gradientUnits="userSpaceOnUse" x1="136.430285" x2="136.430285" xlink:href="#a" y1="-10.025945" y2="464.107055"/><linearGradient id="h" gradientUnits="userSpaceOnUse" x1="267.742285" x2="267.742285" xlink:href="#a" y1="-10.025945" y2="464.107055"/><linearGradient id="i" gradientUnits="userSpaceOnUse" x1="202.086285" x2="202.086285" xlink:href="#a" y1="-10.025945" y2="464.107055"/><linearGradient id="j" gradientUnits="userSpaceOnUse" x1="29.695285" x2="29.695285" xlink:href="#a" y1="-10.025945" y2="464.107055"/><linearGradient id="k" gradientUnits="userSpaceOnUse" x1="388.457285" x2="388.457285" xlink:href="#a" y1="-10.025945" y2="464.107055"/><linearGradient id="l" gradientUnits="userSpaceOnUse" x1="30.206285" x2="30.206285" xlink:href="#a" y1="-10.025945" y2="464.107055"/><path d="m317.945312 118.207031c-4.078124-4.078125-8.738281-8.101562-12.738281-11.65625v-18.207031c15.34375-22.414062 45.609375-28.78125 68.6875-14.457031 14.921875 9.269531 23.984375 25.597656 23.953125 43.164062 0 4.449219 3.5625 8.078125 8.007813 8.15625h.007812c4.546875-.132812 8.207031-3.789062 8.34375-8.335937v-.011719c0-64.4375-52.511719-116.859375-116.792969-116.859375-4.457031-.015625-8.109374 3.542969-8.207031 8v87.101562c-63-39.765624-148.011719-32.132812-203.050781 22.90625-63.898438 63.902344-63.886719 167.882813.019531 231.789063 63.9375 64.019531 167.628907 64.203125 231.796875.414063h-.011718c63.90625-64.003907 63.890624-168.097657-.015626-232.003907zm-12.738281-101.890625c29.734375 2.273438 56.886719 17.742188 74.007813 42.160156-14.414063-7.957031-31.269532-10.269531-47.289063-6.480468-9.75 2.320312-18.871093 6.75-26.71875 12.980468zm1.460938 322.160156c-57.664063 57.667969-151.5 57.667969-209.164063 0-57.660156-57.664062-57.664062-151.5 0-209.160156 51.542969-51.433594 132.832032-57.753906 191.703125-14.902344v25.316407c-14.855469-11.148438-35.425781-10.621094-49.6875 1.273437-14.261719 11.898438-18.472656 32.042969-10.164062 48.652344 8.304687 16.613281 26.945312 25.332031 45.019531 21.0625 18.074219-4.273438 30.839844-20.414062 30.832031-38.988281v-43.773438c1 .453125.964844.902344 1.425781 1.359375 57.667969 57.664063 57.703126 151.496094.035157 209.160156zm-17.390625-166.738281c0 13.285157-10.769532 24.054688-24.054688 24.058594-13.285156 0-24.054687-10.769531-24.054687-24.054687 0-13.289063 10.769531-24.058594 24.054687-24.058594 13.277344.015625 24.039063 10.777344 24.054688 24.054687zm0 0" fill="url(#b)"/><path d="m202.085938 326.554688c-4.417969 0-8 3.582031-8 8 0 4.417968 3.582031 8 8 8 59.980468-.070313 108.589843-48.675782 108.65625-108.660157 0-4.417969-3.582032-8-8-8-4.417969 0-8 3.582031-8 8-.058594 51.152344-41.507813 92.601563-92.65625 92.660157zm0 0" fill="url(#c)"/><path d="m202.085938 141.238281c4.417968 0 8-3.578125 8-8 0-4.417969-3.582032-8-8-8-59.980469.070313-108.585938 48.675781-108.65625 108.65625 0 4.417969 3.582031 8 8 8 4.417968 0 8-3.582031 8-8 .058593-51.148437 41.507812-92.597656 92.65625-92.65625zm0 0" fill="url(#d)"/><path d="m194.085938 298.105469c0 4.417969 3.582031 8 8 8 39.863281-.042969 72.164062-32.347657 72.210937-72.207031 0-4.417969-3.582031-8-8-8s-8 3.582031-8 8c-.035156 31.027343-25.179687 56.175781-56.210937 56.207031-4.417969 0-8 3.582031-8 8zm0 0" fill="url(#e)"/><path d="m210.085938 169.6875c0-4.417969-3.582032-8-8-8-39.859376.042969-72.164063 32.347656-72.207032 72.207031 0 4.417969 3.582032 8 8 8 4.417969 0 8-3.582031 8-8 .03125-31.027343 25.179688-56.171875 56.207032-56.207031 4.417968 0 8-3.582031 8-8zm0 0" fill="url(#f)"/><path d="m202.085938 110.585938c4.417968 0 8-3.582032 8-8 0-4.421876-3.582032-8-8-8-76.816407 0-139.3125 62.5-139.3125 139.308593 0 4.417969 3.582031 8 8 8 4.417968 0 8-3.582031 8-8 .078124-68.070312 55.242187-123.234375 123.3125-123.308593zm0 0" fill="url(#g)"/><path d="m333.398438 225.894531c-4.417969 0-8 3.582031-8 8-.078126 68.074219-55.242188 123.234375-123.3125 123.3125-4.417969 0-8 3.582031-8 8s3.582031 8 8 8c76.816406 0 139.3125-62.496093 139.3125-139.3125 0-4.417969-3.582032-8-8-8zm0 0" fill="url(#h)"/><path d="m235.882812 233.894531c0-18.664062-15.132812-33.796875-33.800781-33.796875s-33.800781 15.132813-33.800781 33.796875c0 18.667969 15.132812 33.800781 33.800781 33.800781 18.660157-.019531 33.78125-15.140624 33.800781-33.800781zm-51.589843 0c0-9.828125 7.96875-17.800781 17.800781-17.796875 9.832031 0 17.800781 7.96875 17.796875 17.800782 0 9.832031-7.972656 17.800781-17.804687 17.796874-9.824219-.011718-17.785157-7.972656-17.792969-17.800781zm0 0" fill="url(#i)"/><path d="m50.960938 385.023438c-3.125-3.125-8.191407-3.125-11.3125 0l-9.953126 9.953124-9.953124-9.953124c-2.011719-2.058594-4.976563-2.878907-7.761719-2.140626-2.78125.734376-4.957031 2.90625-5.691407 5.691407-.734374 2.785156.082032 5.75 2.140626 7.761719l9.953124 9.953124-9.953124 9.949219c-2.058594 2.015625-2.875 4.980469-2.140626 7.761719.734376 2.785156 2.910157 4.960938 5.691407 5.695312 2.785156.734376 5.75-.082031 7.761719-2.140624l9.953124-9.953126 9.953126 9.953126c3.132812 3.0625 8.148437 3.035156 11.25-.066407 3.097656-3.097656 3.125-8.113281.0625-11.25l-9.953126-9.949219 9.949219-9.953124c3.125-3.125 3.125-8.1875.003907-11.3125zm0 0" fill="url(#j)"/><path d="m433.378906 394.867188-26.074218-3.800782-11.667969-23.722656c-1.347657-2.738281-4.128907-4.46875-7.179688-4.46875-3.046875 0-5.832031 1.730469-7.179687 4.46875l-11.664063 23.722656-26.078125 3.796875c-3.011718.441407-5.511718 2.550781-6.453125 5.441407-.941406 2.890624-.160156 6.070312 2.011719 8.195312l18.886719 18.472656-4.460938 26.09375c-.511719 3 .726563 6.035156 3.191407 7.824219 2.46875 1.785156 5.734374 2.019531 8.429687.597656l23.316406-12.300781 23.316407 12.300781c2.695312 1.421875 5.964843 1.1875 8.429687-.597656 2.46875-1.789063 3.703125-4.824219 3.191406-7.824219l-4.460937-26.09375 18.886718-18.464844c2.175782-2.128906 2.953126-5.304687 2.011719-8.195312-.941406-2.894531-3.441406-5-6.453125-5.441406zm-28.628906 23.601562c-1.878906 1.835938-2.734375 4.476562-2.292969 7.066406l2.429688 14.230469-12.699219-6.703125c-2.335938-1.230469-5.128906-1.230469-7.464844 0l-12.699218 6.703125 2.433593-14.230469c.441407-2.589844-.414062-5.230468-2.292969-7.066406l-10.328124-10.101562 14.246093-2.078126c2.609375-.378906 4.863281-2.019531 6.023438-4.386718l6.347656-12.898438 6.347656 12.898438c1.164063 2.367187 3.414063 4.007812 6.023438 4.386718l14.25 2.078126zm0 0" fill="url(#k)"/><path d="m22.207031 60.207031v14c0 4.417969 3.582031 8 8 8s8-3.582031 8-8v-14h14c4.417969 0 8-3.582031 8-8s-3.582031-8-8-8h-14v-14c0-4.417969-3.582031-8-8-8s-8 3.582031-8 8v14h-14c-4.417969 0-8 3.582031-8 8s3.582031 8 8 8zm0 0" fill="url(#l)"/></svg>