<svg height="482pt" viewBox="0 -5 482.808 482" width="482pt" xmlns="http://www.w3.org/2000/svg"><path d="m312 280.40625c22.28125-.226562 40.171875-18.441406 40-40.722656v-19.199219c.046875-10.734375-4.140625-21.058594-11.65625-28.726563l-5.65625-5.792968c-5.957031-6.128906-14.140625-9.589844-22.6875-9.589844s-16.730469 3.460938-22.6875 9.589844l-5.65625 5.792968c-7.523438 7.675782-11.710938 18.011719-11.65625 28.757813v19.203125c-.15625 22.265625 17.734375 40.460938 40 40.6875zm-24-59.890625c0-6.542969 2.542969-12.832031 7.089844-17.542969l5.664062-5.785156c2.941406-3.054688 7.003906-4.78125 11.246094-4.78125s8.304688 1.726562 11.246094 4.78125l5.664062 5.785156c4.546875 4.710938 7.089844 11 7.089844 17.542969v19.203125c0 13.253906-10.746094 24-24 24s-24-10.746094-24-24zm0 0"/><path d="m383.910156 136.40625h.457032c10.601562.035156 20.773437-4.191406 28.230468-11.734375 7.453125-7.539063 11.5625-17.761719 11.402344-28.363281-.117188-10.734375-4.457031-20.992188-12.078125-28.550782l-13.523437-13.550781c-7.558594-7.625-17.816407-11.964843-28.550782-12.082031l-8.128906-.121094c-8.566406-.246094-16.847656 3.113282-22.824219 9.257813-6.074219 6.042969-9.433593 14.296875-9.292969 22.863281l.085938 8.089844c.117188 10.734375 4.457031 20.996094 12.082031 28.558594l13.550781 13.550781c7.566407 7.636719 17.839844 11.980469 28.589844 12.082031zm-38.191406-54.402344-.117188-8.054687c-.089843-4.222657 1.535157-8.300781 4.503907-11.304688 2.96875-3.007812 7.03125-4.679687 11.253906-4.640625h.183594l8.089843.089844c6.542969.121094 12.789063 2.769531 17.421876 7.390625l13.554687 13.554687c4.664063 4.617188 7.324219 10.890626 7.390625 17.453126.113281 6.375-2.371094 12.523437-6.878906 17.03125-4.511719 4.511718-10.65625 6.992187-17.03125 6.882812-6.554688-.078125-12.816406-2.734375-17.425782-7.394531l-13.542968-13.550781c-4.671875-4.613282-7.332032-10.890626-7.402344-17.457032zm0 0"/><path d="m286.191406.5c-10.75.101562-21.023437 4.441406-28.589844 12.074219l-13.554687 13.597656c-7.605469 7.554687-11.933594 17.796875-12.046875 28.511719-.164062 10.609375 3.941406 20.835937 11.394531 28.378906 7.453125 7.546875 17.628907 11.777344 28.238281 11.742188h.457032c10.738281-.109376 21-4.449219 28.558594-12.078126l13.550781-13.554687c7.628906-7.558594 11.96875-17.820313 12.082031-28.558594l.117188-8.121093c.136718-8.550782-3.207032-16.792969-9.261719-22.832032-6.085938-6.003906-14.316407-9.335937-22.863281-9.253906zm8.449219 15.90625c4.21875-.039062 8.273437 1.628906 11.242187 4.625s4.597657 7.070312 4.515626 11.285156l-.117188 8.089844c-.117188 6.542969-2.765625 12.785156-7.394531 17.414062l-13.550781 13.554688c-9.375 9.648438-24.796876 9.878906-34.457032.511719-4.507812-4.507813-6.988281-10.652344-6.878906-17.023438.078125-6.554687 2.734375-12.8125 7.390625-17.417969l13.601563-13.550781c4.625-4.632812 10.867187-7.28125 17.40625-7.394531l8.058593-.09375zm0 0"/><path d="m65.265625 176.40625h.453125c10.738281-.113281 21.003906-4.453125 28.5625-12.082031l13.550781-13.519531c7.625-7.558594 11.960938-17.816407 12.070313-28.550782l.097656-8.128906c.132812-8.488281-3.152344-16.675781-9.117188-22.714844-5.96875-6.042968-14.113281-9.429687-22.601562-9.40625h-.371094l-8.09375.089844c-10.738281.113281-20.996094 4.453125-28.550781 12.078125l-13.554687 13.585937c-7.636719 7.550782-11.988282 17.8125-12.109376 28.550782-.160156 10.609375 3.953126 20.832031 11.414063 28.375 7.460937 7.542968 17.640625 11.765625 28.25 11.722656zm-16.242187-57.335938 13.550781-13.554687c4.636719-4.621094 10.882812-7.269531 17.425781-7.390625l8.097656-.085938h.183594c4.207031-.027343 8.25 1.648438 11.207031 4.640626 2.957031 2.992187 4.585938 7.054687 4.511719 11.261718l-.097656 8.0625c-.078125 6.554688-2.730469 12.8125-7.382813 17.425782l-13.550781 13.550781c-4.605469 4.671875-10.867188 7.339843-17.425781 7.425781-6.355469.007812-12.464844-2.460938-17.03125-6.878906-4.507813-4.511719-6.992188-10.660156-6.878907-17.035156.074219-6.554688 2.730469-12.8125 7.390626-17.421876zm0 0"/><path d="m40.71875 272.40625h19.203125c10.734375.039062 21.058594-4.148438 28.734375-11.65625l5.785156-5.65625c6.128906-5.957031 9.589844-14.140625 9.589844-22.6875s-3.460938-16.734375-9.589844-22.6875l-5.785156-5.65625c-7.683594-7.515625-18.019531-11.703125-28.769531-11.65625h-19.167969c-22.089844 0-40 17.90625-40 40 0 22.089844 17.910156 40 40 40zm0-64h19.203125c6.546875 0 12.835937 2.542969 17.542969 7.09375l5.78125 5.65625c3.058594 2.945312 4.785156 7.003906 4.785156 11.25 0 4.242188-1.726562 8.304688-4.785156 11.246094l-5.78125 5.65625c-4.714844 4.558594-11.019532 7.105468-17.578125 7.097656h-19.167969c-13.253906 0-24-10.746094-24-24s10.746094-24 24-24zm0 0"/><path d="m243.886719 192.40625c10.738281.039062 21.0625-4.148438 28.738281-11.65625l5.78125-5.65625c6.132812-5.957031 9.59375-14.140625 9.59375-22.6875s-3.460938-16.734375-9.59375-22.6875l-5.78125-5.65625c-7.675781-7.507812-18-11.695312-28.738281-11.65625h-19.199219c-22.089844 0-40 17.90625-40 40 0 22.089844 17.910156 40 40 40zm-43.886719-40c.214844-13.449219 11.273438-24.183594 24.71875-24h19.203125c6.546875 0 12.835937 2.542969 17.542969 7.09375l5.78125 5.65625c3.058594 2.945312 4.785156 7.003906 4.785156 11.25 0 4.242188-1.726562 8.304688-4.785156 11.246094l-5.78125 5.65625c-4.714844 4.558594-11.019532 7.105468-17.578125 7.097656h-19.199219c-13.433594.164062-24.472656-10.566406-24.6875-24zm0 0"/><path d="m462.398438 169.71875-5.78125-5.65625c-7.675782-7.507812-17.996094-11.695312-28.730469-11.65625h-19.199219c-22.089844 0-40 17.90625-40 40 0 22.089844 17.910156 40 40 40h19.199219c10.738281.039062 21.0625-4.148438 28.738281-11.65625l5.78125-5.65625c6.132812-5.957031 9.59375-14.140625 9.59375-22.6875s-3.460938-16.734375-9.59375-22.6875zm-34.511719 46.6875h-19.199219c-13.253906 0-24-10.746094-24-24s10.746094-24 24-24h19.199219c6.546875 0 12.839843 2.542969 17.546875 7.09375l5.78125 5.65625c3.058594 2.945312 4.785156 7.003906 4.785156 11.25 0 4.242188-1.726562 8.304688-4.785156 11.246094l-5.78125 5.65625c-4.707032 4.550781-11 7.097656-17.546875 7.097656zm0 0"/><path d="m438.398438 260.574219c-7.558594-7.625-17.820313-11.964844-28.558594-12.074219l-8.121094-.09375c-8.550781-.136719-16.796875 3.199219-22.847656 9.246094-6.054688 6.046875-9.398438 14.285156-9.269532 22.839844l.085938 8.089843c.113281 10.738281 4.453125 21 12.082031 28.558594l13.550781 13.554687c7.558594 7.625 17.820313 11.96875 28.558594 12.078126h.457032c10.605468.042968 20.785156-4.179688 28.246093-11.71875 7.460938-7.539063 11.574219-17.761719 11.417969-28.371094-.113281-10.734375-4.453125-20.992188-12.078125-28.550782zm2.753906 59.320312c-4.539063 4.460938-10.667969 6.933594-17.03125 6.878907-6.554688-.078126-12.816406-2.734376-17.425782-7.390626l-13.550781-13.554687c-4.640625-4.625-7.304687-10.871094-7.425781-17.421875l-.117188-8.089844c-.082031-4.214844 1.546876-8.285156 4.515626-11.28125 2.964843-2.996094 7.019531-4.667968 11.234374-4.628906h.183594l8.097656.09375c6.542969.113281 12.789063 2.765625 17.414063 7.394531l13.554687 13.550781c4.660157 4.605469 7.320313 10.863282 7.398438 17.417969.113281 6.375-2.371094 12.523438-6.878906 17.03125zm0 0"/><path d="m458.136719 360.0625c-26.308594 9.859375-54.054688 15.320312-82.136719 16.167969v-23.824219c-.035156-30.914062-25.085938-55.964844-56-56h-32c-4.417969 0-8 3.582031-8 8v8.886719c-10.503906-10.800781-24.933594-16.890625-40-16.886719h-32c-4.417969 0-8 3.582031-8 8v8.886719c-10.503906-10.800781-24.933594-16.890625-40-16.886719h-32c-4.417969 0-8 3.582031-8 8v8.886719c-10.503906-10.800781-24.933594-16.890625-40-16.886719h-80v16h40v24c.03125 19.6875 10.398438 37.910156 27.304688 48-16.90625 10.085938-27.273438 28.3125-27.304688 48v24h-40v16h80c15.066406.003906 29.496094-6.089844 40-16.890625v8.890625c0 4.417969 3.582031 8 8 8h32c15.066406.003906 29.496094-6.089844 40-16.890625v8.890625c0 4.417969 3.582031 8 8 8h32c15.066406.003906 29.496094-6.089844 40-16.890625v8.890625c0 4.417969 3.582031 8 8 8h32c30.914062-.035156 55.964844-25.085938 56-56v-24.175781c30-.847657 59.648438-6.652344 87.753906-17.183594l19.054688-7.144531-5.601563-14.992188zm-162.136719-47.65625h24c22.082031.027344 39.972656 17.917969 40 40v24h-24c-22.082031-.027344-39.972656-17.921875-40-40zm0 72v-8.890625c3.371094 3.433594 7.171875 6.421875 11.304688 8.890625-4.132813 2.46875-7.933594 5.453125-11.304688 8.886719zm-80-72h24c22.082031.027344 39.972656 17.917969 40 40v24h-24c-22.082031-.027344-39.972656-17.921875-40-40zm0 72v-8.890625c3.371094 3.433594 7.171875 6.421875 11.304688 8.890625-4.132813 2.46875-7.933594 5.453125-11.304688 8.886719zm-80-72h24c22.082031.027344 39.972656 17.917969 40 40v24h-24c-22.082031-.027344-39.972656-17.921875-40-40zm0 72v-8.890625c3.371094 3.433594 7.171875 6.421875 11.304688 8.890625-4.132813 2.46875-7.933594 5.453125-11.304688 8.886719zm-80-48v-24h24c22.082031.027344 39.972656 17.917969 40 40v24h-24c-22.082031-.027344-39.972656-17.921875-40-40zm24 120h-24v-24c.027344-22.082031 17.917969-39.972656 40-40h24v24c-.027344 22.078125-17.917969 39.972656-40 40zm80 0h-24v-24c.027344-22.082031 17.917969-39.972656 40-40h24v24c-.027344 22.078125-17.917969 39.972656-40 40zm80 0h-24v-24c.027344-22.082031 17.917969-39.972656 40-40h24v24c-.027344 22.078125-17.917969 39.972656-40 40zm120-40c-.027344 22.078125-17.917969 39.972656-40 40h-24v-24c.027344-22.082031 17.917969-39.972656 40-40h24zm0 0"/><path d="m72 328.40625v16c9.769531 0 16 4.734375 16 8h16c0-13.464844-14.054688-24-32-24zm0 0"/><path d="m168 352.40625h16c0-13.464844-14.054688-24-32-24v16c9.769531 0 16 4.734375 16 8zm0 0"/><path d="m248 352.40625h16c0-13.464844-14.054688-24-32-24v16c9.769531 0 16 4.734375 16 8zm0 0"/><path d="m328 352.40625h16c0-13.464844-14.054688-24-32-24v16c9.769531 0 16 4.734375 16 8zm0 0"/><path d="m72 424.40625v16c17.945312 0 32-10.535156 32-24h-16c0 3.261719-6.230469 8-16 8zm0 0"/><path d="m152 424.40625v16c17.945312 0 32-10.535156 32-24h-16c0 3.261719-6.230469 8-16 8zm0 0"/><path d="m232 424.40625v16c17.945312 0 32-10.535156 32-24h-16c0 3.261719-6.230469 8-16 8zm0 0"/><path d="m312 424.40625v16c17.945312 0 32-10.535156 32-24h-16c0 3.261719-6.230469 8-16 8zm0 0"/><path d="m132.167969 254.804688 13.550781 13.550781c7.566406 7.617187 17.828125 11.949219 28.5625 12.050781h.453125c10.609375.042969 20.789063-4.179688 28.25-11.722656 7.460937-7.542969 11.574219-17.765625 11.414063-28.375-.113282-10.734375-4.453126-20.992188-12.078126-28.550782l-13.550781-13.550781c-7.558593-7.628906-17.816406-11.96875-28.554687-12.082031l-8.125-.121094c-8.558594-.125-16.800782 3.21875-22.84375 9.273438-6.046875 6.054687-9.382813 14.300781-9.246094 22.855468l.097656 8.082032c.097656 10.746094 4.4375 21.023437 12.070313 28.589844zm8.40625-48.160157c2.957031-2.957031 6.972656-4.605469 11.152343-4.574219h.183594l8.089844.054688c6.542969.121094 12.789062 2.769531 17.425781 7.390625l13.550781 13.554687c4.660157 4.609376 7.316407 10.867188 7.390626 17.421876.113281 6.375-2.371094 12.523437-6.878907 17.035156-9.660156 9.367187-25.082031 9.136718-34.457031-.515625l-13.542969-13.550781c-4.660156-4.613282-7.316406-10.875-7.390625-17.429688l-.097656-8.082031c-.078125-4.242188 1.574219-8.335938 4.574219-11.335938zm0 0"/><path d="m160.183594 10.125-8.09375-.121094c-8.558594-.125-16.800782 3.21875-22.84375 9.273438-6.046875 6.054687-9.382813 14.300781-9.246094 22.855468l.097656 8.082032c.105469 10.734375 4.445313 21 12.070313 28.558594l13.550781 13.550781c7.558594 7.628906 17.824219 11.96875 28.5625 12.082031h.453125c10.609375.042969 20.789063-4.179688 28.25-11.722656 7.460937-7.542969 11.574219-17.765625 11.414063-28.375-.113282-10.734375-4.453126-20.992188-12.078126-28.550782l-13.585937-13.550781c-7.554687-7.628906-17.8125-11.96875-28.550781-12.082031zm38.183594 54.402344c.113281 6.375-2.371094 12.523437-6.878907 17.03125-9.660156 9.367187-25.082031 9.136718-34.457031-.511719l-13.542969-13.554687c-4.675781-4.625-7.332031-10.910157-7.390625-17.488282l-.097656-8.054687c-.085938-4.214844 1.539062-8.289063 4.5-11.289063 2.960938-3.003906 7.011719-4.679687 11.226562-4.65625h.183594l8.089844.121094c6.542969.121094 12.789062 2.769531 17.425781 7.390625l13.550781 13.554687c4.671876 4.605469 7.339844 10.863282 7.421876 17.421876zm0 0"/></svg>