<?xml version="1.0" encoding="iso-8859-1"?>
<!-- Generator: Adobe Illustrator 19.0.0, SVG Export Plug-In . SVG Version: 6.00 Build 0)  -->
<svg version="1.1" id="Capa_1" xmlns="http://www.w3.org/2000/svg" xmlns:xlink="http://www.w3.org/1999/xlink" x="0px" y="0px"
	 viewBox="0 0 512 512" style="enable-background:new 0 0 512 512;" xml:space="preserve">
<path style="fill:#4DBAF6;" d="M301.371,355.984H463c21.539,0,39-17.461,39-39v-17l0,0H301.356H109.012H10.002v17
	c0,21.539,17.461,39,39,39H75.17H301.371z"/>
<path style="fill:#C9F3FF;" d="M484,299.984V50c0-22.091-17.909-40-40-40H68.002c-22.091,0-40,17.909-40,40v249.985H484z"/>
<path style="fill:#FF5D5D;" d="M158.252,229.999h41.393c15.464,0,28-12.536,28-28l0,0c0-15.464-12.536-28-28-28H91.999
	c-15.464,0-28,12.536-28,28l0,0c0,15.464,12.536,28,28,28h8.504H158.252z"/>
<path style="fill:#FFCDAC;" d="M266.001,501.997l16.884-39.62c12.198-28.625,18.486-59.419,18.486-90.534v-89.299
	c0-13.28-10.765-24.045-24.045-24.045l0,0c-13.28,0-24.045,10.765-24.045,24.045v47.21v-35.675v-11.392
	c0-13.28-10.765-24.045-24.045-24.045l0,0c-13.28,0-24.045,10.765-24.045,24.045v8.595v38.472v-47.067
	c0-13.28-10.765-24.045-24.045-24.045l0,0c-13.28,0-24.045,10.765-24.045,24.045v47.067V198.044
	c0-13.28-10.765-24.045-24.045-24.045l0,0c-13.28,0-24.045,10.765-24.045,24.045v164.89l-0.036-51.737l-34.707,50.877
	c-10.934,16.029-13.265,36.417-6.231,54.5l33.232,85.424H266.001z"/>
<path style="fill:#FFB954;" d="M416.75,133.999H307.501c-17.259,0-31.25,13.991-31.25,31.25v32.75H448v-32.75
	C448,147.99,434.009,133.999,416.75,133.999z"/>
<g>
	<path style="fill:#FFFFFF;" d="M352.834,100.499h-35.167c-5.523,0-10,4.477-10,10v23.5h55.167v-23.5
		C362.834,104.976,358.357,100.499,352.834,100.499z"/>
	<path style="fill:#FFFFFF;" d="M408,100.499h-35.167c-5.523,0-10,4.477-10,10v23.5H418v-23.5
		C418,104.976,413.523,100.499,408,100.499z"/>
</g>
<path d="M502,289.984h-8V50c0-27.57-22.43-50-50-50H68.002c-27.57,0-50,22.43-50,50v239.985h-8c-5.523,0-10,4.477-10,10v17
	c0,27.019,21.981,49,49,49h11.56c-7.945,16.915-8.736,36.501-1.844,54.216l33.231,85.423c1.539,3.956,5.318,6.377,9.322,6.377
	c1.206,0,2.432-0.22,3.623-0.683c5.147-2.002,7.696-7.798,5.694-12.945l-33.231-85.424c-5.842-15.017-3.909-31.929,5.172-45.24
	l16.481-24.16v19.385c0,5.523,4.477,10,10,10c5.523,0,10-4.477,10-10v-164.89c0-7.745,6.301-14.045,14.045-14.045
	s14.045,6.3,14.045,14.045v131.709c0,5.523,4.477,10,10,10s10-4.477,10-10v-47.067c0-7.745,6.3-14.045,14.045-14.045
	s14.045,6.3,14.045,14.045v47.067c0,5.523,4.477,10,10,10c5.523,0,10-4.477,10-10v-47.067c0-7.745,6.301-14.045,14.045-14.045
	s14.045,6.3,14.045,14.045v47.067c0,5.523,4.477,10,10,10s10-4.477,10-10v-47.067v-0.143c0-7.745,6.3-14.045,14.045-14.045
	c7.745,0,14.045,6.3,14.045,14.045v89.299c0,29.935-5.95,59.076-17.686,86.613l-16.884,39.62c-2.165,5.081,0.199,10.955,5.279,13.12
	c1.279,0.545,2.608,0.803,3.916,0.803c3.887,0,7.584-2.281,9.204-6.082l16.884-39.62c12.797-30.032,19.287-61.811,19.287-94.454
	v-5.859h151.629c27.019,0,49-21.981,49-49v-17C511.999,294.461,507.523,289.984,502,289.984z M20.002,316.984v-7h77.696l-24.558,36
	H49.002C33.012,345.984,20.002,332.975,20.002,316.984z M99.012,198.044v21.955h-7.013c-9.925,0-18-8.075-18-18
	c0-9.925,8.075-18,18-18h10.058C100.107,188.284,99.012,193.037,99.012,198.044z M164.057,183.999h35.588c9.925,0,18,8.075,18,18
	c0,9.925-8.075,18-18,18h-32.543v-21.955C167.102,193.037,166.007,188.284,164.057,183.999z M277.326,248.499
	c-9.415,0-17.948,3.843-24.117,10.04c-6.158-6.114-14.631-9.898-23.973-9.898c-9.378,0-17.882,3.812-24.045,9.966
	c-6.163-6.155-14.667-9.966-24.045-9.966c-5.007,0-9.76,1.095-14.045,3.044v-11.686h32.543c20.953,0,38-17.047,38-38
	s-17.047-38-38-38H91.999c-20.953,0-38,17.047-38,38s17.047,38,38,38h7.013v49.986h-61.01V50c0-16.542,13.458-30,30-30H444
	c16.542,0,30,13.458,30,30v196.013h-86.011c-5.523,0-10,4.477-10,10c0,5.523,4.477,10,10,10H474v23.972H311.371v-7.441
	C311.372,263.77,296.099,248.499,277.326,248.499z M492,316.984c0,15.991-13.009,29-29,29H311.371v-36H492V316.984z"/>
<path d="M348.15,246.009c-2.64,0-5.21,1.07-7.07,2.93c-1.87,1.86-2.93,4.44-2.93,7.07c0,2.64,1.06,5.21,2.93,7.07
	c1.86,1.87,4.43,2.93,7.07,2.93c2.63,0,5.21-1.06,7.07-2.93c1.86-1.86,2.93-4.43,2.93-7.07c0-2.63-1.07-5.21-2.93-7.07
	C353.351,247.079,350.78,246.009,348.15,246.009z"/>
<path d="M172.161,109.999c-2.64,0-5.21,1.07-7.07,2.93c-1.87,1.86-2.93,4.44-2.93,7.07s1.06,5.21,2.93,7.07
	c1.86,1.86,4.44,2.93,7.07,2.93s5.2-1.07,7.07-2.93c1.86-1.86,2.93-4.44,2.93-7.07s-1.07-5.21-2.93-7.07
	C177.371,111.069,174.792,109.999,172.161,109.999z"/>
<path d="M135.958,109.999H63.999c-5.523,0-10,4.477-10,10s4.477,10,10,10h71.959c5.523,0,10-4.477,10-10
	S141.481,109.999,135.958,109.999z"/>
<path d="M227.644,54H64.052c-5.523,0-10,4.477-10,10s4.477,10,10,10h163.592c5.523,0,10-4.477,10-10S233.167,54,227.644,54z"/>
<path d="M458,197.999v-32.75c0-18.845-12.708-34.767-30-39.678v-15.072c0-11.028-8.972-20-20-20h-35.167
	c-3.645,0-7.054,0.996-10,2.706c-2.946-1.71-6.355-2.706-10-2.706h-35.167c-11.028,0-20,8.972-20,20v14.694
	c-18.012,4.423-31.417,20.7-31.417,40.056v32.75c0,5.523,4.477,10,10,10h171.749C453.523,207.999,458,203.522,458,197.999z
	 M408,110.499v13.5h-35.167v-13.5H408z M317.668,110.499h35.167v13.5h-35.167V110.499z M438,187.999H286.251v-22.75
	c0-11.717,9.533-21.25,21.25-21.25h0.167h55.167h53.917c11.717,0,21.25,9.533,21.25,21.25L438,187.999L438,187.999z"/>
<g>
</g>
<g>
</g>
<g>
</g>
<g>
</g>
<g>
</g>
<g>
</g>
<g>
</g>
<g>
</g>
<g>
</g>
<g>
</g>
<g>
</g>
<g>
</g>
<g>
</g>
<g>
</g>
<g>
</g>
</svg>
