<?xml version="1.0" encoding="iso-8859-1"?>
<!-- Generator: Adobe Illustrator 19.0.0, SVG Export Plug-In . SVG Version: 6.00 Build 0)  -->
<svg version="1.1" id="Capa_1" xmlns="http://www.w3.org/2000/svg" xmlns:xlink="http://www.w3.org/1999/xlink" x="0px" y="0px"
	 viewBox="0 0 469.333 469.333" style="enable-background:new 0 0 469.333 469.333;" xml:space="preserve">
<g>
	<g>
		<g>
			<path d="M426.667,0h-384C19.135,0,0,19.135,0,42.667v384c0,23.531,19.135,42.667,42.667,42.667h384
				c23.531,0,42.667-19.135,42.667-42.667v-384C469.333,19.135,450.198,0,426.667,0z M448,426.667
				c0,11.76-9.573,21.333-21.333,21.333h-384c-11.76,0-21.333-9.573-21.333-21.333v-320H448V426.667z M448,85.333H21.333V42.667
				c0-11.76,9.573-21.333,21.333-21.333h384c11.76,0,21.333,9.573,21.333,21.333V85.333z"/>
			<circle cx="53.333" cy="53.333" r="10.667"/>
			<circle cx="96" cy="53.333" r="10.667"/>
			<circle cx="138.667" cy="53.333" r="10.667"/>
			<path d="M74.667,341.333H288c5.896,0,10.667-4.771,10.667-10.667V160c0-5.896-4.771-10.667-10.667-10.667H74.667
				C68.771,149.333,64,154.104,64,160v170.667C64,336.563,68.771,341.333,74.667,341.333z M85.333,170.667h192V320h-192V170.667z"/>
			<path d="M138.667,192c-17.646,0-32,14.354-32,32v64c0,5.896,4.771,10.667,10.667,10.667c5.896,0,10.667-4.771,10.667-10.667
				v-10.667h21.333V288c0,5.896,4.771,10.667,10.667,10.667c5.896,0,10.667-4.771,10.667-10.667v-64
				C170.667,206.354,156.312,192,138.667,192z M149.333,256H128v-32c0-5.885,4.781-10.667,10.667-10.667s10.667,4.781,10.667,10.667
				V256z"/>
			<path d="M224,192h-21.333c-5.896,0-10.667,4.771-10.667,10.667V288c0,5.896,4.771,10.667,10.667,10.667H224
				c17.646,0,32-14.354,32-32V224C256,206.354,241.646,192,224,192z M234.667,266.667c0,5.885-4.781,10.667-10.667,10.667h-10.667
				v-64H224c5.885,0,10.667,4.781,10.667,10.667V266.667z"/>
			<path d="M74.667,405.333h320c5.896,0,10.667-4.771,10.667-10.667c0-5.896-4.771-10.667-10.667-10.667h-320
				C68.771,384,64,388.771,64,394.667C64,400.563,68.771,405.333,74.667,405.333z"/>
			<path d="M330.667,213.333h64c5.896,0,10.667-4.771,10.667-10.667S400.563,192,394.667,192h-64
				c-5.896,0-10.667,4.771-10.667,10.667S324.771,213.333,330.667,213.333z"/>
			<path d="M330.667,277.333h64c5.896,0,10.667-4.771,10.667-10.667S400.563,256,394.667,256h-64
				c-5.896,0-10.667,4.771-10.667,10.667S324.771,277.333,330.667,277.333z"/>
			<path d="M330.667,341.333h64c5.896,0,10.667-4.771,10.667-10.667c0-5.896-4.771-10.667-10.667-10.667h-64
				c-5.896,0-10.667,4.771-10.667,10.667C320,336.563,324.771,341.333,330.667,341.333z"/>
		</g>
	</g>
</g>
<g>
</g>
<g>
</g>
<g>
</g>
<g>
</g>
<g>
</g>
<g>
</g>
<g>
</g>
<g>
</g>
<g>
</g>
<g>
</g>
<g>
</g>
<g>
</g>
<g>
</g>
<g>
</g>
<g>
</g>
</svg>
