<?xml version="1.0" encoding="iso-8859-1"?>
<!-- Generator: Adobe Illustrator 19.0.0, SVG Export Plug-In . SVG Version: 6.00 Build 0)  -->
<svg version="1.1" id="Capa_1" xmlns="http://www.w3.org/2000/svg" xmlns:xlink="http://www.w3.org/1999/xlink" x="0px" y="0px"
	 viewBox="0 0 512 512" style="enable-background:new 0 0 512 512;" xml:space="preserve">
<g>
	<g>
		<g>
			<path d="M480,10.667H202.667V32H480c6.187,0,10.667,3.52,10.667,6.507v274.987c0,2.987-4.8,6.507-10.667,6.507H276.48
				c0.673-4.662,0.958-9.371,0.853-14.08c0.506-31.031-16.772-59.62-44.48-73.6c16.415-16.906,16.016-43.918-0.89-60.333
				c-16.906-16.415-43.918-16.016-60.333,0.89c-16.359,16.849-16.027,43.75,0.743,60.19c-26.778,14.395-43.251,42.563-42.667,72.96
				c0.042,4.685,0.47,9.359,1.28,13.973h-56.32C68.48,320,64,316.48,64,313.493V202.667H42.667v110.827
				c1.307,16.445,15.532,28.821,32,27.84H480c16.468,0.981,30.693-11.395,32-27.84V38.507C510.693,22.062,496.468,9.685,480,10.667z
				 M202.667,181.333c11.782,0,21.333,9.551,21.333,21.333c0,11.782-9.551,21.333-21.333,21.333
				c-11.782,0-21.333-9.551-21.333-21.333C181.333,190.885,190.885,181.333,202.667,181.333z M254.613,320h-101.76
				c-1.083-4.617-1.655-9.338-1.707-14.08c0-32.533,23.573-59.093,52.693-59.093S256,273.387,256,305.92
				C256.053,310.65,255.589,315.371,254.613,320z"/>
			<path d="M469.333,444.48c15.849-17.437,14.562-44.422-2.875-60.271c-17.437-15.849-44.422-14.562-60.271,2.875
				c-14.791,16.273-14.791,41.123,0,57.396c-13.336,6.393-24.474,16.602-32,29.333c-7.526-12.731-18.664-22.94-32-29.333
				c15.849-17.437,14.562-44.422-2.875-60.271c-17.437-15.849-44.422-14.562-60.271,2.875c-14.791,16.273-14.791,41.123,0,57.396
				c-26.742,11.869-44.089,38.263-44.373,67.52H256c0-29.455,23.878-53.333,53.333-53.333c29.455,0,53.333,23.878,53.333,53.333H384
				c0-29.455,23.878-53.333,53.333-53.333s53.333,23.878,53.333,53.333H512C512.022,483.139,495.41,456.849,469.333,444.48z
				 M309.333,437.333C297.551,437.333,288,427.782,288,416c0-11.782,9.551-21.333,21.333-21.333
				c11.782,0,21.333,9.551,21.333,21.333C330.667,427.782,321.115,437.333,309.333,437.333z M437.333,437.333
				C425.551,437.333,416,427.782,416,416c0-11.782,9.551-21.333,21.333-21.333c11.782,0,21.333,9.551,21.333,21.333
				C458.667,427.782,449.115,437.333,437.333,437.333z"/>
			<path d="M85.333,202.667c0,5.891,4.776,10.667,10.667,10.667h42.667V192h-32v-21.333h42.667v-21.333H32
				c-5.891,0-10.667-4.776-10.667-10.667V32c0-5.891,4.776-10.667,10.667-10.667h117.333C155.224,21.333,160,26.109,160,32v42.667
				h21.333V32c0-17.673-14.327-32-32-32H32C14.327,0,0,14.327,0,32v106.667c0,17.673,14.327,32,32,32h53.333V202.667z"/>
			<path d="M469.333,53.333c0-5.891-4.776-10.667-10.667-10.667H416V64h32v32h21.333V53.333z"/>
			<rect x="448" y="117.333" width="21.333" height="21.333"/>
			<rect x="160" y="96" width="21.333" height="21.333"/>
		</g>
	</g>
</g>
<g>
</g>
<g>
</g>
<g>
</g>
<g>
</g>
<g>
</g>
<g>
</g>
<g>
</g>
<g>
</g>
<g>
</g>
<g>
</g>
<g>
</g>
<g>
</g>
<g>
</g>
<g>
</g>
<g>
</g>
</svg>
