<svg height="511pt" viewBox="0 -16 511.99991 511" width="511pt" xmlns="http://www.w3.org/2000/svg"><path d="m468.292969.5h-248.960938c-16.171875 0-29.332031 13.160156-29.332031 29.332031v39.964844c0 5.523437 4.476562 10 10 10h.5625v175.878906c0 16.175781 13.15625 29.335938 29.332031 29.335938h227.839844c16.171875 0 29.332031-13.160157 29.332031-29.335938v-175.878906h.558594c5.523438 0 10-4.476563 10-10v-39.964844c0-16.171875-13.160156-29.332031-29.332031-29.332031zm-258.292969 29.332031c0-5.144531 4.1875-9.332031 9.332031-9.332031h248.960938c5.144531 0 9.332031 4.1875 9.332031 9.332031v29.964844h-267.625zm100.273438 49.964844h67.078124v92.375l-28.847656-15.320313c-2.933594-1.558593-6.449218-1.558593-9.382812 0l-28.847656 15.320313zm156.792968 175.878906c0 5.148438-4.1875 9.335938-9.332031 9.335938h-227.839844c-5.148437 0-9.332031-4.1875-9.332031-9.335938v-175.878906h69.710938v109.011719c0 3.507812 1.839843 6.761718 4.847656 8.566406 1.582031.953125 3.367187 1.429688 5.152344 1.429688 1.609374 0 3.222656-.386719 4.691406-1.167969l38.851562-20.632813 38.847656 20.632813c3.101563 1.648437 6.835938 1.550781 9.84375-.257813 3.007813-1.808594 4.847657-5.0625 4.847657-8.570312v-109.011719h69.710937zm0 0"/><path d="m509.0625 340c-7.613281-17.433594-28.066406-25.59375-45.589844-18.195312l-69.171875 29.210937c-1.75-6.660156-4.941406-11.421875-7.882812-14.621094-6.59375-7.179687-16.175781-11.128906-26.976563-11.128906-.144531 0-.285156 0-.429687.007813-51.144531 2.195312-108.339844 3.351562-119.875 1.648437-23.347657-20.085937-48.574219-28.660156-73.078125-24.8125-21.078125 3.3125-40.371094 15.574219-56.640625 35.804687-1.261719-.574218-2.660157-.890624-4.136719-.890624h-95.28125c-5.523438 0-10 4.476562-10 9.996093v121.917969c0 5.523438 4.476562 10 10 10h95.28125c5.523438 0 10-4.476562 10-10v-32.679688c7.367188 4.460938 13.65625 9.191407 19.808594 13.824219 16.835937 12.667969 32.738281 24.636719 62.832031 24.636719h133.253906c16.976563 0 33.441407-4.933594 47.621094-14.265625l117.460937-77.308594c14.242188-9.371093 19.628907-27.519531 12.804688-43.144531zm-413.78125 118.9375h-75.28125v-101.917969h75.28125zm389.980469-92.496094-117.457031 77.304688c-10.90625 7.175781-23.574219 10.972656-36.628907 10.972656h-133.253906c-23.410156 0-34.898437-8.648438-50.804687-20.617188-8.835938-6.648437-18.703126-14.074218-31.835938-20.695312v-49.089844c15.121094-24.621094 33.710938-39.277344 53.878906-42.445312 18.992188-2.984375 39.167969 4.4375 58.359375 21.460937.0625.054688.128907.113281.191407.167969 3.648437 3.070312 6.285156 5.289062 71.351562 3.765625 28.96875-.675781 57.6875-1.878906 60.574219-2 3.617187.027344 8.578125.875 12.058593 4.660156 2.445313 2.664063 3.777344 6.464844 3.925782 11.128907-17.917969 16.691406-41.921875 26.195312-66.460938 26.195312h-81.515625c-5.523437 0-10 4.476562-10 9.996094 0 5.523437 4.476563 10 10 10h81.515625c30.292969 0 59.914063-12.015625 81.664063-33.050782l80.429687-33.964843c7.484375-3.160157 16.226563.324219 19.480469 7.773437 2.914063 6.675782.613281 14.429688-5.472656 18.4375zm0 0"/><path d="m182.484375 407.242188c-4.175781 0-8.003906-2.695313-9.40625-6.628907-1.375-3.871093-.214844-8.335937 2.941406-10.992187 3.289063-2.769532 8.082031-3.125 11.742188-.863282 3.5 2.167969 5.339843 6.40625 4.53125 10.445313-.921875 4.617187-5.105469 8.039063-9.808594 8.039063zm0 0"/></svg>