<?xml version="1.0" encoding="iso-8859-1"?>
<!-- Generator: Adobe Illustrator 19.0.0, SVG Export Plug-In . SVG Version: 6.00 Build 0)  -->
<svg version="1.1" id="Layer_1" xmlns="http://www.w3.org/2000/svg" xmlns:xlink="http://www.w3.org/1999/xlink" x="0px" y="0px"
	 viewBox="0 0 511.682 511.682" style="enable-background:new 0 0 511.682 511.682;" xml:space="preserve">
<g transform="translate(0 1)">
	<path style="fill:#FFE100;" d="M160.085,236.068c0,0-139.947-10.24-151.04,50.347c-7.68,41.813,64,47.787,107.52,46.933
		c53.76-0.853,106.667,6.827,157.867,24.747c11.947,4.267,24.747,9.387,38.4,14.507c33.28,14.507,69.973,22.187,106.667,20.48
		c38.4-1.707,78.507-12.8,84.48-52.053c0,0,5.12-91.307-146.773-91.307c0,0-34.987-172.373-132.267-122.88
		C224.939,126.841,174.592,152.441,160.085,236.068"/>
	<path style="fill:#FFFFFF;" d="M143.872,334.201c-43.52,0.853-115.2-5.12-107.52-46.933c6.827-39.253,69.973-48.64,111.787-50.347
		c-34.987-0.853-129.707,1.707-138.24,51.2c-7.68,41.813,64,47.787,107.52,46.933L143.872,334.201z"/>
	<path style="fill:#FFA800;" d="M333.312,247.161c151.893,0,146.773,91.307,146.773,91.307
		c-5.12,37.547-42.667,49.493-80.213,52.053c6.827,0,13.653,0.853,21.333,0c38.4-1.707,78.507-12.8,84.48-52.053
		c0,0,5.12-91.307-146.773-91.307H333.312z"/>
	<g>
		<path style="fill:#FDCC00;" d="M311.979,224.975c-1.707,1.707-2.56,2.56-4.267,4.267c1.707,1.707,2.56,2.56,4.267,4.267
			c0.853,0.853,1.707,1.707,2.56,3.413c12.8-1.707,24.747-3.413,36.693-5.973c-2.56-8.533-5.973-20.48-11.093-31.573
			c-3.413,0.853-7.68,0.853-11.093,1.707C326.485,207.908,320.512,216.441,311.979,224.975"/>
		<path style="fill:#FDCC00;" d="M255.659,232.654c1.707-1.707,2.56-2.56,4.267-4.267c-1.707-1.707-2.56-2.56-4.267-4.267
			c-5.973-5.973-11.093-12.8-15.36-19.627c-23.893-0.853-46.933-3.413-69.973-6.827c-3.413,9.387-6.827,20.48-9.387,32.427
			c29.013,5.973,58.88,8.533,87.893,8.533C251.392,236.921,253.952,235.215,255.659,232.654"/>
	</g>
	<path style="fill:#E4667F;" d="M288.085,200.228c-1.707,1.707-2.56,2.56-4.267,4.267c-1.707-1.707-2.56-2.56-4.267-4.267
		c-17.067-17.067-35.84-24.747-41.813-17.92c-5.973,6.827,1.707,25.6,17.92,41.813c1.707,1.707,2.56,2.56,4.267,4.267
		c-1.707,1.707-2.56,2.56-4.267,4.267c-17.067,17.067-24.747,35.84-17.92,41.813s25.6-1.707,41.813-17.92
		c1.707-1.707,2.56-2.56,4.267-4.267c1.707,1.707,2.56,2.56,4.267,4.267c17.067,17.067,35.84,24.747,42.667,17.92
		s-1.707-25.6-17.92-41.813c-1.707-1.707-2.56-2.56-4.267-4.267c1.707-1.707,2.56-2.56,4.267-4.267
		c17.067-17.067,24.747-35.84,17.92-41.813C323.925,175.481,305.152,184.014,288.085,200.228"/>
	<path d="M323.925,285.561L323.925,285.561c-11.093,0-26.453-7.68-40.107-21.333c-13.653,12.8-29.013,21.333-40.107,21.333
		c-6.827,0-10.24-2.56-12.8-5.12c-3.413-3.413-7.68-11.093-1.707-26.453c3.413-8.533,9.387-17.067,17.92-25.6
		c-7.68-8.533-14.507-17.067-17.92-25.6c-6.827-15.36-1.707-23.04,1.707-26.453c2.56-2.56,5.973-5.12,12.8-5.12
		c11.093,0,26.453,7.68,40.107,21.333c13.653-12.8,29.013-21.333,40.107-21.333c6.827,0,10.24,2.56,12.8,5.12
		c3.413,3.413,7.68,11.093,1.707,26.453c-3.413,8.533-9.387,17.067-17.92,25.6c7.68,8.533,14.507,17.067,17.92,25.6
		c6.827,15.36,1.707,23.04-1.707,26.453C334.165,283.001,329.899,285.561,323.925,285.561z M283.819,243.748L283.819,243.748
		c2.56,0,5.12,0.853,6.827,2.56c0.853,1.707,2.56,2.56,3.413,4.267c11.947,11.947,23.893,17.92,29.867,17.92c0,0,0,0,0.853,0
		c0-3.413-4.267-16.213-17.92-29.867c-1.707-1.707-2.56-2.56-4.267-3.413c-1.707-1.707-3.413-4.267-3.413-6.827
		s0.853-5.12,2.56-6.827c1.707-0.853,2.56-2.56,4.267-3.413c14.507-14.507,18.773-26.453,17.92-29.867c0,0,0,0-0.853,0
		c-5.973,0-17.92,5.973-29.867,17.92c-1.707,1.707-2.56,2.56-3.413,4.267c-1.707,1.707-4.267,2.56-5.973,2.56
		c-2.56,0-5.12-0.853-6.827-2.56c-0.853-1.707-2.56-2.56-3.413-4.267c-11.947-11.947-23.893-17.92-29.867-17.92c0,0,0,0-0.853,0
		c0,3.413,3.413,16.213,17.92,29.867c1.707,1.707,2.56,2.56,4.267,3.413c1.707,1.707,2.56,4.267,2.56,6.827
		c0,2.56-0.853,5.12-2.56,5.973s-2.56,2.56-4.267,3.413c-14.507,14.507-17.92,26.453-17.92,29.867c0,0,0,0,0.853,0
		c5.973,0,17.92-5.973,29.867-17.92c1.707-1.707,2.56-2.56,3.413-4.267C279.552,245.454,282.112,243.748,283.819,243.748z"/>
	<path d="M410.112,401.615c-33.28,0-67.413-7.68-100.693-21.333c-11.947-5.12-24.747-10.24-37.547-14.507
		c-46.08-16.213-95.573-23.893-148.48-23.893h-11.947c-53.76,0-87.893-9.387-103.253-27.307c-6.827-8.533-9.387-18.773-7.68-29.867
		c9.387-50.347,90.453-58.027,138.24-58.027c5.973,0,11.093,0,14.507,0c16.213-81.067,64.853-107.52,67.413-108.373
		c12.8-6.827,25.6-10.24,37.547-10.24c69.12,0,98.987,104.107,105.813,132.267c57.173,0.853,98.987,14.507,123.733,41.813
		c25.6,27.307,23.893,57.173,23.893,58.88c-3.413,26.453-22.187,57.173-92.16,59.733
		C416.939,401.615,413.525,401.615,410.112,401.615z M123.392,324.814c54.613,0,105.813,8.533,154.453,24.747
		c12.8,4.267,25.6,9.387,38.4,15.36c34.133,14.507,69.12,21.333,103.253,20.48c46.933-1.707,72.533-17.067,75.947-44.373
		c0,0,0.853-23.893-19.627-45.227c-23.04-23.893-62.293-35.84-116.907-35.84h-0.853l0,0c-4.267,0-7.68-2.56-8.533-6.827
		c-0.853-2.56-27.307-127.147-91.307-127.147c-9.387,0-19.627,2.56-29.867,7.68c-1.707,0.853-46.08,25.6-59.733,103.253
		c-0.853,4.267-4.267,7.68-9.387,6.827c0,0-8.533-0.853-21.333-0.853c-25.6,0.853-112.64,4.267-120.32,45.227
		c-0.853,6.827,0,11.947,3.413,16.213c11.093,12.8,43.52,20.48,89.6,20.48H123.392z"/>
	<path d="M315.392,244.601c-2.56,0-4.267-0.853-5.973-2.56l-1.707-1.707c-0.853-0.853-0.853-0.853-1.707-1.707
		c-1.707-1.707-2.56-2.56-4.267-3.413c-0.853-1.707-2.56-4.267-2.56-6.827s0.853-5.12,2.56-6.827c1.707-0.853,2.56-2.56,4.267-3.413
		c6.827-6.827,12.8-15.36,16.213-22.187c0.853-2.56,3.413-4.267,6.827-5.12l4.267-0.853c2.56,0,4.267-0.853,6.827-0.853
		c4.267-0.853,7.68,1.707,9.387,5.12c4.267,10.24,7.68,21.333,11.093,32.427c0.853,2.56,0,5.12-0.853,6.827
		c-0.853,1.707-3.413,3.413-5.973,4.267c-11.093,2.56-23.893,4.267-37.547,5.973C316.245,244.601,315.392,244.601,315.392,244.601z
		 M335.872,207.908c-3.413,5.973-7.68,12.8-13.653,18.773c6.827-0.853,12.8-1.707,18.773-2.56
		C339.285,218.148,337.579,213.028,335.872,207.908z"/>
	<path d="M249.685,248.014L249.685,248.014c-30.72,0-60.587-3.413-89.6-9.387c-2.56-0.853-4.267-1.707-5.12-3.413
		s-1.707-4.267-1.707-6.827c2.56-11.947,5.12-23.04,9.387-33.28c1.707-4.267,5.12-5.973,9.387-5.12
		c22.187,4.267,45.227,5.973,69.12,6.827c2.56,0,5.973,1.707,6.827,4.267c3.413,5.973,7.68,11.947,13.653,17.92
		c1.707,1.707,2.56,2.56,4.267,3.413c1.707,1.707,2.56,4.267,2.56,6.827c0,2.56-0.853,5.12-2.56,5.973
		c-1.707,0.853-2.56,2.56-4.267,3.413c-1.707,1.707-4.267,4.267-5.973,5.973C254.805,247.161,252.245,248.014,249.685,248.014z
		 M172.032,224.121c23.893,4.267,48.64,6.827,74.24,6.827c0.853-0.853,1.707-1.707,1.707-2.56c-4.267-5.12-8.533-10.24-11.947-15.36
		c-20.48-0.853-40.107-2.56-59.733-5.973C174.592,213.028,172.885,218.148,172.032,224.121z"/>
</g>
<g>
</g>
<g>
</g>
<g>
</g>
<g>
</g>
<g>
</g>
<g>
</g>
<g>
</g>
<g>
</g>
<g>
</g>
<g>
</g>
<g>
</g>
<g>
</g>
<g>
</g>
<g>
</g>
<g>
</g>
</svg>
