<?xml version="1.0" encoding="iso-8859-1"?>
<!-- Generator: Adobe Illustrator 19.0.0, SVG Export Plug-In . SVG Version: 6.00 Build 0)  -->
<svg version="1.1" id="Layer_1" xmlns="http://www.w3.org/2000/svg" xmlns:xlink="http://www.w3.org/1999/xlink" x="0px" y="0px"
	 viewBox="0 0 511.999 511.999" style="enable-background:new 0 0 511.999 511.999;" xml:space="preserve">
<rect x="175.241" y="69.221" style="fill:#E0E0E3;" width="62.68" height="87.24"/>
<rect x="175.241" y="117.151" style="fill:#C7C5CC;" width="62.68" height="39.31"/>
<rect x="142.171" y="141.981" style="fill:#E0E0E3;" width="128.83" height="62.59"/>
<polygon style="fill:#FFF4CA;" points="296.959,189.094 388.009,346.796 296.959,504.499 114.86,504.499 23.811,346.796 
	114.86,189.094 "/>
<polygon style="fill:#FFEB96;" points="388.011,346.791 296.961,504.503 114.862,504.503 23.813,346.791 38.026,322.175 
	114.862,455.248 296.961,455.248 373.797,322.175 "/>
<path style="fill:#2A292C;" d="M488.181,418.993c0,23.861-19.34,43.202-43.202,43.202c-23.85,0-43.202-19.341-43.202-43.202
	c0-5.081,0.881-9.968,2.495-14.5c5.963-16.731,21.939-28.702,40.707-28.702s34.744,11.971,40.707,28.702
	C487.3,409.025,488.181,413.911,488.181,418.993z"/>
<path style="fill:#3C3A41;" d="M485.687,404.493c-5.963,16.731-21.939,28.702-40.707,28.702s-34.744-11.971-40.707-28.702
	c5.963-16.731,21.939-28.702,40.707-28.702S479.724,387.762,485.687,404.493z"/>
<rect x="426.391" y="354.181" style="fill:#FFE164;" width="37.19" height="27.894"/>
<path d="M394.503,343.047l-91.049-157.703c-1.34-2.32-3.815-3.75-6.495-3.75h-18.461v-39.611c0-4.142-3.357-7.5-7.5-7.5h-25.57
	v-31.466c10.187,0.622,30.815,3.756,55.609,17.708c33.325,18.751,80.414,61.252,115.489,157.238c1.11,3.041,3.984,4.928,7.045,4.928
	c0.854,0,1.724-0.147,2.573-0.458c3.891-1.422,5.892-5.728,4.47-9.619c-16.114-44.101-36.129-81.236-59.486-110.376
	c-18.88-23.554-39.987-41.987-62.735-54.787c-27.793-15.639-51.187-19.037-62.965-19.65V69.223c0-4.142-3.357-7.5-7.5-7.5h-62.68
	c-4.143,0-7.5,3.358-7.5,7.5v65.26h-25.58c-4.143,0-7.5,3.358-7.5,7.5v39.611h-19.809c-2.68,0-5.155,1.43-6.495,3.75l-22.363,38.735
	c-2.071,3.587-0.842,8.174,2.745,10.245c3.588,2.071,8.175,0.841,10.245-2.745l20.198-34.985h173.439l86.719,150.203
	l-86.719,150.202H119.19L32.471,346.797l52.854-91.545c2.071-3.587,0.842-8.174-2.745-10.245c-3.589-2.072-8.175-0.842-10.245,2.745
	l-55.019,95.295c-1.34,2.32-1.34,5.18,0,7.5l91.049,157.702c1.34,2.32,3.815,3.75,6.495,3.75h182.1c2.68,0,5.155-1.43,6.495-3.75
	l91.049-157.702C395.843,348.226,395.843,345.367,394.503,343.047z M263.498,181.594h-6.497v-32.111h6.497V181.594z
	 M177.628,149.483v32.111h-6.458v-32.111H177.628z M192.628,149.483h6.458v32.111h-6.458L192.628,149.483L192.628,149.483z
	 M214.086,149.483h6.458v32.111h-6.458L214.086,149.483L214.086,149.483z M235.544,149.483h6.457v32.111h-6.457V149.483z
	 M182.748,76.723h47.68v18.61c0,0.018,0,0.035,0,0.053v39.097h-47.68L182.748,76.723L182.748,76.723z M149.668,149.483h6.502v32.111
	h-6.502V149.483z"/>
<path d="M76.532,56.13l30.784,9.889c0.763,0.245,1.535,0.361,2.296,0.361c3.171,0,6.117-2.027,7.139-5.208
	c1.267-3.944-0.903-8.168-4.847-9.435L81.12,41.848c-3.942-1.269-8.169,0.902-9.435,4.847C70.418,50.639,72.588,54.863,76.532,56.13
	z"/>
<path d="M110.14,82.861L81.38,97.636c-3.684,1.893-5.136,6.414-3.243,10.098c1.329,2.588,3.955,4.074,6.677,4.074
	c1.153,0,2.325-0.267,3.422-0.831l28.76-14.775c3.684-1.893,5.136-6.414,3.243-10.098C118.346,82.42,113.824,80.967,110.14,82.861z"
	/>
<path d="M124.007,39.69c1.329,2.588,3.955,4.074,6.677,4.074c1.153,0,2.325-0.267,3.422-0.831c3.684-1.893,5.136-6.414,3.243-10.098
	l-14.775-28.76c-1.893-3.685-6.415-5.138-10.099-3.244c-3.684,1.893-5.136,6.414-3.243,10.098L124.007,39.69z"/>
<path d="M471.081,375.524v-21.34c0-4.142-3.357-7.5-7.5-7.5h-11.07c-3.973-16.507-8.931-34.525-13.864-50.317
	c-1.234-3.954-5.438-6.16-9.396-4.923c-3.953,1.235-6.157,5.441-4.923,9.395c4.49,14.377,9.003,30.637,12.745,45.845h-10.686
	c-4.143,0-7.5,3.358-7.5,7.5v21.338c-15.088,9.097-24.609,25.668-24.609,43.471c0,27.956,22.748,50.7,50.71,50.7
	c27.956,0,50.7-22.744,50.7-50.7C495.689,401.192,486.169,384.622,471.081,375.524z M433.888,361.684h12.678
	c0.002,0,0.004,0,0.006,0c0.003,0,0.006,0,0.009,0h9.501v12.894h-22.193v-12.894H433.888z M444.989,454.693
	c-19.69,0-35.71-16.015-35.71-35.7c0-11.875,6.019-22.969,15.686-29.555c0.461,0.089,0.937,0.139,1.424,0.139h37.193
	c0.486,0,0.961-0.05,1.421-0.139c9.666,6.585,15.686,17.679,15.686,29.554C480.689,438.678,464.674,454.693,444.989,454.693z"/>
<path d="M202.651,89.42c-4.143,0-7.5,3.358-7.5,7.5v12.646c0,4.142,3.357,7.5,7.5,7.5s7.5-3.358,7.5-7.5V96.92
	C210.151,92.778,206.793,89.42,202.651,89.42z"/>
<path d="M258.552,344.765c4.143,0,7.5-3.358,7.5-7.5s-3.357-7.5-7.5-7.5H154.62c-4.143,0-7.5,3.358-7.5,7.5s3.357,7.5,7.5,7.5
	H258.552z"/>
<path d="M154.62,446.534c-4.143,0-7.5,3.358-7.5,7.5s3.357,7.5,7.5,7.5h103.932c4.143,0,7.5-3.358,7.5-7.5s-3.357-7.5-7.5-7.5
	H154.62z"/>
<path d="M97.163,372.209c0,4.142,3.357,7.5,7.5,7.5h203.845c4.143,0,7.5-3.358,7.5-7.5s-3.357-7.5-7.5-7.5H104.663
	C100.521,364.709,97.163,368.067,97.163,372.209z"/>
<g>
</g>
<g>
</g>
<g>
</g>
<g>
</g>
<g>
</g>
<g>
</g>
<g>
</g>
<g>
</g>
<g>
</g>
<g>
</g>
<g>
</g>
<g>
</g>
<g>
</g>
<g>
</g>
<g>
</g>
</svg>
