<?xml version="1.0" encoding="iso-8859-1"?>
<!-- Generator: Adobe Illustrator 19.0.0, SVG Export Plug-In . SVG Version: 6.00 Build 0)  -->
<svg version="1.1" id="Layer_1" xmlns="http://www.w3.org/2000/svg" xmlns:xlink="http://www.w3.org/1999/xlink" x="0px" y="0px"
	 viewBox="0 0 496 496" style="enable-background:new 0 0 496 496;" xml:space="preserve">
<g>
	<g>
		<g>
			
				<rect x="55.99" y="254.01" transform="matrix(0.2167 0.9762 -0.9762 0.2167 306.0974 142.9137)" width="15.999" height="16.391"/>
			<path d="M448,233.232V192h-56v10.904l-88-47.664V92.752c0-3.672-0.368-7.36-1.088-10.984l-8.8-43.96
				C289.736,15.896,270.344,0,248,0s-41.736,15.896-46.12,37.808l-8.8,43.968c-0.712,3.616-1.08,7.304-1.08,10.976v62.488
				l-88,47.664V192H48v41.232l-48,26V304h16.688L192,273.512v63.336c0,19.536,2.992,38.824,8.6,57.488L120,451.88V496h16.984
				l89.768-22.448l7.48,22.448h27.528l7.48-22.448l88.816,22.208L376,496v-44.12l-80.6-57.552c5.608-18.664,8.6-37.944,8.6-57.488
				v-63.336l174.632,30.368L496,304v-44.768L448,233.232z M64,208h24v3.568l-24,13V208z M192,225.576L86.264,249.072l3.472,15.624
				L192,241.976v15.296L16,287.88v-19.12l176-95.336V225.576z M136,479.752V460.12l69.688-49.76l15.992,47.984L136,479.752z
				 M250.232,480h-4.472l-28.32-84.976c-6.264-18.792-9.44-38.368-9.44-58.184V92.752c0-2.624,0.256-5.264,0.776-7.84l8.8-43.96
				C220.464,26.496,233.256,16,248,16s27.536,10.496,30.432,24.944l8.8,43.952c0.512,2.592,0.768,5.232,0.768,7.856v244.096
				c0,19.816-3.176,39.392-9.44,58.176L250.232,480z M360,460.12v19.632l-85.68-21.416l15.992-47.984L360,460.12z M408,208h24
				v16.568l-24-13V208z M480,287.88l-176-30.608v-15.296l102.264,22.728l3.472-15.624L304,225.584v-52.152l176,95.336V287.88z"/>
			<rect x="423.829" y="254.203" transform="matrix(0.9762 0.2169 -0.2169 0.9762 67.1562 -87.4637)" width="16.392" height="16"/>
		</g>
	</g>
</g>
<g>
</g>
<g>
</g>
<g>
</g>
<g>
</g>
<g>
</g>
<g>
</g>
<g>
</g>
<g>
</g>
<g>
</g>
<g>
</g>
<g>
</g>
<g>
</g>
<g>
</g>
<g>
</g>
<g>
</g>
</svg>
