<svg height="511pt" viewBox="1 -42 511.999 511" width="511pt" xmlns="http://www.w3.org/2000/svg"><path d="m508.933594 391.589844-33.484375-114.585938c-6.960938-23.8125-10.488281-48.464844-10.488281-73.273437v-42.066407c0-8.863281-7.210938-16.078124-16.078126-16.078124h-8.558593c1.238281-4.34375 1.890625-8.859376 1.890625-13.421876v-55.785156c0-26.949218-21.925782-48.875-48.875-48.875-5.488282 0-10.878906.90625-16.027344 2.699219-7.703125-18.058594-25.300781-29.703125-44.960938-29.703125-19.660156 0-37.257812 11.644531-44.957031 29.703125-5.152343-1.792969-10.542969-2.699219-16.03125-2.699219-8.242187 0-16.238281 2.054688-23.382812 5.960938-6.492188-3.1875-13.78125-4.988282-21.488281-4.988282-5.488282 0-10.875.910157-16.027344 2.703126-7.703125-18.0625-25.300782-29.707032-44.957032-29.707032-19.660156 0-37.257812 11.644532-44.960937 29.707032-5.148437-1.792969-10.539063-2.703126-16.027344-2.703126-15.867187 0-30.765625 7.734376-39.925781 20.699219-5.058594-1.71875-10.339844-2.59375-15.714844-2.59375-26.953125 0-48.878906 21.925781-48.878906 48.875 0 26.953125 21.925781 48.878907 48.875 48.878907 6.53125 0 12.878906-1.273438 18.863281-3.785157 9.292969 10.617188 22.683594 16.699219 36.78125 16.699219 19.660157 0 37.253907-11.644531 44.957031-29.703125 5.148438 1.789063 10.539063 2.699219 16.03125 2.699219 4.089844 0 8.164063-.507813 12.109376-1.515625v4.40625c0 4.214843.554687 8.402343 1.617187 12.449219h-7.15625c-8.867187 0-16.078125 7.210937-16.078125 16.078124v42.066407c0 24.808593-3.527344 49.460937-10.488281 73.273437l-32.1875 110.144532h-97.417969c-6.996094 0-12.6875 5.691406-12.6875 12.6875v14.925781c0 6.996093 5.691406 12.6875 12.6875 12.6875h483.40625c6.996094 0 12.6875-5.691407 12.6875-12.6875v-14.925781c0-3.148438-1.160156-6.027344-3.066406-8.246094zm-237.570313-349.160156c3.917969 0 7.761719.664062 11.417969 1.976562 7.257812 2.597656 15.261719-.941406 18.21875-8.054688 5.285156-12.714843 17.59375-20.925781 31.351562-20.925781 13.761719 0 26.070313 8.210938 31.355469 20.925781 2.957031 7.113282 10.957031 10.652344 18.214844 8.054688 3.660156-1.3125 7.5-1.976562 11.417969-1.976562 18.722656 0 33.949218 15.230468 33.949218 33.949218v55.785156c0 4.636719-.953124 9.207032-2.765624 13.421876h-62.363282c-1.8125-4.214844-2.769531-8.785157-2.769531-13.421876v-4.878906c0-4.542968-2.0625-8.734375-5.65625-11.503906-3.628906-2.796875-8.261719-3.730469-12.710937-2.554688-2.8125.742188-5.730469 1.117188-8.671876 1.117188-3.917968 0-7.757812-.664062-11.417968-1.972656-7.253906-2.601563-15.257813.933594-18.214844 8.050781-.519531 1.242187-1.113281 2.464844-1.777344 3.640625-2.027344 3.589844-.761718 8.140625 2.828125 10.167969 3.585938 2.023437 8.140625.761719 10.167969-2.828125.878906-1.5625 1.683594-3.183594 2.386719-4.832032 5.148437 1.792969 10.539062 2.699219 16.027343 2.699219 4.097657 0 8.171876-.507812 12.113282-1.515625v4.410156c0 4.5625.652344 9.078126 1.890625 13.421876h-8.582031c-8.867188 0-16.078126 7.210937-16.078126 16.078124v42.066407c0 24.808593-3.53125 49.460937-10.488281 73.273437l-.726562 2.492188-.730469-2.492188c-6.957031-23.8125-10.484375-48.464844-10.484375-73.273437v-42.066407c0-8.863281-7.214844-16.078124-16.078125-16.078124h-9.4375c1.0625-4.046876 1.617188-8.234376 1.617188-12.449219v-55.78125c0-13-5.109376-24.820313-13.417969-33.585938 3.039062-.875 6.195312-1.339843 9.414062-1.339843zm-78.820312 90.707031v-4.878907c0-4.542968-2.0625-8.734374-5.65625-11.503906-3.628907-2.792968-8.261719-3.726562-12.707031-2.554687-2.816407.742187-5.734376 1.121093-8.675782 1.121093-3.917968 0-7.757812-.667968-11.417968-1.976562-7.257813-2.597656-15.257813.9375-18.214844 8.054688-5.285156 12.710937-17.59375 20.925781-31.351563 20.925781-9.84375 0-19.195312-4.273438-25.652343-11.722657-4.175782-4.816406-10.882813-6.386718-16.6875-3.90625-4.210938 1.800782-8.6875 2.710938-13.300782 2.710938-18.722656 0-33.953125-15.230469-33.953125-33.949219s15.230469-33.949219 33.953125-33.949219c3.8125 0 7.558594.632813 11.132813 1.875 6.199219 2.15625 12.882812-.011718 16.636719-5.402343 6.355468-9.128907 16.773437-14.578125 27.871093-14.578125 3.917969 0 7.757813.664062 11.417969 1.972656 7.257812 2.601562 15.257812-.9375 18.214844-8.050781 5.285156-12.714844 17.59375-20.925781 31.355468-20.925781 13.757813 0 26.066407 8.210937 31.351563 20.925781 2.957031 7.113281 10.960937 10.652343 18.214844 8.050781 3.660156-1.308594 7.5-1.972656 11.417969-1.972656 18.722656 0 33.953124 15.230468 33.953124 33.949218v55.785157c0 4.269531-.808593 8.503906-2.359374 12.445312h-63.183594c-1.550782-3.9375-2.359375-8.171875-2.359375-12.445312zm304.53125 279.386719h-478.929688v-10.445313h128.960938c4.125 0 7.464843-3.34375 7.464843-7.464844 0-4.121093-3.339843-7.460937-7.464843-7.460937h-18.230469l30.960938-105.960938c7.355468-25.171875 11.085937-51.234375 11.085937-77.460937v-42.066407c0-.632812.519531-1.152343 1.152344-1.152343h111.113281c.632812 0 1.152344.519531 1.152344 1.152343v42.066407c0 26.226562 3.726562 52.289062 11.085937 77.460937l11.90625 40.753906c1.15625 3.957032 5.300781 6.226563 9.257813 5.070313 3.957031-1.152344 6.226562-5.300781 5.070312-9.253906l-3.40625-11.660157 7.277344-24.910156c7.359375-25.171875 11.085938-51.234375 11.085938-77.460937v-42.066407c0-.632812.519531-1.152343 1.152343-1.152343h111.113281c.632813 0 1.152344.519531 1.152344 1.152343v42.066407c0 26.226562 3.730469 52.289062 11.085938 77.460937l30.964844 105.960938h-150.148438l-10.980469-37.578125c-1.15625-3.957031-5.300781-6.230469-9.257812-5.074219s-6.226563 5.300781-5.066407 9.257812l9.757813 33.394532h-147.773437c-4.121094 0-7.460938 3.339844-7.460938 7.460937 0 4.121094 3.339844 7.464844 7.460938 7.464844h318.457031zm0 0"/></svg>