<svg height="512" viewBox="0 0 56 56" width="512" xmlns="http://www.w3.org/2000/svg"><g id="Page-1" fill="none" fill-rule="evenodd"><g id="033---Pump" fill="rgb(0,0,0)" fill-rule="nonzero"><path id="Shape" d="m22 8c-.688908-.0006201-1.3701016-.14503314-2-.424v2.424c0 .5522847.4477153 1 1 1h2c.5522847 0 1-.4477153 1-1v-2.424c-.6298984.27896686-1.311092.4233799-2 .424z"/><path id="Shape" d="m27 46v-20c0-.5522847-.4477153-1-1-1h-8c-.5522847 0-1 .4477153-1 1v20c0 .5522847.4477153 1 1 1h8c.5522847 0 1-.4477153 1-1zm-8-18c0-.5522847.4477153-1 1-1s1 .4477153 1 1v2c0 .5522847-.4477153 1-1 1s-1-.4477153-1-1zm0 6c0-.5522847.4477153-1 1-1s1 .4477153 1 1v10c0 .5522847-.4477153 1-1 1s-1-.4477153-1-1z"/><path id="Shape" d="m46 24v2c0 .5522847.4477153 1 1 1h5c.5522847 0 1-.4477153 1-1v-1c0-5.5228475-4.4771525-10-10-10h-10c-.5522847 0-1 .4477153-1 1v5c0 .5522847.4477153 1 1 1h11c1.1045695 0 2 .8954305 2 2z"/><path id="Shape" d="m14 14v8c0 .5522847.4477153 1 1 1h14c.5522847 0 1-.4477153 1-1v-8c0-.5522847-.4477153-1-1-1h-14c-.5522847 0-1 .4477153-1 1z"/><path id="Shape" d="m30 49h-16c-2.7600532.0033061-4.99669388 2.2399468-5 5v1c0 .5522847.44771525 1 1 1h24c.5522847 0 1-.4477153 1-1v-1c-.0033061-2.7600532-2.2399468-4.9966939-5-5z"/><path id="Shape" d="m22 6c1.650238.0000265 2.9906487-1.33278852 3-2.983v-.038c-.0115788-1.65407113-1.3598084-2.98667316-3.0139021-2.97896745-1.6540937.00770572-2.989849 1.35281129-2.9860163 3.0069185.0038326 1.65410722 1.3458067 2.99300842 2.9999184 2.99304895z"/><path id="Shape" d="m12.521 7.992c.8105702-.69354857 1.6664673-1.33229769 2.562-1.912.7329708-.45223515 1.5132956-.82278045 2.327-1.105-.2700933-.62343042-.4096275-1.29557691-.41-1.975-1.0445552.34399675-2.0450795.80952083-2.981 1.387-.9371923.60580645-1.8349964 1.27047541-2.688 1.99-.8.651-1.465 1.182-2.178 1.667-1.876 1.275-4.545 1.914-8.161 1.956-.26615675.0007184-.52074225.1088992-.706.3-.28183177.2875259-.36374558.716027-.20783927 1.0872325.1559063.3712055.51922247.61271.92183927.6127675 4.07-.038 7.012-.768 9.269-2.3.823-.553 1.583-1.166 2.252-1.708z"/><path id="Shape" d="m54.573 50.638-.361 4.443c-.0422907.5204263-.477861.9207155-1 .919h-8.435c-.5224937.0016745-.958203-.3991781-1-.92l-.548-6.832c-.087-1.089-.144-1.8-.2-2.522.259.022.519.043.781.043.6412014-.0007135 1.280836-.0633374 1.91-.187 1.1959435-.288402 2.3459615-.7417454 3.417-1.347 1.1985798-.7803642 2.5958062-1.2006427 4.026-1.211.693383.077377 1.3640645.293682 1.972.636-.1793333 2.236-.3666667 4.562-.562 6.978zm.735-9.106c-.6170964-.2562108-1.2671064-.42452-1.931-.5-1.943-.215-3.568.617-5.143 1.415-.9092952.5189012-1.8848878.9118295-2.9 1.168-.8141355.1603599-1.6486886.1893937-2.472.086-.086-1.063-.2-2.495-.387-4.761l-.394-4.863c-.0226708-.2789479.0725901-.5546313.2626396-.7600748.1900496-.2054436.4574943-.3218449.7373604-.3209252h11.835c.2787539-.0025432.5457651.112084.7359176.3159276.1901526.2038435.285969.4781674.2640824.7560724-.1933333 2.35-.396 4.838-.608 7.464z"/></g></g></svg>