<svg height="512pt" viewBox="0 -46 512 511" width="512pt" xmlns="http://www.w3.org/2000/svg"><path d="m229.914062 273.472656 15.136719-56.570312h5.382813v-15h-121.585938l-3.941406-14.742188h-36.054688v15h24.535157l24.175781 90.480469h2.699219c-.582031 1.929687-.898438 3.972656-.898438 6.09375 0 11.628906 9.464844 21.089844 21.09375 21.089844 11.632813 0 21.09375-9.460938 21.09375-21.089844 0-2.117187-.3125-4.164063-.898437-6.09375h14.605468c-.585937 1.929687-.898437 3.972656-.898437 6.09375 0 11.628906 9.460937 21.089844 21.09375 21.089844 11.628906 0 21.09375-9.460938 21.09375-21.089844 0-11.632813-9.464844-21.09375-21.09375-21.09375h-66.371094l-1.113281-4.167969zm-57.035156-15v-13.285156h16.640625v13.285156zm31.640625 0v-13.285156h17.4375l-3.554687 13.285156zm25.003907-41.570312-3.554688 13.285156h-21.449219v-13.285156zm-40.003907 0v13.285156h-16.640625v-13.285156zm-31.640625 0v13.285156h-21.453125l-3.554687-13.285156zm8.671875 81.828125c0 3.359375-2.734375 6.09375-6.09375 6.09375s-6.09375-2.730469-6.09375-6.09375c0-3.359375 2.734375-6.089844 6.09375-6.089844s6.09375 2.730469 6.09375 6.089844zm54.992188 0c0 3.359375-2.734375 6.09375-6.09375 6.09375s-6.09375-2.730469-6.09375-6.09375c0-3.359375 2.734375-6.089844 6.09375-6.089844s6.09375 2.730469 6.09375 6.089844zm-77.546875-40.257813-3.554688-13.285156h17.4375v13.285156zm0 0"/><path d="m404.503906 197.910156-16.84375-28.160156h-12.464844l-17.160156 28.160156h-11.878906v45.386719h70.816406v-45.386719zm-23.136718-9.460937 5.660156 9.457031h-11.425782zm20.609374 39.847656h-40.816406v-15.390625h40.816406zm0 0"/><path d="m482.742188.5h-453.484376l-29.257812 31.445312v97.433594l29.1875 29.1875h39.457031l21.6875-21.6875 21.6875 21.6875h39.457031l21.6875-21.6875 21.6875 21.6875h39.457032l21.691406-21.6875 21.6875 21.6875h39.457031l21.6875-21.6875 21.6875 21.6875h39.457031l21.6875-21.6875 21.6875 21.6875h39.457032l29.191406-29.1875v-97.433594zm-420.308594 143.066406h-27.03125l-20.402344-20.402344v-56.648437h67.832031v56.648437zm82.832031 0h-27.03125l-20.398437-20.402344v-56.648437h67.832031v56.648437zm82.832031 0h-27.027344l-20.402343-20.402344v-56.648437h67.832031v56.648437zm82.835938 0h-27.03125l-20.402344-20.402344v-56.648437h67.832031v56.648437zm82.832031 0h-27.03125l-20.398437-20.402344v-56.648437h67.832031v56.648437zm103.234375-20.402344-20.402344 20.402344h-27.027344l-20.402343-20.402344v-56.648437h67.832031zm-482-71.648437v-13.671875l20.789062-22.34375h440.421876l20.789062 22.34375v13.671875zm0 0"/><path d="m486.480469 165.074219h15v192.082031h-15zm0 0"/><path d="m10.996094 165.554688h15v191.601562h-15zm0 0"/><path d="m76.464844 171.066406h-15l.046875 176.578125h216.316406l-.050781-178.8125-15 .003907.046875 163.808593h-186.316407zm0 0"/><path d="m450.0625 171.066406h-15v198.585938h-106.992188v-198.585938h-15v198.585938h-313.070312v50.4375h512v-50.4375h-61.9375zm46.9375 213.589844v20.433594h-482v-20.433594zm0 0"/><path d="m425.0625 355.738281h-15v-50.484375h15zm0-60.484375h-15v-15h15zm0-25h-15v-15h15zm0 0"/><path d="m250.433594 185.601562h-57.933594v-15h57.933594zm-67.933594 0h-15v-15h15zm-25 0h-15v-15h15zm0 0"/><path d="m477 41.515625h-212.417969v-15h212.417969zm-222.417969 0h-15v-15h15zm-25 0h-15v-15h15zm0 0"/></svg>