<svg id="Capa_1" enable-background="new 0 0 512 512" height="512" viewBox="0 0 512 512" width="512" xmlns="http://www.w3.org/2000/svg"><path d="m457.085 185.893c0-10.755-8.75-19.504-19.504-19.504h-197.838s184.924-95.991 185.473-96.349c7.84-5.131 10.955-16.942 6.621-25.296l-17.751-34.211c-2.399-4.625-6.456-8.038-11.423-9.611-4.968-1.575-10.25-1.118-14.873 1.281l-317.153 164.561c-8.95 1.767-15.722 9.669-15.722 19.13v173.108c0 4.143 3.359 7.502 7.502 7.502s7.502-3.359 7.502-7.502v-115.062h372.163v185.984c0 2.482-2.019 4.501-4.501 4.501h-31.91v-91.428c0-4.143-3.359-7.502-7.502-7.502s-7.502 3.359-7.502 7.502v153.999h-158.041v-211.48h158.041v22.874c0 4.143 3.359 7.502 7.502 7.502s7.502-3.359 7.502-7.502v-25.61c0-6.764-5.503-12.267-12.267-12.267h-163.515c-6.764 0-12.267 5.503-12.267 12.267v151.646h-143.202c-2.482 0-4.501-2.019-4.501-4.501v-35.321c0-4.143-3.359-7.502-7.502-7.502s-7.502 3.359-7.502 7.502v35.321c0 10.755 8.75 19.504 19.504 19.504h143.203v50.303c0 6.764 5.503 12.267 12.267 12.267h163.514c6.764 0 12.267-5.503 12.267-12.267v-50.303h31.91c10.755 0 19.504-8.75 19.504-19.504.001 0 .001-244.03.001-244.032zm-15.009-.054-43.098 43.098h-52.19l47.545-47.545h43.248c2.463 0 4.465 1.991 4.495 4.447zm-279.698-19.45 11.495-36.288 39.806-20.655-18.037 56.943h-9.953zm-50.097 0h-8.345l51.104-26.516-8.4 26.516zm-42.362 19.504c0-1.722.983-3.203 2.407-3.96.874-.022 1.753-.199 2.601-.541h19.245l-24.252 24.252v-19.751zm208.92-110.256-20.304 64.099-46.325 24.037 20.304-64.099zm-1.471 54.326 20.304-64.099 39.806-20.655-20.305 64.099zm123.799-64.235 9.347-29.505 8.006 15.43c.142.274.253.556.334.841.013.046.014.094.026.14.061.243.112.488.131.733.002.02-.002.041-.001.061.073 1.124-.28 2.24-.986 3.118-.014.018-.024.038-.038.056-.154.185-.333.351-.517.512-.04.035-.073.078-.114.112-.231.187-.483.353-.757.495zm-6.467-50.209c1.066-.554 2.285-.66 3.432-.295 1.129.357 2.05 1.13 2.607 2.172l-18.406 58.104-46.325 24.037 20.305-64.099zm-324.781 212.36v-1.017l45.47-45.47h52.19l-47.545 47.545h-50.115zm71.333 1.058 47.545-47.545h44.846l-47.545 47.545zm139.472 0 9.043-9.043c2.93-2.929 2.93-7.679 0-10.609-2.929-2.93-7.679-2.93-10.609 0l-19.652 19.652h-52.19l47.545-47.545h52.191l-3.274 3.274c-2.93 2.93-2.93 7.679 0 10.609 2.929 2.93 7.679 2.929 10.609 0l13.882-13.883h44.846l-47.545 47.545zm139.472 0 21.885-21.885v20.828 1.058h-21.885z"/><path d="m356.014 399.844h-90.735c-4.143 0-7.502 3.359-7.502 7.502s3.359 7.502 7.502 7.502h90.735c4.143 0 7.502-3.359 7.502-7.502s-3.359-7.502-7.502-7.502z"/><path d="m363.516 437.699c0-4.143-3.359-7.502-7.502-7.502h-90.735c-4.143 0-7.502 3.359-7.502 7.502s3.359 7.502 7.502 7.502h90.735c4.143 0 7.502-3.359 7.502-7.502z"/><path d="m265.279 456.551c-4.143 0-7.502 3.359-7.502 7.502s3.359 7.502 7.502 7.502h20.944c4.143 0 7.502-3.359 7.502-7.502s-3.359-7.502-7.502-7.502z"/><path d="m265.279 323.784h20.944c4.143 0 7.502-3.359 7.502-7.502s-3.359-7.502-7.502-7.502h-20.944c-4.143 0-7.502 3.359-7.502 7.502s3.359 7.502 7.502 7.502z"/><path d="m356.014 339.135h-90.735c-4.143 0-7.502 3.359-7.502 7.502s3.359 7.502 7.502 7.502h90.735c4.143 0 7.502-3.359 7.502-7.502s-3.359-7.502-7.502-7.502z"/><path d="m265.279 384.493h20.944c4.143 0 7.502-3.359 7.502-7.502s-3.359-7.502-7.502-7.502h-20.944c-4.143 0-7.502 3.359-7.502 7.502s3.359 7.502 7.502 7.502z"/></svg>