<svg height="512" viewBox="0 0 64 64" width="512" xmlns="http://www.w3.org/2000/svg"><g id="Shopping_Mall" data-name="Shopping Mall"><path d="m38 26h10v2h-10z"/><path d="m24 46v4h6.527a15.905 15.905 0 0 1 -.527-4z"/><path d="m38 18h10v2h-10z"/><path d="m24 26h8v4h-8z"/><path d="m8 18h10v2h-10z"/><path d="m46 30h-9a1 1 0 0 1 -1-1v-4a1 1 0 0 1 1-1h12a1 1 0 0 1 1 1v4a1 1 0 0 1 -1 1h-3a15.894 15.894 0 0 1 6 1.178v-17.178h-18v21.453a15.949 15.949 0 0 1 12-5.453zm-10-13a1 1 0 0 1 1-1h12a1 1 0 0 1 1 1v4a1 1 0 0 1 -1 1h-12a1 1 0 0 1 -1-1z"/><path d="m36 8h14v4h-14z"/><circle cx="39" cy="42" r="2"/><circle cx="53" cy="50" r="2"/><path d="m46 32a14 14 0 1 0 14 14 14.015 14.015 0 0 0 -14-14zm-11 10a4 4 0 1 1 4 4 4 4 0 0 1 -4-4zm5.857 14.515-1.714-1.03 12-20 1.714 1.03zm12.143-2.515a4 4 0 1 1 4-4 4 4 0 0 1 -4 4z"/><path d="m8 26h10v2h-10z"/><path d="m8 50h10v2h-10z"/><path d="m6 8h14v4h-14z"/><path d="m8 58h10v2h-10z"/><path d="m4 60h2v-3a1 1 0 0 1 1-1h12a1 1 0 0 1 1 1v3h2v-46h-18zm2-43a1 1 0 0 1 1-1h12a1 1 0 0 1 1 1v4a1 1 0 0 1 -1 1h-12a1 1 0 0 1 -1-1zm0 8a1 1 0 0 1 1-1h12a1 1 0 0 1 1 1v4a1 1 0 0 1 -1 1h-12a1 1 0 0 1 -1-1zm0 8a1 1 0 0 1 1-1h12a1 1 0 0 1 1 1v4a1 1 0 0 1 -1 1h-12a1 1 0 0 1 -1-1zm0 8a1 1 0 0 1 1-1h12a1 1 0 0 1 1 1v4a1 1 0 0 1 -1 1h-12a1 1 0 0 1 -1-1zm0 8a1 1 0 0 1 1-1h12a1 1 0 0 1 1 1v4a1 1 0 0 1 -1 1h-12a1 1 0 0 1 -1-1z"/><path d="m8 34h10v2h-10z"/><path d="m8 42h10v2h-10z"/><path d="m12 2h2v4h-2z"/><path d="m42 2h2v4h-2z"/></g></svg>