<svg id="Layer_1" enable-background="new 0 0 511 511" height="512" viewBox="0 0 511 511" width="512" xmlns="http://www.w3.org/2000/svg"><path d="m451.5 32c-17.369 0-31.5 14.131-31.5 31.5 0 14.785 10.241 27.216 24 30.591v57.909h-17v-56h-32v-40h-104.458c-3.724-31.49-30.567-56-63.042-56s-59.318 24.51-63.042 56h-104.458v40h-32v207h32v96h16v112h303v-112h16v-79.5h-15v64.5h-232.501v15h216.501v97h-273v-97h40.5v-15h-56.5v-81h352v-56h32v-152.909c13.759-3.374 24-15.806 24-30.591 0-17.369-14.131-31.5-31.5-31.5zm-224-17c24.193 0 44.302 17.806 47.918 41h-95.836c3.616-23.194 23.725-41 47.918-41zm-71.5 273h-113v-177h64.5v-15h-32.5v-25h305v25h-256.5v15h32.5zm128 0h-113v-177h113zm128 0h-113v-177h113zm32-56h-17v-65h17zm7.5-152c-9.098 0-16.5-7.402-16.5-16.5s7.402-16.5 16.5-16.5 16.5 7.402 16.5 16.5-7.402 16.5-16.5 16.5z"/><path d="m59.5 175h64.5v5.394l-61.803 61.803 10.606 10.606 66.197-66.197v-26.606h-79.5z"/><path d="m252 180.394-61.803 61.803 10.606 10.606 66.197-66.197v-26.606h-79.5v15h64.5z"/><path d="m380 180.394-61.803 61.803 10.606 10.606 66.197-66.197v-26.606h-79.5v15h64.5z"/><path d="m259.5 456v15h79.5v-47h-223v47h127.5v-15h-112.5v-17h193v17z"/><path d="m108 343.5c0 12.958 10.542 23.5 23.5 23.5s23.5-10.542 23.5-23.5-10.542-23.5-23.5-23.5-23.5 10.542-23.5 23.5zm32 0c0 4.687-3.813 8.5-8.5 8.5s-8.5-3.813-8.5-8.5 3.813-8.5 8.5-8.5 8.5 3.813 8.5 8.5z"/><path d="m172 343.5c0 12.958 10.542 23.5 23.5 23.5s23.5-10.542 23.5-23.5-10.542-23.5-23.5-23.5-23.5 10.542-23.5 23.5zm32 0c0 4.687-3.813 8.5-8.5 8.5s-8.5-3.813-8.5-8.5 3.813-8.5 8.5-8.5 8.5 3.813 8.5 8.5z"/><path d="m236 343.5c0 12.958 10.542 23.5 23.5 23.5s23.5-10.542 23.5-23.5-10.542-23.5-23.5-23.5-23.5 10.542-23.5 23.5zm32 0c0 4.687-3.813 8.5-8.5 8.5s-8.5-3.813-8.5-8.5 3.813-8.5 8.5-8.5 8.5 3.813 8.5 8.5z"/><path d="m300 343.5c0 12.958 10.542 23.5 23.5 23.5s23.5-10.542 23.5-23.5-10.542-23.5-23.5-23.5-23.5 10.542-23.5 23.5zm32 0c0 4.687-3.813 8.5-8.5 8.5s-8.5-3.813-8.5-8.5 3.813-8.5 8.5-8.5 8.5 3.813 8.5 8.5z"/><path d="m315.5 120h16v15h-16z"/><path d="m347.5 120h16v15h-16z"/><path d="m379.5 120h16v15h-16z"/><path d="m59.5 264h16v15h-16z"/><path d="m91.5 264h16v15h-16z"/><path d="m123.5 264h16v15h-16z"/></svg>