<svg height="512pt" viewBox="-21 0 512 512" width="512pt" xmlns="http://www.w3.org/2000/svg"><path d="m399.875 119.035156c-39.003906 0-70.734375 31.730469-70.734375 70.734375v203.449219c0 48.953125-39.828125 88.78125-88.78125 88.78125-46.332031 0-84.480469-35.675781-88.433594-81h40.457031v-64.542969c47.152344-17.808593 80.773438-63.40625 80.773438-116.714843v-124.671876h-25.851562v-95.070312h-86.191407v95.070312h-50.453125v-95.070312h-86.191406v95.070312h-24.46875v124.671876c0 53.308593 33.625 98.902343 80.773438 116.714843v64.542969h41.066406c4.019531 61.882812 55.636718 111 118.519531 111 65.496094 0 118.777344-53.285156 118.777344-118.78125v-203.449219c0-22.460937 18.273437-40.734375 40.734375-40.734375 22.464844 0 40.738281 18.273438 40.738281 40.734375v322.230469h30v-322.230469c0-39.003906-31.730469-70.734375-70.734375-70.734375zm-156.714844 6.035156v40.929688h-213.160156v-40.929688zm-52.046875-95.070312h26.191407v65.070312h-26.191407zm-136.644531 0h26.191406v65.070312h-26.191406zm-24.46875 189.742188v-23.742188h213.15625v23.742188c0 52.226562-42.488281 94.71875-94.71875 94.71875h-23.71875c-52.226562 0-94.71875-42.492188-94.71875-94.71875zm80.773438 123.933593c3.574218.398438 47.03125.511719 51.609374 0v27.324219h-51.609374zm0 0"/></svg>