<svg height="512pt" viewBox="-160 0 511 512" width="512pt" xmlns="http://www.w3.org/2000/svg"><path d="m184.195312 314.816406c.550782-3.285156 1.144532-6.601562 1.75-9.964844 2.332032-12.984374 4.730469-26.355468 5.296876-41.136718 0-.011719 0-.019532 0-.03125.097656-2.539063.144531-5.117188.125-7.746094-.226563-28.003906-6.226563-49.226562-22.136719-78.304688-21.339844-38.996093-27.113281-57.9375-29.214844-74.382812-.53125-4.148438-4.324219-7.078125-8.472656-6.554688-4.148438.53125-7.082031 4.324219-6.550781 8.476563 2.777343 21.757813 11.457031 44.113281 30.949218 79.734375 1.691406 3.089844 3.25 6.074219 4.703125 8.984375h-16.570312c-4.183594 0-7.574219 3.390625-7.574219 7.574219s3.390625 7.574218 7.574219 7.574218h23.335937c5.886719 15.101563 8.464844 28.949219 8.769532 45.140626-20.820313-4.960938-38.390626-15.769532-51.765626-25.011719-8.4375-5.832031-19.554687-13.121094-32.941406-20.128907h17.023438c4.183594 0 7.574218-3.390624 7.574218-7.574218s-3.390624-7.574219-7.574218-7.574219h-77.269532c1.453126-2.910156 3.011719-5.894531 4.703126-8.984375 32.605468-59.582031 32.476562-78.015625 32.21875-114.738281-.023438-3.878907-.054688-8.089844-.042969-12.605469h55.664062c.007813 3.949219-.011719 7.769531-.042969 11.808594-.027343 4.179687 3.339844 7.597656 7.523438 7.625h.054688c4.15625 0 7.542968-3.355469 7.570312-7.519532.035156-5.066406-.019531-51.804687-.019531-51.804687 0-9.742187-7.929688-17.671875-17.671875-17.671875h-50.492188c-9.746094 0-17.675781 7.929688-17.675781 17.671875 0 0-.054687 46.601563-.011719 52.605469.246094 35.171875.355469 51.222656-30.363281 107.359375-15.910156 29.074219-21.910156 50.296875-22.136719 78.304687-.144531 17.941406 2.6875 33.6875 5.421875 48.914063.605469 3.363281 1.203125 6.675781 1.753907 9.960937 3.335937 19.890625 6.253906 37.601563 8.171874 52.90625.515626 4.09375 4.363282 7.089844 8.457032 6.574219 4.097656-.515625 7.085937-4.363281 6.574218-8.460937-1.699218-13.535157-4.144531-28.796876-6.960937-45.707032h144.023437c-11.238281 67.238282-16.59375 105.671875 6.007813 147.851563 1.484375 2.765625 2.265625 5.941406 2.265625 9.171875 0 10.863281-8.835938 19.699218-19.699219 19.699218h-121.164062c-10.863281 0-19.703125-8.835937-19.703125-19.699218 0-3.230469.785156-6.402344 2.269531-9.171875 10.949219-20.4375 15.789063-40.664063 15.683594-65.582031-.015625-4.171876-3.402344-7.542969-7.570313-7.542969-.011718 0-.023437 0-.03125 0-4.183594.015625-7.5625 3.421875-7.542968 7.605469.089843 22.566406-4.0625 40.019531-13.894532 58.363281-2.65625 4.964843-4.0625 10.609375-4.0625 16.324219 0 19.21875 15.632813 34.851562 34.847656 34.851562h121.164063c19.21875 0 34.851563-15.632812 34.851563-34.851562 0-5.714844-1.40625-11.363282-4.0625-16.324219-20.214844-37.726563-15.851563-70.054688-3.109376-146.007813.550782-3.285156-12.742187 75.953125 0 0zm-113.507812-299.667968h50.496094c1.390625 0 2.523437 1.132812 2.523437 2.523437v24.742187h-55.542969v-24.742187c0-1.390625 1.132813-2.523437 2.523438-2.523437zm-17.273438 193.890624c26.933594 9.207032 48.472657 22.976563 62.386719 32.59375 15.148438 10.464844 35.339844 22.777344 59.921875 27.957032-.878906 11.363281-2.804687 22.105468-4.6875 32.585937-.167968.9375-.332031 1.867188-.5 2.804688h-31.511718c-30.722657-10.390625-53.195313-25.914063-62.855469-32.589844-16.195313-11.191406-35.820313-23.039063-59.980469-28.027344 1.027344-12.175781 3.609375-23.355469 8.273438-35.320312h28.953124zm-32.578124 93.136719c-2.417969-13.457031-4.90625-27.339843-5.164063-42.433593 20.441406 4.769531 37.570313 15.21875 51.882813 25.109374 6.253906 4.320313 17.601562 12.160157 32.996093 20.128907h-79.214843c-.164063-.933594-.332032-1.863281-.5-2.804688zm0 0"/></svg>