<svg id="_x33_0" enable-background="new 0 0 64 64" height="512" viewBox="0 0 64 64" width="512" xmlns="http://www.w3.org/2000/svg"><path d="m17 21c-2.206 0-4 1.794-4 4s1.794 4 4 4 4-1.794 4-4-1.794-4-4-4zm0 6c-1.103 0-2-.897-2-2s.897-2 2-2 2 .897 2 2-.897 2-2 2z"/><path d="m17 17c-4.411 0-8 3.589-8 8s3.589 8 8 8 8-3.589 8-8-3.589-8-8-8zm0 14c-3.309 0-6-2.691-6-6s2.691-6 6-6 6 2.691 6 6-2.691 6-6 6z"/><path d="m47 21c-2.206 0-4 1.794-4 4s1.794 4 4 4 4-1.794 4-4-1.794-4-4-4zm0 6c-1.103 0-2-.897-2-2s.897-2 2-2 2 .897 2 2-.897 2-2 2z"/><path d="m47 17c-4.411 0-8 3.589-8 8s3.589 8 8 8 8-3.589 8-8-3.589-8-8-8zm0 14c-3.309 0-6-2.691-6-6s2.691-6 6-6 6 2.691 6 6-2.691 6-6 6z"/><path d="m61 35h-2v-32c0-1.103-.897-2-2-2h-20c-1.103 0-2 .897-2 2v32h-6v-32c0-1.103-.897-2-2-2h-20c-1.103 0-2 .897-2 2v32h-2c-1.103 0-2 .899-2 2.006v19.988c0 1.107.897 2.006 2 2.006h2v2c0 1.103.897 2 2 2h4c1.103 0 2-.897 2-2v-2h38v2c0 1.103.897 2 2 2h4c1.103 0 2-.897 2-2v-2h2c1.103 0 2-.899 2-2.006v-19.988c0-1.107-.897-2.006-2-2.006zm-4-32v4h-20v-4zm-12 6h4v2c0 1.103-.897 2-2 2s-2-.897-2-2zm-8 0h6v2c0 2.206 1.794 4 4 4s4-1.794 4-4v-2h6v26h-20zm-10-6v4h-20v-4zm-12 6h4v2c0 1.103-.897 2-2 2s-2-.897-2-2zm-8 0h6v2c0 2.206 1.794 4 4 4s4-1.794 4-4v-2h6v26h-20zm4 52h-4v-2h4zm10-20h22v4h-22zm24 6v-6h12v16l-50-.005v-15.995h12v6zm12 14h-4v-2h4zm4-4h-2v-18h-54v17.994h-2v-19.994l58 .006z"/><path d="m19 55h26v-6h-26zm12-2h-4v-2h4zm2-2h4v2h-4zm10 2h-4v-2h4zm-22-2h4v2h-4z"/><path d="m51 55c2.206 0 4-1.794 4-4s-1.794-4-4-4-4 1.794-4 4 1.794 4 4 4zm-1-5.722v1.722h2v-1.722c.595.347 1 .985 1 1.722 0 1.103-.897 2-2 2s-2-.897-2-2c0-.737.405-1.375 1-1.722z"/><path d="m12 43c-1.654 0-3 1.346-3 3s1.346 3 3 3 3-1.346 3-3-1.346-3-3-3zm0 4c-.551 0-1-.448-1-1s.449-1 1-1 1 .448 1 1-.449 1-1 1z"/><circle cx="10" cy="52" r="1"/><circle cx="14" cy="52" r="1"/></svg>