<svg id="Layer_5" enable-background="new 0 0 64 64" height="512" viewBox="0 0 64 64" width="512" xmlns="http://www.w3.org/2000/svg"><path d="m50 45c1.103 0 2 .897 2 2h2c0-1.858-1.279-3.411-3-3.858v-2.142h-2v2h-3v4c0 2.206 1.794 4 4 4 1.103 0 2 .897 2 2v2h-2c-1.103 0-2-.897-2-2h-2c0 1.858 1.279 3.411 3 3.858v2.142h2v-2h3v-4c0-2.206-1.794-4-4-4-1.103 0-2-.897-2-2v-2z"/><path d="m50.436 37.022-8.436-8.436-18 18-7-7-14 14v-6.172l14-14 4 4 17.458-17.458c2.165 4.178 6.521 7.044 11.542 7.044 7.168 0 13-5.832 13-13s-5.832-13-13-13-13 5.832-13 13c0 1.382.221 2.713.623 3.964l-16.623 16.622-4-4-14 14v-19.586h6v-2h-6v-2h8v-2h-8v-2h6v-2h-6v-2h8v-2h-8v-2h6v-2h-6v-2h8v-2h-8v-2h-2v62h49c7.168 0 13-5.832 13-13 0-7.021-5.599-12.745-12.564-12.978zm-.436-34.022c6.065 0 11 4.935 11 11s-4.935 11-11 11-11-4.935-11-11 4.935-11 11-11zm-19 39.414v18.586h-4v-14.586zm-6 6v12.586h-4v-14.586l3 3zm-6-4v16.586h-4v-16.586l2-2zm-6 16.586h-4v-10.586l4-4zm-10-4.586 4-4v8.586h-4zm30 4.586v-20.586l9-9 5.789 5.789c-6.117 1.054-10.789 6.384-10.789 12.797 0 4.634 2.444 8.698 6.104 11zm17 0c-6.065 0-11-4.935-11-11s4.935-11 11-11 11 4.935 11 11-4.935 11-11 11z"/><path d="m50 19c-1.103 0-2-.897-2-2h-2c0 1.858 1.279 3.411 3 3.858v2.142h2v-2h3v-4c0-2.206-1.794-4-4-4-1.103 0-2-.897-2-2v-2h2c1.103 0 2 .897 2 2h2c0-1.858-1.279-3.411-3-3.858v-2.142h-2v2h-3v4c0 2.206 1.794 4 4 4 1.103 0 2 .897 2 2v2z"/><path d="m18 8h2v2h-2z"/><path d="m22 8h12v2h-12z"/><path d="m18 12h2v2h-2z"/><path d="m22 12h12v2h-12z"/><path d="m18 16h2v2h-2z"/><path d="m22 16h12v2h-12z"/></svg>