<svg id="Capa_1" enable-background="new 0 0 450.823 450.823" height="512" viewBox="0 0 450.823 450.823" width="512" xmlns="http://www.w3.org/2000/svg"><path d="m441.963 113.714-211.323-84.53c-3.357-1.348-7.099-1.348-10.456 0l-211.324 84.53c-5.352 2.146-8.86 7.319-8.86 13.083v281.765c0 7.787 6.301 14.088 14.088 14.088h422.647c7.787 0 14.088-6.301 14.088-14.088v-281.764c0-5.765-3.508-10.938-8.86-13.084zm-75.669 83.525h-281.765v-28.176h281.765zm-112.706 197.235v-56.353h28.176v56.353zm56.353-56.353v-56.353h-84.529v56.353h-28.176v56.353h-28.176v-56.353h28.176v-56.353h-84.529v56.353 56.353h-28.178v-169.059h281.765v169.059h-28.176v-56.353zm112.706 56.353h-28.177v-239.5c0-7.787-6.301-14.088-14.088-14.088h-309.941c-7.787 0-14.088 6.301-14.088 14.088v239.5h-28.177v-258.142l197.235-78.888 197.235 78.888v258.142z"/></svg>