<svg id="icons" enable-background="new 0 0 64 64" height="512" viewBox="0 0 64 64" width="512" xmlns="http://www.w3.org/2000/svg"><path d="m61 28.002h-6.998c-1.654 0-3 1.346-3 3 0-1.654-1.346-3-3-3h-10.001c-1.654 0-3 1.346-3 3 0-1.654-1.346-3-3-3h-10.001c-1.654 0-3 1.346-3 3 0-1.654-1.346-3-3-3h-12.999c-1.654 0-3 1.346-3 3v.008 1.995c0 .002-.001.003-.001.005v4c0 .553.447 1 1 1h20v2.99c0 .553.447 1 1 1h3.001v11h-12.001c-.553 0-1 .447-1 1v4c0 .553.447 1 1 1h1.352c-.218.456-.351.961-.351 1.5 0 1.93 1.57 3.5 3.5 3.5s3.5-1.57 3.5-3.5c0-.539-.133-1.044-.351-1.5h22.7c-.218.456-.351.961-.351 1.5 0 1.93 1.57 3.5 3.5 3.5s3.5-1.57 3.5-3.5c0-.539-.133-1.044-.351-1.5h1.352c.553 0 1-.447 1-1v-4c0-.553-.447-1-1-1h-12.001v-11h3.001c.553 0 1-.447 1-1v-2.99h20c.553 0 1-.447 1-1v-4-2.008c0-1.654-1.346-3-3-3zm-6.998 2h6.998c.552 0 1 .448 1 1.008v1h-8.998v-1.008c0-.552.448-1 1-1zm-16.001 0h10.001c.552 0 1 .448 1 1.008v1h-12.001v-1.008c0-.552.448-1 1-1zm-16.001 0h10.001c.552 0 1 .448 1 1.008v1h-12.001v-1.008c0-.552.448-1 1-1zm-18.999 0h12.999c.552 0 1 .448 1 1.008v1h-14.999v-1.008c0-.552.448-1 1-1zm16 30.498c0 .827-.673 1.5-1.5 1.5s-1.5-.673-1.5-1.5.673-1.5 1.5-1.5 1.5.673 1.5 1.5zm28.998 0c0 .827-.673 1.5-1.5 1.5s-1.5-.673-1.5-1.5.673-1.5 1.5-1.5 1.5.673 1.5 1.5zm2.001-3.5h-36v-2h12.001 11.998 12.001zm-13.001-4h-9.998v-11h9.998zm4.001-13h-3.001-11.998-3.001v-1.99h18zm21-3.99h-20-20-20v-2h60z"/><path d="m46 9.006v-2.002c0-2.757-2.243-5-5-5h-8v-1.004c0-.553-.447-1-1-1s-1 .447-1 1v1.004h-8c-2.757 0-5 2.243-5 5v2.002c0 .553.447 1 1 1h26c.553 0 1-.447 1-1zm-23-5.002h18c1.654 0 3 1.346 3 3v1.002h-24v-1.002c0-1.654 1.346-3 3-3z"/><path d="m20.994 12.16v3.844c0 .553.447 1 1 1s1-.447 1-1v-3.844c0-.553-.447-1-1-1s-1 .447-1 1z"/><path d="m24.994 12.16v7.848c0 .553.447 1 1 1s1-.447 1-1v-7.848c0-.553-.447-1-1-1s-1 .447-1 1z"/><path d="m28.994 14.162v9.85c0 .553.447 1 1 1s1-.447 1-1v-9.85c0-.553-.447-1-1-1s-1 .447-1 1z"/><path d="m32.994 14.162v9.85c0 .553.447 1 1 1s1-.447 1-1v-9.85c0-.553-.447-1-1-1s-1 .447-1 1z"/><path d="m36.994 12.16v7.848c0 .553.447 1 1 1s1-.447 1-1v-7.848c0-.553-.447-1-1-1s-1 .447-1 1z"/><path d="m40.994 12.16v3.844c0 .553.447 1 1 1s1-.447 1-1v-3.844c0-.553-.447-1-1-1s-1 .447-1 1z"/></svg>