<svg id="Layer_1" enable-background="new 0 0 511.918 511.918" height="512" viewBox="0 0 511.918 511.918" width="512" xmlns="http://www.w3.org/2000/svg"><path d="m511.918 232.604c0-65.304-52.755-118.507-117.885-119.255v-23.322h21.585v-30h-73.17v30h21.585v23.305h-244.761c-65.767 0-119.272 53.505-119.272 119.272 0 35.491 15.587 67.405 40.269 89.272h-40.269v85.584h48.706c1.675 24.778 22.355 44.43 47.552 44.43 12.638 0 24.134-4.952 32.674-13.006 8.54 8.054 20.036 13.006 32.674 13.006 25.196 0 45.877-19.651 47.552-44.43h93.604c1.675 24.778 22.355 44.43 47.552 44.43 12.638 0 24.133-4.952 32.674-13.006 8.541 8.054 20.037 13.006 32.674 13.006 25.196 0 45.877-19.651 47.552-44.43h48.706v-85.584h-40.269c24.68-21.867 40.267-53.78 40.267-89.272zm-229.95-2.104h-52.018v-28.584h52.018zm0-58.584h-52.018v-28.584h52.018zm-251.968 60.688c0-49.225 40.047-89.272 89.272-89.272h80.678v146.678h30v-29.51h52.018v29.51h30v-146.678h80.678c49.225 0 89.272 40.048 89.272 89.272s-40.047 89.272-89.272 89.272h-273.374c-49.225.001-89.272-40.047-89.272-89.272zm66.257 189.287c-8.636 0-15.833-6.23-17.362-14.43h34.725c-1.53 8.199-8.726 14.43-17.363 14.43zm65.348 0c-8.636 0-15.833-6.23-17.362-14.43h34.725c-1.529 8.199-8.726 14.43-17.363 14.43zm188.708 0c-8.636 0-15.833-6.23-17.362-14.43h34.725c-1.531 8.199-8.727 14.43-17.363 14.43zm65.348 0c-8.636 0-15.833-6.23-17.362-14.43h34.725c-1.53 8.199-8.727 14.43-17.363 14.43zm66.257-70.014v25.584h-451.918v-25.584z"/></svg>