<svg height="512pt" viewBox="0 -61 512.00095 512" width="512pt" xmlns="http://www.w3.org/2000/svg"><path d="m270.90625 89.96875v-29.988281h119.957031v14.992187h29.988281v-59.976562h-29.988281v14.992187h-119.957031v-29.988281h-149.949219v89.96875h-120.957031v239.917969h30.988281c0 33.070312 26.90625 59.976562 59.980469 59.976562 33.070312 0 59.976562-26.90625 59.976562-59.976562h29.992188c0 33.070312 26.90625 59.976562 59.976562 59.976562 33.074219 0 59.980469-26.90625 59.980469-59.976562h29.988281c0 33.070312 26.90625 59.976562 59.980469 59.976562s59.980469-26.90625 59.980469-59.976562h25.859375l35.296875-107.691407-98.621094-132.226562zm-119.960938-59.980469h89.96875v59.980469h-89.96875zm247.390626 89.96875 67.101562 89.96875h-435.449219v-89.96875zm-307.367188 239.917969c-16.535156 0-29.988281-13.453125-29.988281-29.988281 0-16.539063 13.453125-29.992188 29.988281-29.992188s29.988281 13.453125 29.988281 29.992188c0 16.535156-13.453125 29.988281-29.988281 29.988281zm149.945312 0c-16.535156 0-29.988281-13.453125-29.988281-29.988281 0-16.539063 13.453125-29.992188 29.988281-29.992188 16.539063 0 29.992188 13.453125 29.992188 29.992188 0 16.535156-13.453125 29.988281-29.992188 29.988281zm149.949219 0c-16.535156 0-29.988281-13.453125-29.988281-29.988281 0-16.539063 13.453125-29.992188 29.988281-29.992188 16.535157 0 29.988281 13.453125 29.988281 29.992188 0 16.535156-13.453124 29.988281-29.988281 29.988281zm51.910157-59.980469c-10.386719-17.910156-29.757813-29.988281-51.910157-29.988281-22.152343 0-41.523437 12.078125-51.910156 29.988281h-46.128906c-10.386719-17.910156-29.757813-29.988281-51.910157-29.988281-22.148437 0-41.519531 12.078125-51.90625 29.988281h-46.128906c-10.386718-17.910156-29.757812-29.988281-51.910156-29.988281s-41.523438 12.078125-51.910156 29.988281h-9.070313v-59.976562h444.644531l-19.660156 59.976562zm0 0"/><path d="m75.972656 149.949219h59.980469v29.988281h-59.980469zm0 0"/><path d="m195.929688 149.949219h59.980468v29.988281h-59.980468zm0 0"/><path d="m315.890625 149.949219h59.976563v29.988281h-59.976563zm0 0"/></svg>