<svg id="Capa_1" enable-background="new 0 0 512 512" height="512" viewBox="0 0 512 512" width="512" xmlns="http://www.w3.org/2000/svg"><path d="m225 121c-74.439 0-135 60.561-135 135s60.561 135 135 135 135-60.561 135-135-60.561-135-135-135zm0 240c-57.897 0-105-47.103-105-105s47.103-105 105-105 105 47.103 105 105-47.103 105-105 105z"/><path d="m225 181c-41.355 0-75 33.645-75 75s33.645 75 75 75 75-33.645 75-75-33.645-75-75-75zm0 120c-24.813 0-45-20.187-45-45s20.187-45 45-45 45 20.187 45 45-20.187 45-45 45z"/><path d="m424.109 361c16.913-31.977 25.891-67.797 25.891-105 0-124.35-100.633-225-225-225-124.351 0-225 100.632-225 225 0 124.351 100.632 225 225 225h287v-120zm-394.109-105c0-107.523 87.477-195 195-195s195 87.477 195 195-87.477 195-195 195-195-87.477-195-195zm452 195h-144.588c26.205-15.164 49.246-35.598 67.624-60h76.964z"/></svg>