<svg height="512pt" viewBox="-31 0 512 512.001" width="512pt" xmlns="http://www.w3.org/2000/svg"><path d="m441.816406 102.5c4.179688 0 7.570313-3.390625 7.570313-7.574219v-87.351562c0-4.183594-3.390625-7.574219-7.570313-7.574219h-371.632812c-4.179688 0-7.570313 3.390625-7.570313 7.574219v303.464843h-55.039062c-4.183594 0-7.574219 3.390626-7.574219 7.574219v69.257813c0 4.183594 3.390625 7.574218 7.574219 7.574218 4.183593 0 7.574219-3.390624 7.574219-7.574218v-61.683594h265.449218c10.582032 17.785156 28.003906 31.035156 48.617188 36.101562v134.5625h-314.066406v-73.800781c0-4.183593-3.390626-7.574219-7.574219-7.574219-4.183594 0-7.574219 3.390626-7.574219 7.574219v81.375c0 4.183594 3.390625 7.574219 7.574219 7.574219h434.242187c4.179688 0 7.570313-3.390625 7.570313-7.574219v-374.027343c0-4.183594-3.390625-7.574219-7.570313-7.574219-4.183594 0-7.574218 3.390625-7.574218 7.574219v366.453124h-89.878907v-132.382812c1.171875.054688 2.347657.089844 3.535157.089844 43.152343 0 78.261718-35.109375 78.261718-78.261719 0-43.15625-35.109375-78.265625-78.261718-78.265625-43.15625 0-78.265626 35.109375-78.265626 78.265625 0 8.644531 1.429688 16.957031 4.03125 24.742187h-195.90625v-295.890624h356.484376v79.777343c0 4.183594 3.390624 7.574219 7.574218 7.574219zm-93.917968 120.679688c34.800781 0 63.113281 28.3125 63.113281 63.117187 0 34.800781-28.3125 63.113281-63.113281 63.113281-34.804688 0-63.117188-28.3125-63.117188-63.113281 0-34.804687 28.3125-63.117187 63.117188-63.117187zm0 0"/><path d="m184.300781 155.519531c4.183594 0 7.574219-3.390625 7.574219-7.574219v-59.078124h12.621094c4.183594 0 7.574218-3.390626 7.574218-7.574219 0-4.183594-3.390624-7.574219-7.574218-7.574219h-40.394532c-4.179687 0-7.570312 3.390625-7.570312 7.574219 0 4.183593 3.390625 7.574219 7.570312 7.574219h12.625v59.078124c0 4.183594 3.390626 7.574219 7.574219 7.574219zm0 0"/><path d="m276.199219 155.519531c4.179687 0 7.574219-3.390625 7.574219-7.574219v-56.550781c0-9.746093-7.929688-17.675781-17.675782-17.675781h-20.195312c-9.746094 0-17.675782 7.929688-17.675782 17.675781v56.550781c0 4.183594 3.394532 7.574219 7.574219 7.574219 4.183594 0 7.574219-3.390625 7.574219-7.574219v-25.75h25.25v25.75c0 4.183594 3.390625 7.574219 7.574219 7.574219zm-32.824219-48.472656v-15.652344c0-1.394531 1.132812-2.527343 2.527344-2.527343h20.195312c1.394532 0 2.527344 1.132812 2.527344 2.527343v15.652344zm0 0"/><path d="m303.578125 154.421875c1.226563.742187 2.582031 1.097656 3.917969 1.097656 2.558594 0 5.058594-1.296875 6.484375-3.648437l13.71875-22.636719 13.722656 22.636719c1.421875 2.351562 3.921875 3.648437 6.484375 3.648437 1.335938 0 2.691406-.355469 3.917969-1.097656 3.578125-2.167969 4.71875-6.824219 2.550781-10.402344l-17.816406-29.402343 17.816406-29.398438c2.167969-3.578125 1.027344-8.234375-2.550781-10.402344-3.578125-2.167968-8.234375-1.027344-10.402344 2.550782l-13.722656 22.640624-13.71875-22.640624c-2.167969-3.574219-6.824219-4.71875-10.402344-2.550782-3.578125 2.167969-4.71875 6.824219-2.550781 10.402344l17.816406 29.398438-17.816406 29.402343c-2.167969 3.578125-1.027344 8.234375 2.550781 10.402344zm0 0"/><path d="m386.777344 159.054688v-88.871094c0-15.3125-12.457032-27.769532-27.769532-27.769532h-144c-4.183593 0-7.574218 3.390626-7.574218 7.574219 0 4.183594 3.390625 7.574219 7.574218 7.574219h144c6.960938 0 12.621094 5.664062 12.621094 12.621094v88.871094c0 6.960937-5.664062 12.621093-12.621094 12.621093h-206.011718c-6.960938 0-12.625-5.664062-12.625-12.621093v-88.871094c0-6.960938 5.664062-12.621094 12.625-12.621094h26.507812c4.183594 0 7.574219-3.390625 7.574219-7.574219 0-4.183593-3.390625-7.574219-7.574219-7.574219h-26.507812c-15.316406 0-27.773438 12.457032-27.773438 27.769532v88.871094c0 15.3125 12.457032 27.769531 27.773438 27.769531h206.011718c15.3125 0 27.769532-12.457031 27.769532-27.769531zm0 0"/><path d="m57.414062 473.121094c0 4.183594 3.390626 7.574218 7.574219 7.574218h214.386719c4.183594 0 7.574219-3.390624 7.574219-7.574218 0-9.109375 7.40625-16.515625 16.515625-16.515625 4.183594 0 7.574218-3.390625 7.574218-7.574219v-74.015625c0-4.183594-3.390624-7.574219-7.574218-7.574219-9.109375 0-16.515625-7.410156-16.515625-16.515625 0-4.183593-3.390625-7.574219-7.574219-7.574219h-214.386719c-4.183593 0-7.574219 3.390626-7.574219 7.574219 0 9.105469-7.410156 16.515625-16.515624 16.515625-4.183594 0-7.574219 3.390625-7.574219 7.574219v74.015625c0 4.183594 3.390625 7.574219 7.574219 7.574219 9.109374 0 16.515624 7.410156 16.515624 16.515625zm-8.941406-91.445313c11.386719-2.808593 20.367188-11.789062 23.175782-23.175781h201.070312c2.804688 11.386719 11.785156 20.367188 23.171875 23.175781v60.695313c-11.386719 2.808594-20.367187 11.789062-23.171875 23.175781h-201.070312c-2.804688-11.386719-11.789063-20.367187-23.175782-23.175781zm0 0"/><path d="m240.433594 419.523438h25.425781c4.183594 0 7.574219-3.390626 7.574219-7.574219 0-4.183594-3.390625-7.574219-7.574219-7.574219h-25.425781c-4.183594 0-7.574219 3.390625-7.574219 7.574219 0 4.183593 3.390625 7.574219 7.574219 7.574219zm0 0"/><path d="m129.710938 419.523438h5.363281c3.519531 17.265624 18.820312 30.296874 37.109375 30.296874 18.289062 0 33.589844-13.03125 37.105468-30.296874h5.234376c4.183593 0 7.574218-3.390626 7.574218-7.574219 0-4.183594-3.390625-7.574219-7.574218-7.574219h-5.234376c-3.515624-17.265625-18.816406-30.296875-37.105468-30.296875-18.289063 0-33.589844 13.03125-37.109375 30.296875h-5.363281c-4.183594 0-7.574219 3.390625-7.574219 7.574219 0 4.183593 3.390625 7.574219 7.574219 7.574219zm42.46875-30.296876c12.53125 0 22.722656 10.195313 22.722656 22.722657 0 12.53125-10.191406 22.722656-22.722656 22.722656-12.527344 0-22.71875-10.191406-22.71875-22.722656 0-12.527344 10.191406-22.722657 22.71875-22.722657zm0 0"/><path d="m78.503906 419.523438h25.425782c4.183593 0 7.574218-3.390626 7.574218-7.574219 0-4.183594-3.390625-7.574219-7.574218-7.574219h-25.425782c-4.183594 0-7.574218 3.390625-7.574218 7.574219 0 4.183593 3.390624 7.574219 7.574218 7.574219zm0 0"/><path d="m326.980469 281.84375c8.789062 0 15.941406-7.152344 15.941406-15.941406v-7.324219c0-8.789063-7.152344-15.941406-15.941406-15.941406-8.789063 0-15.941407 7.152343-15.941407 15.941406v7.324219c0 8.789062 7.152344 15.941406 15.941407 15.941406zm0 0"/><path d="m352.875 306.691406v7.320313c0 8.792969 7.152344 15.941406 15.941406 15.941406 8.789063 0 15.941406-7.148437 15.941406-15.941406v-7.320313c0-8.789062-7.152343-15.941406-15.941406-15.941406-8.789062 0-15.941406 7.152344-15.941406 15.941406zm0 0"/><path d="m325.566406 329.09375c1.121094.585938 2.316406.859375 3.5.859375 2.730469 0 5.367188-1.480469 6.71875-4.070313l37.652344-72.167968c1.9375-3.710938.496094-8.285156-3.210938-10.21875-3.710937-1.9375-8.285156-.496094-10.21875 3.210937l-37.652343 72.171875c-1.933594 3.707032-.496094 8.28125 3.210937 10.214844zm0 0"/><path d="m269.632812 219.644531c0-4.183593-3.390624-7.574219-7.574218-7.574219h-129.261719c-4.183594 0-7.574219 3.390626-7.574219 7.574219 0 4.183594 3.390625 7.574219 7.574219 7.574219h129.261719c4.183594 0 7.574218-3.390625 7.574218-7.574219zm0 0"/><path d="m221.664062 279.730469h-88.867187c-4.183594 0-7.574219 3.390625-7.574219 7.574219 0 4.183593 3.390625 7.574218 7.574219 7.574218h88.867187c4.183594 0 7.574219-3.390625 7.574219-7.574218 0-4.183594-3.390625-7.574219-7.574219-7.574219zm0 0"/><path d="m221.664062 245.902344h-88.867187c-4.183594 0-7.574219 3.390625-7.574219 7.574218 0 4.179688 3.390625 7.574219 7.574219 7.574219h88.867187c4.183594 0 7.574219-3.394531 7.574219-7.574219 0-4.183593-3.390625-7.574218-7.574219-7.574218zm0 0"/></svg>