<svg id="Capa_1" enable-background="new 0 0 512 512" height="512" viewBox="0 0 512 512" width="512" xmlns="http://www.w3.org/2000/svg"><path d="m224.5 225h-127c-37.22 0-67.5 30.28-67.5 67.5v76c0 4.143 3.358 7.5 7.5 7.5s7.5-3.357 7.5-7.5v-76c0-28.948 23.551-52.5 52.5-52.5h127c28.949 0 52.5 23.552 52.5 52.5v174.5h-232v-68.5c0-4.143-3.358-7.5-7.5-7.5s-7.5 3.357-7.5 7.5v76c0 4.143 3.358 7.5 7.5 7.5h247c4.142 0 7.5-3.357 7.5-7.5v-182c0-37.22-30.28-67.5-67.5-67.5z"/><path d="m403.683 375.28c-20.227 0-36.683 16.479-36.683 36.736 0 9.81 3.814 19.033 10.739 25.973l41.453 41.529c1.407 1.409 3.316 2.201 5.308 2.201s3.901-.792 5.308-2.201l41.453-41.53c6.925-6.938 10.739-16.162 10.739-25.971 0-20.257-16.456-36.736-36.683-36.736-7.554 0-14.745 2.266-20.817 6.479-6.072-4.214-13.263-6.48-20.817-6.48zm41.634 15c11.956 0 21.683 9.751 21.683 21.736 0 5.809-2.257 11.27-6.355 15.375l-36.145 36.213-36.144-36.211c-4.099-4.106-6.356-9.567-6.356-15.376 0-11.985 9.727-21.736 21.683-21.736 5.858 0 11.349 2.311 15.461 6.505 1.411 1.438 3.341 2.249 5.355 2.249s3.945-.811 5.355-2.249c4.114-4.195 9.605-6.506 15.463-6.506z"/><path d="m509 346.5-77-57.75v-131.25c0-20.678-16.822-37.5-37.5-37.5h-27c-6.232 0-12.254-2.653-16.523-7.28-4.316-4.679-6.413-10.741-5.902-17.07.934-11.58 11.05-20.65 23.029-20.65h106.396c19.724 0 35.792-14.808 37.376-34.444.839-10.398-2.744-20.767-9.829-28.446-7.099-7.696-17.14-12.11-27.547-12.11h-253.5c-37.22 0-67.5 30.28-67.5 67.5v37.5h-86c-2.508 0-4.85 1.253-6.24 3.34l-60 90c-.822 1.231-1.26 2.68-1.26 4.16v302c0 4.143 3.358 7.5 7.5 7.5h307c4.142 0 7.5-3.357 7.5-7.5v-302c0-1.48-.438-2.929-1.26-4.16l-60-90c-1.391-2.087-3.732-3.34-6.24-3.34h-86v-37.5c0-28.948 23.551-52.5 52.5-52.5h253.5c6.232 0 12.254 2.653 16.523 7.28 4.316 4.679 6.413 10.741 5.902 17.07-.949 11.772-10.59 20.65-22.425 20.65h-106.396c-19.74 0-36.423 15.13-37.981 34.444-.839 10.398 2.744 20.767 9.829 28.446 7.1 7.695 17.141 12.109 27.547 12.109h27c12.407 0 22.5 10.094 22.5 22.5v131.25l-77 57.75c-1.889 1.416-3 3.64-3 6v152c0 4.143 3.358 7.5 7.5 7.5h160c4.142 0 7.5-3.357 7.5-7.5v-152c.001-2.359-1.11-4.583-2.999-5.999zm-268.514-226.5-30 45h-98.973l-30-45zm66.514 377h-292v-292.229l52.5-78.75 33.76 50.64c1.391 2.087 3.732 3.34 6.24 3.34h107c2.508 0 4.85-1.253 6.24-3.34l33.76-50.64 52.5 78.75zm190 0h-145v-140.75l72.5-54.375 72.5 54.375z"/></svg>