<?xml version="1.0" encoding="iso-8859-1"?>
<!-- Generator: Adobe Illustrator 19.0.0, SVG Export Plug-In . SVG Version: 6.00 Build 0)  -->
<svg version="1.1" id="Layer_1" xmlns="http://www.w3.org/2000/svg" xmlns:xlink="http://www.w3.org/1999/xlink" x="0px" y="0px"
	 viewBox="0 0 512.482 512.482" style="enable-background:new 0 0 512.482 512.482;" xml:space="preserve">
<g>
	<path style="fill:#7E89A5;" d="M134.612,441.862H377.37l-92.69-423.724h-56.497L134.612,441.862z M388.846,459.517H124.019
		c-2.648,0-5.297-0.883-7.062-3.531c-1.766-1.766-1.766-4.414-1.766-7.062L212.294,7.544c0.883-4.414,4.414-7.062,8.828-7.062
		h70.621c4.414,0,7.945,2.648,8.828,7.062l97.103,441.379c0.883,2.648,0,5.297-1.766,7.062
		C394.143,458.634,391.494,459.517,388.846,459.517L388.846,459.517z"/>
	<path style="fill:#7E89A5;" d="M61.343,274.138h390.179l-49.434-70.621h-291.31L61.343,274.138z M468.294,291.793H44.57
		c-3.531,0-6.179-1.766-7.945-4.414c-1.766-2.648-0.883-6.179,0.883-8.828l61.793-88.276c1.766-2.648,4.414-4.414,7.062-4.414
		h300.138c2.648,0,5.297,1.766,7.062,3.531l61.793,88.276c1.766,2.648,1.766,6.179,0.883,8.828
		C474.474,290.027,471.826,291.793,468.294,291.793L468.294,291.793z"/>
	<path style="fill:#7E89A5;" d="M149.619,132.896h214.51l-23.834-35.31H172.57L149.619,132.896z M380.019,150.551H132.846
		c-3.531,0-6.179-1.766-7.945-4.414s-1.766-6.179,0-8.828l35.31-52.966c2.648-2.648,5.297-4.414,7.945-4.414h176.552
		c2.648,0,5.297,1.766,7.062,3.531l35.31,52.966c1.766,2.648,1.766,6.179,0,8.828C386.198,148.786,383.55,150.551,380.019,150.551
		L380.019,150.551z"/>
	<path style="fill:#7E89A5;" d="M332.35,203.517c-1.766,0-3.531-0.883-5.297-1.766L198.17,95.82
		c-1.766-1.766-3.531-4.414-3.531-7.062s0.883-5.297,2.648-7.062l88.276-79.448c3.531-3.531,8.828-2.648,12.359,0.883
		c3.531,3.531,2.648,8.828-0.883,12.359l-79.448,73.269l120.938,99.752c3.531,2.648,4.414,8.828,0.883,12.359
		C337.646,202.634,334.998,203.517,332.35,203.517"/>
	<path style="fill:#7E89A5;" d="M180.515,203.517c-2.648,0-5.297-0.883-7.062-3.531c-3.531-3.531-2.648-9.71,0.883-12.359
		l120.938-98.869l-80.331-72.386c-3.531-3.531-3.531-8.828-0.883-12.359c3.531-3.531,8.828-3.531,12.359-0.883l88.276,79.448
		c2.648,1.766,3.531,3.531,3.531,6.179s-0.883,5.297-3.531,7.062L185.812,201.751C184.046,202.634,182.281,203.517,180.515,203.517"
		/>
	<path style="fill:#7E89A5;" d="M161.094,291.793h-0.883c-2.648,0-5.297-1.766-6.179-4.414l-54.731-88.276
		c-2.648-4.414-0.883-9.71,2.648-12.359c4.414-2.648,9.71-0.883,12.359,2.648l48.552,79.448l87.393-81.214
		c3.531-3.531,8.828-3.531,12.359,0.883c3.531,3.531,2.648,8.828-0.883,12.359l-95.338,88.276
		C165.508,290.91,162.86,291.793,161.094,291.793"/>
	<path style="fill:#7E89A5;" d="M351.77,291.793c-1.766,0-4.414-0.883-6.179-2.648l-95.338-88.276
		c-3.531-3.531-3.531-8.828-0.883-12.359c3.531-3.531,8.828-3.531,12.359-0.883l87.393,81.214l48.552-79.448
		c2.648-4.414,7.945-5.297,12.359-2.648c4.414,2.648,5.297,7.945,2.648,12.359l-54.731,88.276c0,2.648-1.766,4.414-4.414,4.414
		C352.653,291.793,352.653,291.793,351.77,291.793"/>
	<path style="fill:#7E89A5;" d="M344.708,459.517c-0.883,0-1.766,0-2.648-0.883l-204.8-70.621c-3.531-0.883-6.179-4.414-6.179-7.945
		s1.766-7.062,5.297-8.828l212.745-97.103c4.414-1.766,9.71,0,11.476,4.414c1.766,4.414,0,9.71-4.414,11.476l-192.441,88.276
		l184.497,63.559c4.414,1.766,7.062,6.179,5.297,11.476C351.77,456.869,348.239,459.517,344.708,459.517"/>
	<path style="fill:#7E89A5;" d="M168.157,459.517c-3.531,0-7.062-2.648-7.945-6.179c-1.766-4.414,0.883-9.71,5.297-11.476
		l184.497-63.559l-192.441-88.276c-4.414-1.766-6.179-7.062-4.414-11.476s7.062-6.179,11.476-4.414l212.745,97.103
		c3.531,1.766,5.297,4.414,5.297,8.828c0,3.531-2.648,7.062-6.179,7.945l-204.8,70.621
		C169.922,459.517,169.039,459.517,168.157,459.517"/>
</g>
<path style="fill:#556080;" d="M79.881,512.482h353.103v-70.621H79.881V512.482z"/>
<g>
	<path style="fill:#7E89A5;" d="M388.846,468.344c-5.297,0-8.828,3.531-8.828,8.828S383.55,486,388.846,486h44.138v-17.655H388.846z
		"/>
	<path style="fill:#7E89A5;" d="M124.019,486c5.297,0,8.828-3.531,8.828-8.828s-3.531-8.828-8.828-8.828H79.881V486H124.019z"/>
</g>
<g>
</g>
<g>
</g>
<g>
</g>
<g>
</g>
<g>
</g>
<g>
</g>
<g>
</g>
<g>
</g>
<g>
</g>
<g>
</g>
<g>
</g>
<g>
</g>
<g>
</g>
<g>
</g>
<g>
</g>
</svg>
