<svg id="Capa_1" enable-background="new 0 0 512.002 512.002" height="512" viewBox="0 0 512.002 512.002" width="512" xmlns="http://www.w3.org/2000/svg"><path d="m361.998 254.831 6.734 15.628c2.155 5.003 8.13 7.386 13.141 5.227l56.05-24.15c4.996-2.152 7.384-8.135 5.227-13.141l-10.484-24.33 73.055-29.636c5.044-2.046 7.56-7.983 5.503-13.036l-13.83-33.98c-2.064-5.07-7.82-7.538-12.915-5.54l-74.616 29.278-33.731-78.287 76.165-29.173c2.51-.961 4.528-2.893 5.598-5.359 1.069-2.466 1.101-5.259.088-7.749l-13.98-34.35c-2.042-5.017-7.709-7.497-12.78-5.591l-77.91 29.276-9.214-21.374c-2.187-5.071-8.069-7.411-13.14-5.225l-56.05 24.15c-2.436 1.049-4.355 3.024-5.335 5.489s-.94 5.218.109 7.654l10.18 23.613c-10.613 6.072-20.973 12.531-31.065 19.365v-73.585c0-2.762-1.12-5.262-2.93-7.072s-4.31-2.93-7.072-2.93h-37.63c-5.523 0-10 4.477-10 10v110.21h-98.463v-22.179c0-5.523-4.477-10-10-10s-10 4.477-10 10v200.874c-6.756 16.119-12.651 32.609-17.628 49.363l-.003-328.266h27.629c5.523 0 10-4.477 10-10s-4.477-10-10-10h-37.629c-5.523 0-10 4.477-10 10v110.208h-25.017c-5.523 0-10 4.477-10 10v61.03c0 5.523 4.477 10 10 10h25.017v123.54h-25.017c-5.523 0-10 4.477-10 10v61.04c0 5.523 4.477 10 10 10h25.017l-.001 96.18c0 5.523 4.477 10 10 10h37.629c5.523 0 10-4.477 10-10v-14.675c.007-.151.01-.302.01-.455 0-27.426 2.578-54.535 7.647-81.05h90.808v81.05c0 .033.005.064.005.097v15.033c0 5.523 4.477 10 10 10h37.63c5.523 0 10-4.477 10-10v-15.13c0-27.651 3.851-54.883 11.342-81.05h13.883c5.523 0 10-4.477 10-10v-48.598c4.343-8.045 9.073-15.916 14.186-23.587 17.612-26.426 39.149-49.576 63.787-68.807zm21.144-1.469-4.555-10.572c11.425-7.697 23.405-14.59 35.797-20.609l6.44 14.945zm7.997-83.945c-12.26 5.862-24.193 12.431-35.695 19.67l-35.077-81.398c12.093-6.423 24.489-12.271 37.139-17.511l34.053 79.035c-.141.067-.28.137-.42.204zm-164.072 162.555c-6.03 12.297-11.344 24.939-15.901 37.854v-179.214c5.706-6.004 11.586-11.838 17.63-17.5v155.363c-.586 1.16-1.156 2.33-1.729 3.497zm-35.901-7.189h-66.763c11.763-28.813 26.705-56.453 44.728-82.477 6.962-10.052 14.323-19.747 22.035-29.096zm57.63-169.259c4.986-4.119 10.061-8.134 15.23-12.021v37.739h-15.23zm0 45.719h25.23c5.523 0 10-4.477 10-10v-61.03c0-.283-.019-.561-.042-.837 6.171-4.107 12.46-8.047 18.851-11.835l35.717 82.883c-34.523 24.636-64.424 55.429-88.303 91.253-.492.738-.967 1.484-1.453 2.225zm48.693-146.652-5.48-12.712 37.682-16.236 5.001 11.603c-12.628 5.27-25.054 11.046-37.203 17.345zm-76.197 49.066c-3.409 2.679-6.789 5.398-10.125 8.167v-91.819h17.629v77.867c-2.522 1.901-5.02 3.834-7.504 5.785zm-128.586 36.556h87.142c-13.092 12.959-25.448 26.676-36.995 41.03h-50.147zm-.003 61.03h34.898c-1.975 2.73-3.929 5.479-5.852 8.256-10.628 15.346-20.318 31.184-29.046 47.448zm-72.648-20v-41.03h15.017v41.03zm0 204.58v-41.04h15.017v41.04zm52.645 101.049v5.13h-17.63c0-74.02 15.743-146.847 48.865-213.244 10.016-20.077 21.481-39.428 34.256-57.872 50.93-73.543 122.117-130.636 204.55-165.147 23.563-9.864 47.651-18.39 71.555-27.372 4.95-1.86 9.9-3.72 14.85-5.58l6.462 15.879c-27.292 10.453-54.78 20.499-81.877 31.449-31.714 12.815-61.849 29.122-89.854 48.778-27.442 19.262-52.682 41.624-75.141 66.515-12.973 14.378-25.022 29.591-36.048 45.511-21.746 31.4-39.215 65.042-52.225 100.231-19.165 49.056-27.763 103.236-27.763 155.722zm32-101.049c3.349-13.875 7.385-27.571 12.11-41.04h74.356v41.04zm124.101 101.049v5.13h-17.63c0-85.304 30.169-167.626 88.27-230.581 17.079-18.506 36.289-35.035 57.127-49.176 34.117-23.778 73.125-37.391 111.483-52.441 4.847-1.902 9.694-3.804 14.541-5.705l6.333 15.561c-27.472 11.144-55.663 21.256-82.394 34.113-16.105 7.746-31.957 16.782-46.326 27.44-43.14 30.842-78.051 72.666-100.888 120.516-6.345 13.295-12.002 27.121-16.2 41.253-9.446 30.175-14.316 61.768-14.316 93.89z"/><path d="m432.026 320.456c-5.336-5.336-12.431-8.275-19.977-8.275s-14.641 2.938-19.976 8.274l-71.661 71.661c-11.015 11.016-11.015 28.938 0 39.954l71.66 71.66c5.508 5.508 12.742 8.262 19.977 8.262s14.469-2.754 19.977-8.262l71.661-71.661c11.014-11.015 11.014-28.938 0-39.954zm57.518 97.472-71.661 71.661c-3.217 3.218-8.452 3.218-11.668 0l-71.661-71.661c-3.217-3.217-3.217-8.452 0-11.669l71.661-71.661c1.559-1.559 3.63-2.417 5.834-2.417s4.276.858 5.835 2.417l71.66 71.66c3.217 3.217 3.217 8.453 0 11.67z"/><path d="m441.912 382.552c-.502-5.037-4.885-8.999-9.949-8.999h-27.082c-5.523 0-10 4.477-10 10s4.477 10 10 10h3.699c-10.794 13.499-16.669 30.131-16.669 47.656v10.51c0 5.523 4.477 10 10 10s10-4.477 10-10v-10.51c0-11.66 3.527-22.78 10.052-32.161v2.478c0 5.523 4.477 10 10 10s10-4.477 10-10v-27.973c0-.332-.018-.67-.051-1.001z"/><path d="m88.258 45.284c-4.529-3.018-10.844-1.769-13.87 2.76-3.024 4.525-1.763 10.854 2.77 13.87 4.524 3.01 10.851 1.763 13.86-2.77 2.99-4.506 1.805-10.873-2.76-13.86z"/></svg>