<svg height="512" viewBox="0 0 56 56" width="512" xmlns="http://www.w3.org/2000/svg"><g id="Page-1" fill="none" fill-rule="evenodd"><g id="033---Traffic" fill="rgb(0,0,0)" fill-rule="nonzero"><circle id="Oval" cx="15" cy="36" r="4"/><path id="Shape" d="m13 55c0 .5522847.4477153 1 1 1h2.083c.5522847 0 1-.4477153 1-1v-8.5c0-.2761424-.2238576-.5-.5-.5h-3.083c-.2761424 0-.5.2238576-.5.5z"/><path id="Shape" d="m2.057 11.979 1.439.01c.27614237 0 .5-.2238576.5-.5v-6.989c.00000879-.27458779-.221421-.4978033-.496-.5l-3.493.012c1.30310343 2.45643574 2.00562612 5.18667879 2.05 7.967z"/><circle id="Oval" cx="15" cy="22" r="4"/><path id="Shape" d="m55 37c.2609224.0026276.5116037-.1014015.694-.288.1960917-.1847916.3068733-.4425578.306-.712 0-.5522847-.4477153-1-1-1h-1.817l.571 2z"/><path id="Shape" d="m2.057 39.979 1.439.01c.27614237 0 .5-.2238576.5-.5v-6.989c0-.2761424-.22385763-.5-.5-.5l-3.493.012c1.30449415 2.4560902 2.00839241 5.1863519 2.054 7.967z"/><path id="Shape" d="m30 4v-.007l-3.5.007c-.2761424 0-.5.22385763-.5.5v7c0 .2761424.2238576.5.5.5h1.443c.0425439-2.79192451.7475556-5.53382728 2.057-8z"/><path id="Shape" d="m51.492 36.363-2.417-8.463c-.4911347-1.7170864-2.0610553-2.9005461-3.847-2.9h-10.456c-1.7859447-.0005461-3.3558653 1.1829136-3.847 2.9l-2.417 8.462c-.0429778.1508503-.012676.313126.0818442.4383014.0945201.1251753.2423026.198741.3991558.1986986h22.022c.1566204-.0000466.3041699-.073479.3986443-.1983972.0944743-.1249182.1249565-.2868874.0823557-.4376028zm-9.785-9.07c.3903819.3904999.3903819 1.0235001 0 1.414l-6 6c-.3923789.3789722-1.0160848.3735524-1.4018186-.0121814s-.3911536-1.0094397-.0121814-1.4018186l6-6c.3904999-.3903819 1.0235001-.3903819 1.414 0zm-9.414 2 2-2c.3923789-.3789722 1.0160848-.3735524 1.4018186.0121814s.3911536 1.0094397.0121814 1.4018186l-2 2c-.3923789.3789722-1.0160848.3735524-1.4018186-.0121814s-.3911536-1.0094397-.0121814-1.4018186z"/><path id="Shape" d="m24.288 36.694c.1847916.1960917.4425578.3068733.712.306h1.246l.571-2h-1.817c-.5522847 0-1 .4477153-1 1-.0026276.2609224.1014015.5116037.288.694z"/><path id="Shape" d="m30 18v-.007l-3.5.007c-.2761424 0-.5.2238576-.5.5v7c0 .2761424.2238576.5.5.5h1.443c.0425439-2.7919245.7475556-5.5338273 2.057-8z"/><path id="Shape" d="m2.057 25.979 1.439.01c.27614237 0 .5-.2238576.5-.5v-6.989c0-.2761424-.22385763-.5-.5-.5l-3.493.012c1.30449415 2.4560902 2.00839241 5.1863519 2.054 7.967z"/><path id="Rectangle-path" d="m28 43h5.001v2h-5.001z"/><path id="Shape" d="m51 55c0 .5522847.4477153 1 1 1h1c.5522847 0 1-.4477153 1-1v-3.5c0-.2761424-.2238576-.5-.5-.5h-2c-.2761424 0-.5.2238576-.5.5z"/><circle id="Oval" cx="15" cy="8" r="4"/><path id="Shape" d="m53 39h-26c-1.6568542 0-3 1.3431458-3 3v6c0 .5522847.4477153 1 1 1h30c.5522847 0 1-.4477153 1-1v-6c0-1.6568542-1.3431458-3-3-3zm-18 6c0 1.1045695-.8954305 2-2 2h-5c-1.1045695 0-2-.8954305-2-2v-2c0-1.1045695.8954305-2 2-2h5c1.1045695 0 2 .8954305 2 2zm7 2h-4c-.5522847 0-1-.4477153-1-1s.4477153-1 1-1h4c.5522847 0 1 .4477153 1 1s-.4477153 1-1 1zm0-4h-4c-.5522847 0-1-.4477153-1-1s.4477153-1 1-1h4c.5522847 0 1 .4477153 1 1s-.4477153 1-1 1zm12 2c0 1.1045695-.8954305 2-2 2h-5c-1.1045695 0-2-.8954305-2-2v-2c0-1.1045695.8954305-2 2-2h5c1.1045695 0 2 .8954305 2 2z"/><path id="Rectangle-path" d="m47 43h5.001v2h-5.001z"/><path id="Shape" d="m22 36c.0052514-1.2667854.8056491-2.3937454 2-2.816v-32.184c0-.55228475-.4477153-1-1-1h-16c-.55228475 0-1 .44771525-1 1v42c0 .5522847.44771525 1 1 1h15v-2c.0011658-1.2947768.5069656-2.5381115 1.41-3.466-.875561-.5449725-1.4084663-1.5026903-1.41-2.534zm-7 6c-3.3137085 0-6-2.6862915-6-6s2.6862915-6 6-6 6 2.6862915 6 6c-.0033074 3.3123376-2.6876624 5.9966926-6 6zm0-14c-3.3137085 0-6-2.6862915-6-6s2.6862915-6 6-6 6 2.6862915 6 6c-.0033074 3.3123376-2.6876624 5.9966926-6 6zm0-14c-3.3137085 0-6-2.6862915-6-6s2.6862915-6 6-6 6 2.6862915 6 6c-.0033074 3.3123376-2.6876624 5.9966926-6 6z"/><path id="Shape" d="m26 55c0 .5522847.4477153 1 1 1h1c.5522847 0 1-.4477153 1-1v-3.5c0-.2761424-.2238576-.5-.5-.5h-2c-.2761424 0-.5.2238576-.5.5z"/></g></g></svg>