<svg id="Capa_1" enable-background="new 0 0 512 512" height="512" viewBox="0 0 512 512" width="512" xmlns="http://www.w3.org/2000/svg"><circle cx="52.44" cy="37.059" r="37.059"/><path d="m453.529 392.441h-45.695l11.185 22.972h-145.449l11.185-22.972h-45.695l-58.212 119.559h45.695l9.021-18.528h221.461l9.022 18.528h45.695zm-205.463 75.354 13.002-26.704h170.453l13.002 26.704z"/><path d="m297.943 30.813h96.704c8.509 0 15.406-6.897 15.406-15.406s-6.898-15.407-15.406-15.407h-96.704c-8.509 0-15.406 6.897-15.406 15.406s6.897 15.407 15.406 15.407z"/><path d="m243.752 371.844h48.613v-22.494c0-7.546 6.117-13.663 13.663-13.663h80.532c7.546 0 13.663 6.117 13.663 13.663v22.494h48.613c32.458 0 58.77-26.313 58.77-58.77v-201.115c0-32.458-26.312-58.77-58.77-58.77h-205.084c-32.458 0-58.77 26.312-58.77 58.77v201.115c.001 32.457 26.313 58.77 58.77 58.77zm198.94-32.524c-15.117 0-27.372-12.255-27.372-27.373s12.255-27.373 27.372-27.373 27.373 12.255 27.373 27.373c-.001 15.118-12.256 27.373-27.373 27.373zm-220.167-214.248c0-10.233 8.297-18.531 18.531-18.531h210.477c10.234 0 18.531 8.297 18.531 18.531v91.379c0 10.234-8.296 18.531-18.531 18.531h-210.477c-10.234 0-18.531-8.296-18.531-18.531zm27.373 160.038c15.117 0 27.373 12.255 27.373 27.373 0 15.117-12.255 27.373-27.373 27.373-15.117 0-27.373-12.255-27.373-27.373s12.255-27.373 27.373-27.373z"/><path d="m158.226 417.632h-80.549c6.804-3.149 11.535-10.019 11.534-18.009l-.01-138.891c-.149.085-.294.176-.445.259-13.783 7.549-31.077 2.495-38.626-11.289l-.632-1.153.011 151.077c.001 7.989 4.731 14.857 11.535 18.006h-32.273c6.822-3.158 11.556-10.057 11.532-18.067-.553-169.613-.395-158.521-.578-160.461h4.601l-25.136-45.893c-.987-2.399-4.873-6.446-3.488-12.929l10.247-47.743 1.234 47.444c.07 2.699.783 5.342 2.081 7.71l30.941 56.492c4.487 8.194 14.789 11.247 23.035 6.732 8.22-4.502 11.234-14.815 6.731-23.035l-28.967-52.889-1.128-43.339 9.231 34.224 20.393 37.233v-94.19c0-12.866-10.43-23.296-23.296-23.296h-42.66c-12.866 0-23.285 10.43-23.285 23.296-.001 36.084 0 287.188 0 290.763.024 7.969 5.092 14.808 11.876 17.947h-11.876v30.042 64.327h143.256v-64.326h14.711c3.939 0 7.133-3.193 7.133-7.133v-15.776c0-3.94-3.193-7.133-7.133-7.133z"/></svg>