<svg height="512" viewBox="0 0 192 192" width="512" xmlns="http://www.w3.org/2000/svg"><g id="_09-ticket" data-name="09-ticket"><path d="m176 32h-160a16.019 16.019 0 0 0 -16 16v96a16.019 16.019 0 0 0 16 16h160a16.019 16.019 0 0 0 16-16v-96a16.019 16.019 0 0 0 -16-16zm0 112h-160v-96h160l.01 96z"/><path d="m127.428 53.029-14.856 5.942 11.612 29.029h-15.24l-5.789-11.578-14.31 7.156 6.211 12.422-6.211 12.422 14.31 7.156 5.789-11.578h15.24l-11.612 29.029 14.856 5.942 13.988-34.971h26.584v-16h-26.584z"/><path d="m24 56h24v16h-24z"/><path d="m64 56h32v16h-32z"/><path d="m24 80h48v16h-48z"/><circle cx="32" cy="128" r="8"/><circle cx="56" cy="128" r="8"/><circle cx="80" cy="128" r="8"/></g></svg>