<svg height="512" viewBox="0 0 64 64" width="512" xmlns="http://www.w3.org/2000/svg"><path d="m3 3h58v58h-58z" fill="#394d5c"/><path d="m3 3h16v8h-16z" fill="#7d8d9c"/><path d="m6 6h2v2h-2z" fill="#e1462b"/><path d="m10 6h2v2h-2z" fill="#f9bb4b"/><path d="m14 6h2v2h-2z" fill="#55b56a"/><path d="m19 3h42v8h-42z" fill="#aabece"/><rect fill="#aabece" height="28" rx="4" width="50" x="7" y="15"/><circle cx="32" cy="29" fill="#e1462b" r="10"/><path d="m28 35v-12l10 6z" fill="#f4f4e6"/><path d="m29 47h2v6h-2z" fill="#f4f4e6"/><path d="m33 47h2v6h-2z" fill="#f4f4e6"/><path d="m6 56h2v2h-2z" fill="#e1462b"/><path d="m10 56h40v2h-40z" fill="#e1462b"/><path d="m52 56h2v2h-2z" fill="#e1462b"/><path d="m56 56h2v2h-2z" fill="#e1462b"/><g fill="#f4f4e6"><path d="m18.293 52.707-2-2a1 1 0 0 1 0-1.414l2-2 1.414 1.414-1.293 1.293 1.293 1.293z"/><path d="m13.293 52.707-2-2a1 1 0 0 1 0-1.414l2-2 1.414 1.414-1.293 1.293 1.293 1.293z"/><path d="m45.707 52.707-1.414-1.414 1.293-1.293-1.293-1.293 1.414-1.414 2 2a1 1 0 0 1 0 1.414z"/><path d="m50.707 52.707-1.414-1.414 1.293-1.293-1.293-1.293 1.414-1.414 2 2a1 1 0 0 1 0 1.414z"/><path d="m12 25h-2v-6a1 1 0 0 1 1-1h5v2h-4z"/><path d="m54 24h-2v-4h-3v-2h4a1 1 0 0 1 1 1z"/><path d="m53 40h-6v-2h5v-2h2v3a1 1 0 0 1 -1 1z"/><path d="m43 38h2v2h-2z"/><path d="m10 27h2v2h-2z"/></g></svg>