<svg height="511pt" viewBox="-3 0 511 511.99528" width="511pt" xmlns="http://www.w3.org/2000/svg"><path d="m18.019531 234.011719 144.082031 112.621093c2.78125 2.160157 6.078126 3.207032 9.351563 3.207032 4.546875 0 9.050781-2.019532 12.046875-5.867188l7.273438-9.316406c4.441406-5.660156 4.210937-13.507812-.109376-18.921875l1.140626-1.457031 107.253906-26.6875c5.121094 4.902344 11.210937 8.699218 17.863281 11.0625.25.085937.507813.164062.765625.222656 2.5.597656 4.835938.894531 7 .894531 4.226562 0 7.796875-1.136719 10.65625-3.394531 3.710938-2.933594 5.75-7.472656 5.75-12.789062l-.011719-10.296876c15.0625 3.253907 26.34375 16.109376 26.34375 31.433594v26.648438c0 4.09375 3.316407 7.410156 7.410157 7.410156s7.410156-3.316406 7.410156-7.410156v-26.648438c0-23.492187-17.890625-43.019531-41.183594-46.503906l-.015625-12.695312c6.648437.179687 11.234375.855468 16.75 2.394531 28.164063 7.875 38.199219 33.582031 38.199219 55.011719v21.941406c0 4.09375 3.316406 7.410156 7.410156 7.410156s7.410156-3.316406 7.410156-7.410156v-21.941406c0-14.757813-3.929687-29.289063-11.0625-40.914063-8.601562-14.019531-21.730468-23.828125-37.972656-28.371094-7.582031-2.117187-13.691406-2.785156-20.757812-2.945312l-.015626-11.367188c-.03125-5.316406-2.101562-9.847656-5.828124-12.757812-4.339844-3.390625-10.277344-4.207031-17.644532-2.414063-.25.0625-.5.136719-.742187.222656-6.652344 2.378907-12.75 6.183594-17.824219 11.078126l-30.117188.210937 18.714844-23.957031c.257813-.328125.503906-.628906.738282-.917969 2.65625-3.269531 4.441406-5.832031 6.863281-13.847656l11.578125-38.078125c.804687-2.679688 3.25-10.84375-3.542969-16.203125l-28.488281-22.253907c-6.179688-4.878906-12.765625-1.515624-15.925782.105469l-28.492187 14.335938c-3.003906 1.507812-6.382813 3.207031-7.625 3.472656-.921875-.441406-3.140625-2.175781-5.128906-3.730469l-1.429688-1.117187c13.074219-33.804688 2.550781-73.285157-26.269531-95.855469 0 0-.003906-.003906-.003906-.003906-36.179688-28.265625-88.609375-21.835938-116.875 14.332031l-37.394532 47.859375c-27.078124 34.644531-22.304687 84.199219 9.859376 113.125l-4.515626 5.777344c-2.5-1.117188-5.261718-1.554688-8.0625-1.210938-4.042968.496094-7.648437 2.527344-10.175781 5.746094l-7.265625 9.335938c-5.183594 6.609374-4.019531 16.214843 2.609375 21.425781zm291.445313-8.09375c3.425781-3.253907 7.507812-5.800781 11.945312-7.445313 3.023438-.683594 4.292969-.347656 4.597656-.234375.070313.164063.179688.554688.183594 1.144531l.085938 64.214844c0 .601563-.105469.992188-.175782 1.160156-.308593.113282-1.582031.453126-4.605468-.214843-4.714844-1.734375-9.03125-4.496094-12.632813-8.058594zm-14.875 4.390625-.28125 23.53125-.234375 19.714844-87.417969 21.753906 50.578125-64.738282zm-247.339844-141.371094 37.394531-47.859375c13.480469-17.246094 33.640625-26.265625 54-26.265625 14.738281 0 29.582031 4.726562 42.070313 14.484375 22.492187 17.613281 31.4375 47.765625 23.089844 74.554687l-11.792969-9.214843c4.277343-20.25-3.296875-41.617188-19.761719-54.488281v-.003907c-23.757812-18.570312-58.207031-14.355469-76.789062 9.402344l-37.394532 47.859375c-8.96875 11.464844-12.925781 25.792969-11.140625 40.339844 1.542969 12.582031 7.222657 23.960937 16.144531 32.609375l-8.5 10.882812c-25.753906-23.917969-29.347656-64.117187-7.320312-92.300781zm102.511719-16.441406c-1.859375.273437-3.671875.71875-5.417969 1.332031-5.234375 1.835937-9.875 5.152344-13.394531 9.652344l-5.15625 6.601562-53.535157 68.503907c-5.84375-6.148438-9.5625-14.007813-10.621093-22.644532-1.304688-10.617187 1.574219-21.058594 8.105469-29.410156l37.394531-47.851562c7.855469-10.046876 19.605469-15.300782 31.464843-15.300782 8.59375 0 17.246094 2.757813 24.519532 8.445313 9.957031 7.785156 15.457031 19.839843 15.257812 32.15625l-7.722656-6.03125c-5.902344-4.617188-13.324219-6.558594-20.894531-5.453125zm-122.671875 149.214844 7.265625-9.335938c.070312-.089844.171875-.144531.304687-.160156.183594-.023438.269532.046875.3125.078125l60.390625 47.214843c3.222657 2.519532 7.882813 1.949219 10.402344-1.273437s1.949219-7.882813-1.273437-10.402344l-51.617188-40.351562 89.753906-114.871094c2.332032-2.980469 5.625-4.914063 9.273438-5.445313 2.15625-.316406 4.402344-.101562 6.445312.675782 1.136719.429687 2.207032 1.023437 3.179688 1.785156l.941406.734375 45.972656 35.929687c5.09375 3.980469 8.460938 6.613282 13.382813 6.867188 4.585937.230469 8.554687-1.757812 15.136719-5.0625l28.324218-14.253906.25-.128906c.382813-.195313.867188-.441407 1.300782-.648438l26.046874 20.34375c-.070312.300781-.171874.6875-.320312 1.179688l-11.570312 38.0625c-1.757813 5.8125-2.570313 6.8125-4.1875 8.804687-.277344.339844-.566407.695313-.890626 1.105469l-96.660156 123.710937-46.921875-36.667969c-3.222656-2.519531-7.878906-1.945312-10.398437 1.277344-2.523438 3.222656-1.949219 7.882813 1.273437 10.398438l52.429688 40.972656c.105469.089844.207031.1875.316406.273438.070313.054687.144531.089843.210937.140624l2.859376 2.230469c.175781.140625.222656.441407.078124.625l-7.289062 9.339844c-.148438.1875-.457031.191406-.597656.085937l-144.050782-112.601562c-.179687-.140625-.222656-.441406-.074218-.632812zm0 0"/><path d="m126.875 243.199219c7.929688 6.199219 17.46875 9.5 27.257812 9.5 1.425782 0 2.855469-.070313 4.289063-.210938 11.398437-1.125 21.476563-6.621093 28.375-15.457031 4.207031-5.367188 7.007813-11.769531 8.09375-18.523438.007813-.046874.015625-.097656.023437-.148437l4.3125-30.652344c.011719-.058593.019532-.117187.023438-.179687.421875-3.625.421875-3.625.558594-4.648438.148437-1.0625.4375-3.183594 1.449218-11.1875.023438-.191406.042969-.382812.050782-.574218.289062-5.992188-2.054688-11.355469-6.4375-14.707032-4.5625-3.496094-10.589844-4.285156-16.964844-2.230468-.113281.039062-.226562.074218-.335938.117187l-14.0625 5.296875c-.046874.015625-.089843.03125-.132812.050781l-28.824219 11.488281c-.0625.023438-.125.050782-.1875.078126-6.269531 2.695312-11.792969 6.949218-15.992187 12.304687-14.171875 18.152344-10.359375 44.925781 8.503906 59.683594zm3.171875-50.554688c2.683594-3.421875 6.078125-6.039062 10.089844-7.785156l28.660156-11.421875 13.808594-5.199219c1.753906-.535156 2.851562-.375 3.257812-.0625s.652344 1.082031.648438 2c-.96875 7.621094-1.246094 9.671875-1.386719 10.703125-.144531 1.078125-.148438 1.085938-.585938 4.851563l-4.289062 30.488281c-.699219 4.257812-2.46875 8.289062-5.125 11.683594-4.390625 5.621094-10.839844 9.113281-18.160156 9.839844-7.449219.730468-14.894532-1.472657-20.957032-6.214844-12.433593-9.726563-15.101562-27.171875-5.960937-38.882813zm0 0"/><path d="m475.257812 449.597656h-85.390624v-34.597656l13.886718-8.34375c6.589844 7.582031 15.195313 11.574219 24.621094 11.574219 3.21875 0 6.535156-.464844 9.898438-1.410157 21.832031-6.140624 39.867187-29.90625 42.890624-56.511718.015626-.121094.023438-.242188.03125-.359375.363282-5.644531-1.03125-10.277344-4.144531-13.78125-3.304687-3.722657-8.289062-5.789063-14.804687-6.140625-29.65625-1.621094-54.050782 8.742187-63.6875 27.070312-4.484375 8.535156-5.171875 17.957032-2.226563 26.726563l-13.878906 8.335937-13.898437-8.34375c2.9375-8.769531 2.25-18.1875-2.234376-26.714844-9.636718-18.332031-34.042968-28.703124-63.679687-27.074218-6.523437.351562-11.503906 2.417968-14.8125 6.140625-3.113281 3.503906-4.507813 8.140625-4.144531 13.78125.007812.121093.019531.238281.03125.359375 3.023437 26.605468 21.0625 50.367187 42.890625 56.511718 3.363281.945313 6.679687 1.410157 9.902343 1.410157 9.425782 0 18.035157-3.992188 24.628907-11.582031l13.90625 8.351562v34.597656h-85.390625c-4.09375 0-7.410156 3.320313-7.410156 7.410156 0 4.09375 3.316406 7.410157 7.410156 7.410157h185.605468c9.027344 0 16.371094 7.347656 16.371094 16.382812 0 9.027344-7.34375 16.375-16.371094 16.375h-443.566406c-9.027344 0-16.371094-7.347656-16.371094-16.375 0-9.035156 7.34375-16.382812 16.371094-16.382812h223.730469c4.09375 0 7.410156-3.316407 7.410156-7.410157 0-4.089843-3.316406-7.410156-7.410156-7.410156h-85.003906v-27.117187l8.023437-4.816407c5.089844 5.28125 11.523438 8.054688 18.535156 8.054688 2.558594 0 5.191407-.367188 7.863282-1.117188 16.890625-4.738281 30.847656-23.019531 33.179687-43.46875.015625-.121093.027344-.246093.035157-.367187.375-5.859375-1.726563-9.539063-3.550782-11.597656-2.804687-3.152344-6.953125-4.898438-12.316406-5.1875-22.6875-1.246094-41.441406 6.804687-48.933594 21.039062-3.332031 6.328125-4.035156 13.261719-2.234375 19.816407l-8.007812 4.804687-8.003907-4.808594c1.800782-6.546875 1.101563-13.472656-2.222656-19.796875-7.492187-14.242187-26.246094-22.316406-48.945312-21.054687-5.347656.285156-9.480469 2.027343-12.285156 5.167969-1.832032 2.050781-3.941407 5.722656-3.59375 11.582031.007812.132812.019531.265625.035156.398437 2.335937 20.441406 16.285156 38.722656 33.171875 43.464844 2.679687.753906 5.320312 1.125 7.886719 1.125 7.007812 0 13.445312-2.769531 18.542968-8.046875l8 4.804687v27.121094h-123.90625c-17.199218 0-31.195312 13.996094-31.195312 31.199219s13.996094 31.199219 31.195312 31.199219h443.566406c17.199219 0 31.191407-13.996094 31.191407-31.199219 0-17.199219-13.992188-31.199219-31.191407-31.199219zm-63.582031-75.601562c5.414063-10.292969 21.308594-20.738282 49.765625-19.171875 2.695313.144531 4.125.730469 4.53125 1.1875.261719.292969.527344 1.203125.441406 2.820312-2.628906 22.449219-18.386718 39.847657-32.152343 43.71875-6.824219 1.921875-12.679688.65625-17.476563-3.726562l16.683594-10.023438c3.507812-2.105469 4.644531-6.660156 2.539062-10.167969-2.109374-3.507812-6.660156-4.640624-10.171874-2.535156l-16.277344 9.777344c-.609375-3.964844.078125-8 2.117187-11.878906zm-56.351562 11.875-16.285157-9.773438c-3.507812-2.105468-8.058593-.96875-10.164062 2.539063-2.109375 3.507812-.972656 8.058593 2.535156 10.167969l16.6875 10.015624c-4.792968 4.386719-10.652344 5.648438-17.476562 3.730469-13.769532-3.871093-29.527344-21.269531-32.15625-43.71875-.082032-1.617187.183594-2.527343.441406-2.820312.40625-.457031 1.835938-1.039063 4.542969-1.1875 28.433593-1.5625 44.339843 8.878906 49.753906 19.171875 2.039063 3.878906 2.730469 7.910156 2.121094 11.875zm-168.957031 6.054687c3.5625-6.761719 14.855468-14.257812 35.015624-13.144531.957032.050781 1.550782.175781 1.886719.273438.007813.152343.011719.351562.003907.601562-1.886719 15.796875-12.863282 27.988281-22.4375 30.675781-3.398438.953125-6.351563.707031-8.933594-.75l9.878906-5.929687c3.511719-2.105469 4.648438-6.65625 2.539062-10.167969-2.105468-3.507813-6.65625-4.644531-10.167968-2.539063l-9.210938 5.53125c.175782-1.535156.644532-3.0625 1.425782-4.550781zm-62.105469 11.726563 9.871093 5.929687c-2.582031 1.457031-5.546874 1.707031-8.957031.746094-9.566406-2.6875-20.535156-14.871094-22.425781-30.652344-.011719-.261719-.003906-.464843.007812-.617187.328126-.097656.921876-.226563 1.890626-.277344 20.164062-1.117188 31.460937 6.390625 35.019531 13.152344.78125 1.484375 1.25 3.007812 1.417969 4.535156l-9.191407-5.519531c-3.507812-2.109375-8.0625-.972657-10.167969 2.535156-2.105468 3.507813-.972656 8.058594 2.535157 10.167969zm0 0"/></svg>