<svg height="512pt" viewBox="-68 0 512 512" width="512pt" xmlns="http://www.w3.org/2000/svg"><path d="m271.617188 129.195312v253.609376l-21.417969 106.921874c-1.589844 7.980469-8.589844 13.730469-16.726563 13.738282h-125.609375c-8.136719-.007813-15.136719-5.757813-16.726562-13.738282l-21.417969-106.921874v-253.609376l21.417969-106.921874c1.589843-7.980469 8.589843-13.730469 16.726562-13.738282h125.609375c8.136719.007813 15.136719 5.757813 16.726563 13.738282zm0 0" fill="#37474f"/><path d="m247.464844 129.195312v253.609376l-21.417969 106.921874c-1.589844 7.980469-8.585937 13.730469-16.722656 13.738282h-101.460938c-8.136719-.007813-15.136719-5.757813-16.726562-13.738282l-21.417969-106.921874v-253.609376l21.417969-106.921874c1.589843-7.980469 8.589843-13.730469 16.726562-13.738282h101.460938c8.136719.007813 15.132812 5.757813 16.722656 13.738282zm0 0" fill="#607d8b"/><path d="m332.800781 256c-.019531 89.535156-72.597656 162.113281-162.132812 162.132812-4.269531 0-8.621094-.171874-12.800781-.511718-84.316407-6.675782-149.332032-77.042969-149.332032-161.621094s65.015625-154.945312 149.332032-161.621094c4.179687-.339844 8.53125-.511718 12.800781-.511718 89.535156.019531 162.113281 72.597656 162.132812 162.132812zm0 0" fill="#9e9e9e"/><path d="m298.667969 256c0-89.261719-64.949219-161.621094-145.066407-161.621094-80.121093 0-145.066406 72.359375-145.066406 161.621094s64.945313 161.621094 145.066406 161.621094c80.117188 0 145.066407-72.359375 145.066407-161.621094zm0 0" fill="#cfd8dc"/><path d="m298.667969 256c-.027344 70.683594-57.320313 127.972656-128 128-4.191407.03125-8.382813-.195312-12.546875-.683594-.167969 0-.339844.085938-.511719 0-65.292969-6.683594-114.945313-61.679687-114.945313-127.316406s49.652344-120.632812 114.945313-127.316406c.171875-.085938.34375 0 .511719 0 4.164062-.488282 8.355468-.714844 12.546875-.683594 70.679687.027344 127.972656 57.316406 128 128zm0 0" fill="#0377bc"/><path d="m273.066406 256c-.054687 65.613281-49.675781 120.578125-114.945312 127.316406-.167969 0-.339844.085938-.511719 0-65.292969-6.683594-114.945313-61.679687-114.945313-127.316406s49.652344-120.632812 114.945313-127.316406c.171875-.085938.34375 0 .511719 0 65.269531 6.738281 114.890625 61.703125 114.945312 127.316406zm0 0" fill="#02a9f4"/><path d="m331.863281 273.066406h26.535157c4.707031-.011718 8.519531-3.824218 8.535156-8.53125v-17.070312c-.015625-4.707032-3.828125-8.519532-8.535156-8.53125h-26.535157zm0 0" fill="#607d8b"/><path d="m213.332031 59.734375h-85.332031c-4.710938 0-8.535156-3.820313-8.535156-8.535156 0-4.710938 3.824218-8.53125 8.535156-8.53125h85.332031c4.714844 0 8.535157 3.820312 8.535157 8.53125 0 4.714843-3.820313 8.535156-8.535157 8.535156zm0 0" fill="#2c2f38"/><path d="m213.332031 469.332031h-85.332031c-4.710938 0-8.535156-3.820312-8.535156-8.53125 0-4.714843 3.824218-8.535156 8.535156-8.535156h85.332031c4.714844 0 8.535157 3.820313 8.535157 8.535156 0 4.710938-3.820313 8.53125-8.535157 8.53125zm0 0" fill="#2c2f38"/><g fill="#5e5f62"><path d="m179.199219 366.933594v16.726562c-2.816407.253906-5.632813.339844-8.53125.339844-2.902344 0-5.71875-.085938-8.535157-.339844v-16.726562c0-4.714844 3.820313-8.535156 8.535157-8.535156 4.710937 0 8.53125 3.820312 8.53125 8.535156zm0 0"/><path d="m241.921875 362.324219c-4.757813 3.171875-9.714844 6.023437-14.851563 8.535156l-8.359374-14.507813c-2.359376-4.101562-.945313-9.332031 3.15625-11.691406 4.101562-2.355468 9.332031-.941406 11.691406 3.160156zm0 0"/><path d="m285.523438 312.40625c-2.507813 5.132812-5.359376 10.09375-8.53125 14.847656l-14.507813-8.363281c-4.097656-2.355469-5.511719-7.589844-3.15625-11.691406 2.355469-4.097657 7.589844-5.511719 11.691406-3.15625zm0 0"/><path d="m298.667969 256c0 2.902344-.085938 5.714844-.34375 8.535156h-16.722657c-4.714843 0-8.535156-3.824218-8.535156-8.535156s3.820313-8.535156 8.535156-8.535156h16.722657c.257812 2.816406.34375 5.632812.34375 8.535156zm0 0"/><path d="m78.847656 318.890625-14.507812 8.363281c-3.171875-4.753906-6.019532-9.714844-8.53125-14.847656l14.507812-8.363281c2.652344-1.523438 5.914063-1.519531 8.5625.015625 2.644532 1.535156 4.269532 4.367187 4.265625 7.425781-.007812 3.058594-1.644531 5.882813-4.296875 7.40625zm0 0"/><path d="m122.625 356.351562-8.363281 14.507813c-5.132813-2.511719-10.09375-5.363281-14.847657-8.535156l8.363282-14.503907c1.523437-2.652343 4.347656-4.292968 7.40625-4.296874 3.058594-.007813 5.886718 1.621093 7.421875 4.265624 1.535156 2.648438 1.542969 5.910157.019531 8.5625zm0 0"/></g><path d="m236.457031 321.792969c-3.363281 3.296875-8.75 3.296875-12.117187 0l-59.730469-59.734375c-1.574219-1.625-2.460937-3.796875-2.476563-6.058594v-17.066406c5.546876-1.878906 11.265626-3.585938 17.066407-5.289063v18.855469l57.257812 57.175781c3.328125 3.351563 3.328125 8.761719 0 12.117188zm0 0" fill="#2c2f38"/><path d="m179.199219 179.199219v54.445312c-5.800781 1.703125-11.519531 3.410157-17.066407 5.289063v-59.734375c0-4.710938 3.820313-8.53125 8.535157-8.53125 4.710937 0 8.53125 3.820312 8.53125 8.53125zm0 0" fill="#5e5f62"/><path d="m241.921875 149.675781-8.363281 14.503907c-1.527344 2.652343-4.347656 4.292968-7.410156 4.296874-3.058594.007813-5.886719-1.621093-7.421876-4.265624-1.535156-2.648438-1.542968-5.910157-.015624-8.5625l8.359374-14.507813c5.136719 2.511719 10.097657 5.363281 14.851563 8.535156zm0 0" fill="#a5a5a4"/><path d="m285.523438 199.59375-14.503907 8.363281c-2.652343 1.523438-5.917969 1.519531-8.5625-.015625-2.648437-1.535156-4.273437-4.367187-4.269531-7.425781.007812-3.058594 1.644531-5.882813 4.296875-7.40625l14.507813-8.363281c3.171874 4.753906 6.023437 9.714844 8.53125 14.847656zm0 0" fill="#a5a5a4"/><path d="m119.464844 167.339844c-4.105469 2.308594-9.304688.902344-11.6875-3.160156l-8.363282-14.503907c4.753907-3.171875 9.714844-6.023437 14.847657-8.535156l8.363281 14.507813c2.320312 4.105468.914062 9.3125-3.160156 11.691406zm0 0" fill="#a5a5a4"/><path d="m82.003906 204.800781c-2.382812 4.0625-7.582031 5.464844-11.6875 3.15625l-14.507812-8.363281c2.511718-5.132812 5.363281-10.09375 8.53125-14.847656l14.507812 8.363281c4.074219 2.378906 5.480469 7.585937 3.15625 11.691406zm0 0" fill="#a5a5a4"/><path d="m68.265625 256c-.011719 4.707031-3.824219 8.519531-8.53125 8.535156h-16.726563c-.253906-2.820312-.339843-5.632812-.339843-8.535156s.085937-5.71875.339843-8.535156h16.726563c4.707031.015625 8.519531 3.828125 8.53125 8.535156zm0 0" fill="#a5a5a4"/><path d="m179.199219 128.339844v16.726562c0 4.714844-3.820313 8.535156-8.53125 8.535156-4.714844 0-8.535157-3.820312-8.535157-8.535156v-16.726562c2.816407-.253906 5.632813-.339844 8.535157-.339844 2.898437 0 5.714843.085938 8.53125.339844zm0 0" fill="#a5a5a4"/><path d="m221.867188 51.199219c0-2.261719-.898438-4.433594-2.5-6.035157-1.601563-1.597656-3.769532-2.496093-6.035157-2.496093h-85.332031c-4.710938 0-8.535156 3.820312-8.535156 8.53125 0 4.714843 3.824218 8.535156 8.535156 8.535156h85.332031c2.265625 0 4.433594-.898437 6.035157-2.5 1.601562-1.601563 2.5-3.769531 2.5-6.035156zm0 0"/><path d="m119.464844 460.800781c0 2.261719.898437 4.433594 2.5 6.035157 1.601562 1.597656 3.773437 2.496093 6.035156 2.496093h85.332031c4.714844 0 8.535157-3.820312 8.535157-8.53125 0-4.714843-3.820313-8.535156-8.535157-8.535156h-85.332031c-2.261719 0-4.433594.898437-6.035156 2.5-1.601563 1.601563-2.5 3.769531-2.5 6.035156zm0 0"/><path d="m358.398438 230.398438h-19.199219c-6.257813-41.425782-27.550781-79.101563-59.808594-105.839844l-20.832031-103.976563c-2.425782-11.9375-12.902344-20.535156-25.085938-20.582031h-125.609375c-12.191406.046875-22.671875 8.652344-25.09375 20.601562l-20.828125 103.957032c-39.226562 32.378906-61.941406 80.582031-61.941406 131.441406s22.714844 99.0625 61.941406 131.441406l20.832032 103.976563c2.425781 11.9375 12.90625 20.535156 25.089843 20.582031h125.609375c12.1875-.046875 22.667969-8.652344 25.089844-20.601562l20.828125-103.957032c32.257813-26.738281 53.550781-64.414062 59.808594-105.839844h19.199219c9.421874-.015624 17.054687-7.648437 17.066406-17.066406v-17.070312c-.011719-9.417969-7.644532-17.050782-17.066406-17.066406zm-258.898438-206.433594c.800781-3.988282 4.292969-6.871094 8.363281-6.898438h125.609375c4.0625.023438 7.554688 2.898438 8.355469 6.882813l17.308594 86.382812c-54.269531-33.332031-122.667969-33.332031-176.941407 0zm142.332031 464.070312c-.796875 3.988282-4.289062 6.871094-8.363281 6.898438h-125.605469c-4.066406-.023438-7.554687-2.898438-8.359375-6.882813l-17.304687-86.382812c54.269531 33.332031 122.667969 33.332031 176.9375 0zm-71.164062-78.433594c-84.832031 0-153.601563-68.769531-153.601563-153.601562s68.769532-153.601562 153.601563-153.601562c84.828125 0 153.597656 68.769531 153.597656 153.601562-.097656 84.789062-68.808594 153.503906-153.597656 153.601562zm187.730469-145.066406h-17.496094c.140625-2.847656.429687-5.65625.429687-8.535156s-.289062-5.6875-.429687-8.535156h17.496094zm0 0"/><path d="m239.601562 138.347656c-.210937-.207031-.433593-.40625-.667968-.589844-.214844-.125-.457032-.125-.675782-.230468-41.84375-24.082032-93.339843-24.082032-135.179687 0-.222656.105468-.464844.105468-.679687.230468-.230469.183594-.453126.378907-.664063.589844-20.113281 11.835938-36.882813 28.601563-48.71875 48.714844-.210937.210938-.40625.4375-.589844.671875-.125.210937-.125.453125-.226562.667969-24.089844 41.847656-24.089844 93.347656 0 135.195312.101562.21875.101562.457032.226562.667969.253907.394531.539063.765625.855469 1.113281 11.824219 19.917969 28.488281 36.523438 48.453125 48.273438.210937.210937.433594.40625.664063.589844.304687.148437.617187.273437.933593.382812 41.714844 23.878906 92.953125 23.878906 134.667969 0 .320312-.109375.628906-.234375.933594-.382812.234375-.183594.457031-.382813.667968-.589844 19.960938-11.75 36.628907-28.355469 48.449219-48.273438.316407-.347656.601563-.71875.859375-1.113281.121094-.210937.121094-.453125.222656-.667969 24.089844-41.847656 24.089844-93.347656 0-135.195312-.101562-.21875-.101562-.457032-.222656-.667969-.183594-.234375-.382812-.457031-.589844-.667969-11.835937-20.117187-28.605468-36.882812-48.71875-48.71875zm19.746094 66.453125c2.355469 4.078125 7.574219 5.476563 11.65625 3.125l6.996094-4.039062c6.660156 13.640625 10.632812 28.4375 11.699219 43.578125h-8.097657c-4.714843 0-8.535156 3.824218-8.535156 8.535156s3.820313 8.535156 8.535156 8.535156h8.097657c-1.066407 15.140625-5.039063 29.9375-11.699219 43.578125l-6.996094-4.039062c-2.640625-1.527344-5.894531-1.527344-8.535156 0-2.644531 1.523437-4.269531 4.34375-4.269531 7.390625 0 3.050781 1.628906 5.871094 4.273437 7.394531l7.082032 4.089844c-8.539063 12.566406-19.378907 23.402343-31.945313 31.941406l-4.089844-7.082031c-1.519531-2.648438-4.339843-4.285156-7.390625-4.285156-3.054687-.003907-5.878906 1.625-7.402344 4.273437-1.523437 2.644531-1.515624 5.90625.019532 8.542969l4.039062 6.992187c-13.644531 6.660157-28.441406 10.632813-43.585937 11.703125v-8.101562c0-4.714844-3.820313-8.535156-8.53125-8.535156-4.714844 0-8.535157 3.820312-8.535157 8.535156v8.101562c-15.144531-1.070312-29.941406-5.042968-43.582031-11.703125l4.035157-6.992187c1.535156-2.636719 1.542968-5.898438.019531-8.542969-1.523438-2.648437-4.347657-4.277344-7.398438-4.273437-3.054687 0-5.875 1.636718-7.394531 4.285156l-4.089844 7.082031c-12.566406-8.539063-23.40625-19.375-31.941406-31.941406l7.082031-4.089844c4.078125-2.359375 5.476563-7.578125 3.121094-11.65625-2.355469-4.082031-7.574219-5.480469-11.65625-3.128906l-6.996094 4.039062c-6.660156-13.640625-10.628906-28.4375-11.699219-43.578125h8.101563c4.710937 0 8.53125-3.824218 8.53125-8.535156s-3.820313-8.535156-8.53125-8.535156h-8.101563c1.070313-15.140625 5.042969-29.9375 11.699219-43.578125l6.996094 4.039062c4.082031 2.351563 9.300781.953125 11.65625-3.128906 2.355469-4.078125.957031-9.296875-3.121094-11.65625l-7.082031-4.089844c8.535156-12.566406 19.375-23.402343 31.941406-31.941406l4.089844 7.082031c1.519531 2.648438 4.339844 4.285156 7.394531 4.285156 3.054688.003907 5.875-1.625 7.398438-4.273437 1.523437-2.644531 1.515625-5.90625-.019531-8.542969l-4.035157-6.992187c13.640625-6.660157 28.4375-10.632813 43.582031-11.703125v8.101562c0 4.714844 3.820313 8.535156 8.535157 8.535156 4.710937 0 8.53125-3.820312 8.53125-8.535156v-8.101562c15.144531 1.070312 29.941406 5.042968 43.585937 11.703125l-4.039062 6.992187c-1.535156 2.636719-1.542969 5.898438-.019532 8.542969 1.523438 2.648437 4.347657 4.277344 7.402344 4.273437 3.054688 0 5.871094-1.636718 7.390625-4.285156l4.089844-7.082031c12.570313 8.539063 23.40625 19.375 31.945313 31.941406l-7.082032 4.089844c-4.082031 2.359375-5.484375 7.578125-3.125 11.660156zm0 0"/><path d="m179.199219 252.464844v-73.265625c0-4.710938-3.820313-8.53125-8.53125-8.53125-4.714844 0-8.535157 3.820312-8.535157 8.53125v76.800781c0 2.261719.898438 4.433594 2.5 6.03125l59.734376 59.734375c3.339843 3.28125 8.699218 3.257813 12.011718-.054687 3.3125-3.308594 3.335938-8.671876.054688-12.011719zm0 0"/></svg>