<?xml version="1.0" encoding="iso-8859-1"?>
<!-- Generator: Adobe Illustrator 19.0.0, SVG Export Plug-In . SVG Version: 6.00 Build 0)  -->
<svg version="1.1" id="Layer_1" xmlns="http://www.w3.org/2000/svg" xmlns:xlink="http://www.w3.org/1999/xlink" x="0px" y="0px"
	 viewBox="0 0 512 512" style="enable-background:new 0 0 512 512;" xml:space="preserve">
<g>
	<g>
		<g>
			<path d="M256,463.495c-4.466,0-8.084,3.618-8.084,8.084v32.337c0,4.466,3.619,8.084,8.084,8.084c4.466,0,8.084-3.618,8.084-8.084
				v-32.337C264.084,467.113,260.466,463.495,256,463.495z"/>
			<path d="M256,388.042c-4.466,0-8.084,3.618-8.084,8.084v43.116c0,4.466,3.619,8.084,8.084,8.084c4.466,0,8.084-3.618,8.084-8.084
				v-43.116C264.084,391.661,260.466,388.042,256,388.042z"/>
			<path d="M223.663,495.832H105.095c-4.466,0-8.084,3.619-8.084,8.084c0,4.466,3.618,8.084,8.084,8.084h118.568
				c4.466,0,8.084-3.618,8.084-8.084C231.747,499.45,228.129,495.832,223.663,495.832z"/>
			<path d="M406.905,495.832H288.337c-4.466,0-8.084,3.619-8.084,8.084c0,4.466,3.618,8.084,8.084,8.084h118.568
				c4.466,0,8.084-3.618,8.084-8.084C414.989,499.45,411.371,495.832,406.905,495.832z"/>
			<path d="M339.537,245.221v-25.373c12.428-3.528,21.558-14.98,21.558-28.522v-64.674c0-13.544-9.13-24.995-21.558-28.522V59.284
				h24.253c10.401,0,18.863-8.463,18.863-18.863V18.863C382.653,8.463,374.19,0,363.79,0h-43.116c-4.466,0-8.084,3.619-8.084,8.084
				s3.618,8.084,8.084,8.084h43.116c1.486,0,2.695,1.208,2.695,2.695v21.558c0,1.486-1.208,2.695-2.695,2.695H212.884
				c-4.466,0-8.084,3.619-8.084,8.084s3.619,8.084,8.084,8.084h110.484v37.726h-78.147c-4.466,0-8.084,3.618-8.084,8.084
				c0,4.466,3.618,8.084,8.084,8.084h86.232c7.43,0,13.474,6.044,13.474,13.474v64.674c0,7.43-6.044,13.474-13.474,13.474h-86.232
				c-4.466,0-8.084,3.619-8.084,8.084s3.618,8.084,8.084,8.084h78.147v24.253c0,1.486-1.208,2.695-2.695,2.695H191.326
				c-1.486,0-2.695-1.208-2.695-2.695v-24.253h24.253c4.466,0,8.084-3.619,8.084-8.084s-3.619-8.084-8.084-8.084h-32.337
				c-7.43,0-13.474-6.044-13.474-13.474v-64.674c0-7.43,6.044-13.474,13.474-13.474h32.337c4.466,0,8.084-3.618,8.084-8.084
				c0-4.466-3.619-8.084-8.084-8.084h-24.253V51.2c0-4.466-3.618-8.084-8.084-8.084h-32.337c-1.486,0-2.695-1.208-2.695-2.695
				V18.863c0-1.486,1.208-2.695,2.695-2.695h140.126c4.466,0,8.084-3.619,8.084-8.084S292.803,0,288.337,0H148.211
				c-10.401,0-18.863,8.463-18.863,18.863v21.558c0,10.401,8.463,18.863,18.863,18.863h24.253V98.13
				c-12.428,3.528-21.558,14.979-21.558,28.522v64.674c0,13.544,9.13,24.995,21.558,28.522v25.373
				c0,8.529,5.69,15.755,13.475,18.078l47.232,94.463c4.35,8.704,13.099,14.111,22.83,14.111c9.731,0,18.479-5.407,22.83-14.11
				l47.232-94.465C333.847,260.976,339.537,253.75,339.537,245.221z M264.369,350.534c-1.595,3.19-4.802,5.172-8.369,5.172
				c-3.567,0-6.775-1.982-8.369-5.173l-43.225-86.448h103.186L264.369,350.534z"/>
		</g>
	</g>
</g>
<g>
</g>
<g>
</g>
<g>
</g>
<g>
</g>
<g>
</g>
<g>
</g>
<g>
</g>
<g>
</g>
<g>
</g>
<g>
</g>
<g>
</g>
<g>
</g>
<g>
</g>
<g>
</g>
<g>
</g>
</svg>
